<?xml version="1.0" encoding="utf-8"?>
<!-- Generator: Adobe Illustrator 25.4.1, SVG Export Plug-In . SVG Version: 6.00 Build 0)  -->
<svg version="1.1" id="레이어_1" xmlns="http://www.w3.org/2000/svg" xmlns:xlink="http://www.w3.org/1999/xlink" x="0px"
	 y="0px" viewBox="0 0 17.1 16.5" style="enable-background:new 0 0 17.1 16.5;" xml:space="preserve">
<style type="text/css">
	.st0{fill:#090909;}
</style>
<g>
	<path d="M2.2,6.8L0,8.7l0.7,0.8L2,8.4V7.2C2,7.1,2.1,6.9,2.2,6.8z"/>
	<path d="M17.1,8.7l-2.2-1.9c0.1,0.1,0.2,0.3,0.2,0.4v1.2l1.3,1.1L17.1,8.7z"/>
	<polygon class="st0" points="10.3,8.9 10.3,13.8 14,13.8 14,7.5 8.5,2.9 3.1,7.5 3.1,13.8 6.8,13.8 6.8,8.9 	"/>
	<polygon points="14.9,6.8 8.9,1.7 14.9,6.8 	"/>
	<polygon points="2.2,6.8 2.2,6.8 8.2,1.7 	"/>
	<path d="M14.5,14.3h-4.2H6.8H2.5V8L2,8.4v5.9c0,0.3,0.2,0.5,0.5,0.5h12c0.3,0,0.5-0.2,0.5-0.5V8.4L14.5,8V14.3z"/>
	<path d="M14.9,6.8l-6-5.1c-0.2-0.2-0.5-0.2-0.7,0l-6,5.1C2.1,6.9,2,7.1,2,7.2v1.2L2.5,8V7.2l6-5.1l6,5.1V8l0.5,0.5V7.2
		C15.1,7.1,15,6.9,14.9,6.8z"/>
	<polygon points="14,7.5 14,13.8 10.3,13.8 10.3,14.3 14.5,14.3 14.5,8 8.5,2.9 	"/>
	<polygon points="6.8,14.3 6.8,13.8 3.1,13.8 3.1,7.5 8.5,2.9 2.5,8 2.5,14.3 	"/>
	<polygon points="14.5,8 14.5,7.2 8.5,2.2 2.5,7.2 2.5,8 8.5,2.9 	"/>
</g>
</svg>
