<?xml version="1.0" encoding="utf-8"?>
<!-- Generator: Adobe Illustrator 25.4.1, SVG Export Plug-In . SVG Version: 6.00 Build 0)  -->
<svg version="1.1" id="레이어_1" xmlns="http://www.w3.org/2000/svg" xmlns:xlink="http://www.w3.org/1999/xlink" x="0px"
	 y="0px" viewBox="0 0 17.1 16.5" style="enable-background:new 0 0 17.1 16.5;" xml:space="preserve">
<style type="text/css">
	.st0{fill:none;}
	.st1{fill:#FFFFFF;}
</style>
<g>
	<polygon class="st0" points="4.7,6.6 4.7,6.6 4.7,6.7 	"/>
	<polygon points="1.7,15.7 5,15.7 4.7,6.7 4.7,6.6 2.1,6.6 	"/>
	<g>
		<path d="M1.1,16l0-0.3H0.8c-0.2,0-0.3,0.1-0.3,0.3s0.1,0.3,0.3,0.3h0.6c-0.1,0-0.2,0-0.2-0.1C1.1,16.2,1.1,16.1,1.1,16z"/>
		<path d="M1.4,16.5H0.8c-0.3,0-0.5-0.2-0.5-0.5c0-0.3,0.2-0.5,0.5-0.5h0.5l0,0.5c0,0,0,0.1,0,0.1c0,0,0.1,0.1,0.1,0.1V16.5z
			 M0.8,15.8c-0.1,0-0.2,0.1-0.2,0.2c0,0.1,0.1,0.2,0.2,0.2H1c0-0.1,0-0.1,0-0.2l0-0.2H0.8z"/>
	</g>
	<g>
		<path d="M1.7,6.3l2.9,0.1l0,0.2h0l0,0.1l0.6,4.4l0.1-0.1c0,0-0.1-0.1-0.1-0.1c-0.1-0.2,0-0.3,0.2-0.4L5.3,6.3C5.3,6.1,5.1,6,5,6
			H1.7C1.6,6,1.4,6.1,1.4,6.3l-0.3,9.4h0L1.7,6.3z"/>
		<path d="M1.2,15.8H1l0-0.2l0.3-9.4c0-0.3,0.2-0.5,0.5-0.5H5c0.3,0,0.5,0.2,0.5,0.5l0.1,4.3l-0.1,0c-0.1,0-0.1,0.1-0.1,0.2
			c0,0,0,0,0.1,0.1l0.2,0.2l-0.6,0.2L4.5,6.6L1.8,6.5L1.2,15.8z M4.8,6.5L4.8,6.5l0,0.2l0.5,3.6l-0.1-4c0-0.1-0.1-0.2-0.2-0.2H1.7
			c0,0-0.1,0-0.1,0l3.1,0.1L4.8,6.5z"/>
	</g>
	<g>
		<polygon points="2.1,6.6 4.7,6.6 4.6,6.4 1.7,6.3 1.1,15.7 1.7,15.7 		"/>
		<path d="M1.9,15.8H1l0.6-9.7l3.2,0.1l0.1,0.5H2.2L1.9,15.8z M1.3,15.5h0.3l0.3-9.1h0.4l-0.5,0L1.3,15.5z"/>
	</g>
	<g>
		<path d="M5.6,15.7l-0.2-4.6c0,0,0,0-0.1,0l-0.1,0.1L4.7,6.7l0.3,9H5.6z"/>
		<path d="M5.8,15.8H4.8L4.5,6.7l0.3,0l0.6,4.2l0,0l0.1,0.1c0,0,0,0,0,0l0.1,0L5.8,15.8z M5.1,15.5h0.4l-0.1-4.3l-0.2,0.1L4.9,9.7
			L5.1,15.5z"/>
	</g>
	<g>
		<path d="M5.6,16l-4.5,0c0,0.1,0,0.2,0.1,0.2c0.1,0.1,0.1,0.1,0.2,0.1h3.9c0.1,0,0.2,0,0.2-0.1C5.6,16.2,5.6,16.1,5.6,16z"/>
		<path d="M5.3,16.5H1.4c-0.1,0-0.3-0.1-0.3-0.1C1,16.2,0.9,16.1,0.9,16l0-0.1l4.8,0l0,0.2c0,0.1-0.1,0.2-0.1,0.3
			C5.5,16.4,5.4,16.5,5.3,16.5z M1.3,16.1c0,0,0.1,0,0.1,0h3.9c0,0,0.1,0,0.1,0L1.3,16.1z"/>
	</g>
	<g>
		<polygon points="1.1,15.7 1.1,15.7 1.1,16 		"/>
		<polygon points="1.2,16 0.9,16 1,15.5 1.3,15.5 1.3,15.7 		"/>
	</g>
	<g>
		<path d="M5.6,15.7H5H1.7H1.1l0,0.3l4.5,0c0,0,0,0,0,0L5.6,15.7z"/>
		<path d="M5.8,16.2l-0.1,0l-4.7,0l0-0.6h4.8l0,0.5l0,0L5.8,16.2z M1.2,15.9l4.2,0l0,0L1.2,15.9L1.2,15.9z"/>
	</g>
	<g>
		<path d="M6,3.3C6,3.2,5.9,3.2,5.8,3.2c-0.1,0-0.2,0.1-0.3,0.2C5.3,3.7,5,3.9,4.6,3.9c-0.1,0-0.2,0-0.3,0c-0.1,0-0.2,0-0.3,0.1
			C4,4,4,4.1,4,4.2c0,0,0,0.1,0,0.1c0,0.2-0.1,0.3-0.2,0.4c-0.1,0.1-0.1,0.3,0,0.5C3.9,5.3,4,5.3,4.1,5.3c0.1,0,0.2,0,0.2-0.1
			C4.5,5,4.6,4.8,4.6,4.5c0.4,0,0.9-0.2,1.2-0.5c0.4,0.3,0.9,0.5,1.4,0.5c1.2,0,2.3-1,2.3-2.3C9.5,2.1,9.4,2,9.2,2
			C9,2,8.9,2.1,8.9,2.3c0,0.9-0.7,1.6-1.6,1.6C6.8,3.9,6.3,3.7,6,3.3z"/>
		<path d="M4.1,5.5c-0.1,0-0.2,0-0.3-0.1c-0.2-0.2-0.2-0.5,0-0.7c0.1-0.1,0.1-0.2,0.1-0.3c0,0,0-0.1,0-0.1c0-0.2,0-0.3,0.1-0.4
			c0.1-0.1,0.3-0.2,0.4-0.1c0.1,0,0.2,0,0.2,0c0.3,0,0.6-0.2,0.7-0.4c0.1-0.1,0.2-0.2,0.4-0.2c0.2,0,0.3,0,0.4,0.2
			c0.3,0.3,0.7,0.5,1.1,0.5c0.8,0,1.5-0.7,1.5-1.5C8.7,2,9,1.8,9.2,1.8c0.3,0,0.5,0.2,0.5,0.5c0,1.3-1.1,2.4-2.4,2.4
			c-0.5,0-1-0.2-1.4-0.5C5.5,4.5,5.1,4.7,4.8,4.7C4.7,4.9,4.6,5.1,4.4,5.3C4.3,5.4,4.2,5.5,4.1,5.5z M4.3,4c0,0-0.1,0-0.1,0
			c0,0-0.1,0.1-0.1,0.2c0,0,0,0.1,0,0.1c0,0.2-0.1,0.4-0.2,0.5C3.9,5,3.9,5.1,4,5.1c0.1,0.1,0.2,0.1,0.2,0C4.4,5,4.5,4.7,4.5,4.5
			l0-0.1l0.1,0c0.4,0,0.8-0.2,1.1-0.5l0.1-0.1l0.1,0.1c0.4,0.3,0.9,0.5,1.4,0.5c1.2,0,2.1-1,2.1-2.1c0-0.1-0.1-0.2-0.2-0.2
			S9,2.2,9,2.3c0,1-0.8,1.8-1.8,1.8c-0.5,0-1-0.2-1.4-0.6l0,0c0,0-0.1-0.1-0.2-0.1c-0.1,0-0.1,0-0.1,0.1C5.4,3.8,5.1,4,4.6,4
			C4.6,4,4.5,4,4.3,4C4.3,4,4.3,4,4.3,4z"/>
	</g>
	<g>
		<path d="M2.6,5.3c0.1,0,0.2,0,0.2-0.1C3,5.1,3,4.9,2.9,4.8C2.8,4.7,2.7,4.5,2.7,4.4C2.7,4,3,3.7,3.4,3.7c0,0,0,0,0,0l0,0
			c0.1,0,0.2,0,0.3-0.1c0.1-0.1,0.1-0.2,0-0.3c0-0.1-0.1-0.2-0.1-0.3c0-0.5,0.4-1,1-1C4.8,2,5,2,5.2,2.1c0.1,0.1,0.2,0.1,0.3,0
			c0.1,0,0.2-0.1,0.2-0.2c0.2-0.7,0.8-1.1,1.6-1.1c0.2,0,0.3-0.1,0.3-0.3c0-0.2-0.1-0.3-0.3-0.3c-0.9,0-1.7,0.5-2.1,1.3
			C5,1.3,4.8,1.3,4.6,1.3C3.8,1.3,3,2,3,2.9C3,3,3,3,3,3.1c-0.6,0.1-1,0.7-1,1.3c0,0.3,0.1,0.6,0.3,0.9C2.5,5.3,2.5,5.3,2.6,5.3z"/>
		<path d="M2.6,5.5c-0.1,0-0.3-0.1-0.4-0.2C2,5.1,1.9,4.7,1.9,4.4c0-0.6,0.4-1.2,1-1.4c0,0,0,0,0-0.1c0-1,0.8-1.8,1.8-1.8
			c0.2,0,0.3,0,0.5,0.1C5.5,0.5,6.3,0,7.3,0c0.3,0,0.5,0.2,0.5,0.5S7.5,0.9,7.3,0.9C6.5,0.9,6,1.3,5.8,2c0,0.2-0.1,0.3-0.3,0.3
			c-0.1,0.1-0.3,0-0.4-0.1C5,2.2,4.8,2.1,4.6,2.1c-0.5,0-0.8,0.4-0.8,0.8c0,0.1,0,0.2,0.1,0.3c0.1,0.2,0,0.3-0.1,0.5
			C3.7,3.8,3.6,3.9,3.4,3.9l0,0c-0.3,0-0.5,0.2-0.5,0.5c0,0.1,0,0.2,0.1,0.3c0.2,0.2,0.2,0.5,0,0.7C2.9,5.4,2.7,5.5,2.6,5.5z
			 M4.6,1.5c-0.8,0-1.5,0.7-1.5,1.5c0,0.1,0,0.1,0,0.2l0,0.1l-0.1,0C2.6,3.4,2.2,3.8,2.2,4.4c0,0.3,0.1,0.6,0.3,0.8
			c0.1,0.1,0.2,0.1,0.2,0c0.1-0.1,0.1-0.2,0-0.2C2.6,4.7,2.6,4.6,2.6,4.4c0-0.4,0.4-0.8,0.8-0.8l0.1,0c0.1,0,0.1,0,0.2-0.1
			c0,0,0-0.1,0-0.2C3.6,3.2,3.5,3.1,3.5,2.9c0-0.6,0.5-1.1,1.1-1.1c0.2,0,0.4,0.1,0.6,0.2c0,0,0.1,0,0.2,0C5.5,2,5.5,2,5.6,1.9
			c0.2-0.8,0.8-1.3,1.7-1.3c0.1,0,0.2-0.1,0.2-0.2S7.4,0.3,7.3,0.3c-0.9,0-1.6,0.4-1.9,1.2L5.3,1.6l-0.1,0C5,1.5,4.8,1.5,4.6,1.5z"
			/>
	</g>
	<g>
		<path d="M5.3,10.9c0,0.1,0.1,0.1,0.1,0.1l0.1,0l0-0.5C5.3,10.6,5.2,10.8,5.3,10.9z"/>
		<path d="M5.4,11.2L5.4,11.2c-0.1-0.1-0.2-0.2-0.2-0.2l0,0c-0.1-0.2,0-0.5,0.2-0.6l0.2-0.1l0,0.8L5.4,11.2z"/>
	</g>
	<g>
		<path d="M5.5,11L5.5,11C5.4,11.1,5.4,11.1,5.5,11L5.5,11z"/>
		<path d="M5.6,11.3l-0.2-0.1c0,0-0.1,0-0.1-0.1L5.1,11l0.5-0.2L5.6,11.3z"/>
	</g>
	<g>
		<path d="M15.3,9.1l-4.1,1.7c-0.1,0-0.2,0-0.3,0c-0.1-0.1-0.1-0.2-0.1-0.3V9.1l-5.1,2c-0.1,0-0.2,0-0.3,0l0.2,4.6h9.7V9.1z
			 M7.2,14.5H6.6c-0.3,0-0.5-0.2-0.5-0.5c0-0.3,0.2-0.5,0.5-0.5h0.6c0.3,0,0.5,0.2,0.5,0.5C7.7,14.3,7.5,14.5,7.2,14.5z M7.2,12.6
			H6.6c-0.3,0-0.5-0.2-0.5-0.5s0.2-0.5,0.5-0.5h0.6c0.3,0,0.5,0.2,0.5,0.5S7.5,12.6,7.2,12.6z M9.5,14.5H8.9c-0.3,0-0.5-0.2-0.5-0.5
			c0-0.3,0.2-0.5,0.5-0.5h0.6c0.3,0,0.5,0.2,0.5,0.5C10,14.3,9.8,14.5,9.5,14.5z M9.5,12.6H8.9c-0.3,0-0.5-0.2-0.5-0.5
			s0.2-0.5,0.5-0.5h0.6c0.3,0,0.5,0.2,0.5,0.5S9.8,12.6,9.5,12.6z M11.8,14.5h-0.6c-0.3,0-0.5-0.2-0.5-0.5c0-0.3,0.2-0.5,0.5-0.5
			h0.6c0.3,0,0.5,0.2,0.5,0.5C12.2,14.3,12,14.5,11.8,14.5z M11.8,12.6h-0.6c-0.3,0-0.5-0.2-0.5-0.5s0.2-0.5,0.5-0.5h0.6
			c0.3,0,0.5,0.2,0.5,0.5S12,12.6,11.8,12.6z M14,14.5h-0.6c-0.3,0-0.5-0.2-0.5-0.5c0-0.3,0.2-0.5,0.5-0.5H14c0.3,0,0.5,0.2,0.5,0.5
			C14.5,14.3,14.3,14.5,14,14.5z M14,12.6h-0.6c-0.3,0-0.5-0.2-0.5-0.5s0.2-0.5,0.5-0.5H14c0.3,0,0.5,0.2,0.5,0.5S14.3,12.6,14,12.6
			z"/>
		<g>
			<path d="M16.3,15.7H16V16c0,0.2-0.1,0.3-0.3,0.3h0.6c0.2,0,0.3-0.1,0.3-0.3S16.5,15.7,16.3,15.7z"/>
			<path d="M16.3,16.5h-0.6v-0.3c0.1,0,0.2-0.1,0.2-0.2v-0.5h0.5c0.3,0,0.5,0.2,0.5,0.5C16.8,16.3,16.6,16.5,16.3,16.5z M16.1,16.2
				h0.2c0.1,0,0.2-0.1,0.2-0.2c0-0.1-0.1-0.2-0.2-0.2h-0.2V16C16.1,16.1,16.1,16.1,16.1,16.2z"/>
		</g>
		<g>
			<path d="M15.3,16.1L5.6,16c0,0.1,0,0.2-0.1,0.2c-0.1,0.1-0.1,0.1-0.2,0.1h10.4C15.5,16.3,15.4,16.2,15.3,16.1z"/>
			<path d="M15.7,16.5H5.3v-0.3c0,0,0.1,0,0.1-0.1c0,0,0-0.1,0-0.1l0-0.1l10,0.1l0,0.1c0,0.1,0.1,0.1,0.2,0.1V16.5z M5.7,16.2h2.8
				H5.7C5.7,16.2,5.7,16.2,5.7,16.2z"/>
		</g>
		<g>
			<path d="M15.3,16v-0.3H5.6l0,0.3c0,0,0,0,0,0L15.3,16C15.3,16.1,15.3,16,15.3,16z"/>
			<path d="M15.5,16.2L5.5,16.2l0-0.2l0-0.4h10V16h0l-0.1,0l0.1,0L15.5,16.2z M5.8,15.9l9.4,0.1v-0.1L5.8,15.9L5.8,15.9z"/>
		</g>
		<g>
			<path d="M11.2,10.1l4.5-1.4l0.1,7H16V8.6c0-0.1-0.1-0.2-0.1-0.3c-0.1-0.1-0.2-0.1-0.3,0L11.4,10V8.6c0-0.1-0.1-0.2-0.1-0.3
				c-0.1-0.1-0.2-0.1-0.3,0l-5.5,2.2c0,0,0,0,0,0l0,0.5l5.7-2.3L11.2,10.1z"/>
			<path d="M16.1,15.8h-0.5l-0.1-6.9l-4.2,1.3v0l-0.2,0.1L11,8.9l-5.7,2.3l0-0.8l0.1,0l5.6-2.2c0.1-0.1,0.3,0,0.4,0
				c0.1,0.1,0.2,0.2,0.2,0.4v1.2l3.9-1.7c0.1-0.1,0.3,0,0.4,0c0.1,0.1,0.2,0.2,0.2,0.4V15.8z M5.6,10.6l0,0.2l5.7-2.3l0,0.6V8.6
				c0-0.1,0-0.1-0.1-0.1c0,0-0.1,0-0.2,0L5.6,10.6z M15.8,8.5l0,0.9L15.8,8.5c0,0,0-0.1-0.1-0.1c0,0-0.1,0-0.2,0l-1.7,0.7L15.8,8.5z
				"/>
		</g>
		<g>
			<path d="M5.7,11.1l5.1-2v1.4c0,0.1,0.1,0.2,0.1,0.3c0.1,0.1,0.2,0.1,0.3,0l4.1-1.7v6.6h0.5l-0.1-7l-4.5,1.4l-0.1-1.4L5.5,11
				l0,0.1C5.5,11.1,5.6,11.1,5.7,11.1z"/>
			<path d="M16,15.8h-0.8V9.3l-3.9,1.7c-0.1,0.1-0.3,0-0.4,0c-0.1-0.1-0.2-0.2-0.2-0.4V9.3l-4.9,2c-0.1,0.1-0.2,0.1-0.4,0l-0.1,0
				l0-0.3l6-2.4l0.1,1.4l4.5-1.4L16,15.8z M15.5,15.5h0.2l-0.1-6.6l0,0V15.5z M10.9,9v1.5c0,0.1,0,0.1,0.1,0.1c0,0,0.1,0,0.2,0
				l3.4-1.4l-3.5,1.1L10.9,9L10.9,9z"/>
		</g>
		<g>
			<path d="M16,16v-0.3h-0.2l0,0.4l-0.5,0c0,0.1,0.2,0.3,0.3,0.3C15.8,16.3,16,16.2,16,16z"/>
			<path d="M15.7,16.5c-0.2,0-0.4-0.2-0.5-0.4l0-0.2l0.5,0l0-0.4h0.5V16C16.1,16.3,15.9,16.5,15.7,16.5z"/>
		</g>
		<g>
			<path d="M15.3,16C15.3,16,15.3,16.1,15.3,16l0.5,0.1l0-0.4h-0.5V16z"/>
			<path d="M16,16.2l-0.7,0l0-0.1c0,0,0-0.1,0-0.1v-0.5H16L16,16.2z M15.3,16.1L15.3,16.1L15.3,16.1z M15.5,15.9l0.2,0l0-0.1
				L15.5,15.9L15.5,15.9z"/>
		</g>
		<path class="st1" d="M14,14.4h-0.6c-0.2,0-0.3-0.1-0.3-0.3c0-0.2,0.1-0.3,0.3-0.3H14c0.2,0,0.3,0.1,0.3,0.3
			C14.4,14.2,14.2,14.4,14,14.4z"/>
		<path class="st1" d="M11.8,11.8h-0.6c-0.2,0-0.3,0.1-0.3,0.3c0,0.2,0.1,0.3,0.3,0.3h0.6c0.2,0,0.3-0.1,0.3-0.3
			C12.1,11.9,12,11.8,11.8,11.8z"/>
	</g>
</g>
</svg>
