<?xml version="1.0" encoding="utf-8"?>
<!-- Generator: Adobe Illustrator 25.4.1, SVG Export Plug-In . SVG Version: 6.00 Build 0)  -->
<svg version="1.1" id="레이어_1" xmlns="http://www.w3.org/2000/svg" xmlns:xlink="http://www.w3.org/1999/xlink" x="0px"
	 y="0px" viewBox="0 0 17.1 16.5" style="enable-background:new 0 0 17.1 16.5;" xml:space="preserve">
<g>
	<rect x="5.3" y="8.4" width="1.6" height="0.7"/>
	<rect x="10.2" y="8.4" width="1.6" height="0.7"/>
	<rect x="10.2" y="11.7" width="1.6" height="0.7"/>
	<path d="M2.6,6.6v8.5h11.9V6.6l-6-5.1L2.6,6.6z M8,13c0,0.3-0.2,0.5-0.5,0.5H4.8c-0.3,0-0.5-0.2-0.5-0.5v-1.8
		c0-0.3,0.2-0.5,0.5-0.5h2.6c0.3,0,0.5,0.2,0.5,0.5V13z M8,9.7c0,0.3-0.2,0.5-0.5,0.5H4.8c-0.3,0-0.5-0.2-0.5-0.5V7.9
		c0-0.3,0.2-0.5,0.5-0.5h2.6C7.8,7.4,8,7.6,8,7.9V9.7z M9.1,7.9c0-0.3,0.2-0.5,0.5-0.5h2.6c0.3,0,0.5,0.2,0.5,0.5v1.8
		c0,0.3-0.2,0.5-0.5,0.5H9.6c-0.3,0-0.5-0.2-0.5-0.5V7.9z M9.1,11.2c0-0.3,0.2-0.5,0.5-0.5h2.6c0.3,0,0.5,0.2,0.5,0.5V13
		c0,0.3-0.2,0.5-0.5,0.5H9.6c-0.3,0-0.5-0.2-0.5-0.5V11.2z"/>
	<rect x="5.3" y="11.7" width="1.6" height="0.7"/>
	<path d="M15.4,5.9L8.9,0.4c-0.2-0.2-0.5-0.2-0.7,0L1.7,5.9C1.6,6,1.5,6.2,1.5,6.3v9.3c0,0.3,0.2,0.5,0.5,0.5h13
		c0.3,0,0.5-0.2,0.5-0.5V6.3C15.6,6.2,15.5,6,15.4,5.9z M15,15.7H2V6.3l6.5-5.5L15,6.3V15.7z"/>
	<path d="M2,6.3v9.3h13V6.3L8.5,0.8L2,6.3z M14.5,15.1H2.6V6.6l6-5.1l6,5.1V15.1z"/>
</g>
</svg>
