<?xml version="1.0" encoding="utf-8"?>
<!-- Generator: Adobe Illustrator 25.4.1, SVG Export Plug-In . SVG Version: 6.00 Build 0)  -->
<svg version="1.1" id="레이어_1" xmlns="http://www.w3.org/2000/svg" xmlns:xlink="http://www.w3.org/1999/xlink" x="0px"
	 y="0px" viewBox="0 0 17.1 16.5" style="enable-background:new 0 0 17.1 16.5;" xml:space="preserve">
<g>
	<path d="M13.6,0.5h-5c-0.8,0-1.4,0.6-1.4,1.4v1.4H6.9C4.2,3.3,2,5.5,2,8.2v6.3C2,15.3,2.7,16,3.5,16h4.1H8h5.7
		c0.8,0,1.4-0.6,1.4-1.4V1.9C15,1.2,14.4,0.5,13.6,0.5z M5,13.4c0-0.2,0.2-0.4,0.4-0.4h0.7c0.2,0,0.4,0.2,0.4,0.4v1.5H5V13.4z
		 M7.5,14.9v-1.5c0-0.8-0.6-1.4-1.4-1.4H5.4c-0.8,0-1.4,0.6-1.4,1.4v1.5H3.5c-0.2,0-0.4-0.2-0.4-0.4V8.2c0-2.1,1.7-3.8,3.8-3.8H8
		c0.2,0,0.4,0.2,0.4,0.4v9.8c0,0.2-0.2,0.4-0.4,0.4H7.5L7.5,14.9z M8.2,3.4V1.9c0-0.2,0.2-0.4,0.4-0.4h5c0.2,0,0.4,0.2,0.4,0.4v12.6
		c0,0.2-0.2,0.4-0.4,0.4H9.3c0-0.1,0.1-0.2,0.1-0.4V4.7C9.4,4.1,8.9,3.5,8.2,3.4z"/>
	<g>
		<path d="M4.8,6.5c-0.3,0-0.5,0.2-0.5,0.5v0.3c0,0.3,0.2,0.5,0.5,0.5c0.3,0,0.5-0.2,0.5-0.5V7.1C5.3,6.8,5.1,6.5,4.8,6.5z"/>
		<path d="M6.5,6.5C6.3,6.5,6,6.8,6,7.1v0.3c0,0.3,0.2,0.5,0.5,0.5c0.3,0,0.5-0.2,0.5-0.5V7.1C7.1,6.8,6.8,6.5,6.5,6.5z"/>
		<path d="M4.8,8.2c-0.3,0-0.5,0.2-0.5,0.5V9c0,0.3,0.2,0.5,0.5,0.5c0.3,0,0.5-0.2,0.5-0.5V8.7C5.3,8.4,5.1,8.2,4.8,8.2z"/>
		<path d="M6.5,8.2C6.3,8.2,6,8.4,6,8.7V9c0,0.3,0.2,0.5,0.5,0.5c0.3,0,0.5-0.2,0.5-0.5V8.7C7.1,8.4,6.8,8.2,6.5,8.2z"/>
		<path d="M4.8,9.9c-0.3,0-0.5,0.2-0.5,0.5v0.4c0,0.3,0.2,0.5,0.5,0.5c0.3,0,0.5-0.2,0.5-0.5v-0.4C5.3,10.1,5.1,9.9,4.8,9.9z"/>
		<path d="M6.5,9.9C6.3,9.9,6,10.1,6,10.4v0.4c0,0.3,0.2,0.5,0.5,0.5c0.3,0,0.5-0.2,0.5-0.5v-0.4C7.1,10.1,6.8,9.9,6.5,9.9z"/>
	</g>
	<g>
		<path d="M14.4,1.8l-0.6-0.9L7.9,1.2L7.7,3.7l1.2,1.2l0,10.6l5-0.1l0.6-0.8L14.4,1.8z M12.9,13.2h-2.4c-0.2,0-0.4-0.2-0.4-0.5
			s0.2-0.5,0.4-0.5h2.4c0.2,0,0.4,0.2,0.4,0.5S13.1,13.2,12.9,13.2z M12.9,11h-2.4c-0.2,0-0.4-0.2-0.4-0.5s0.2-0.5,0.4-0.5h2.4
			c0.2,0,0.4,0.2,0.4,0.5S13.1,11,12.9,11z M12.9,8.8h-2.4c-0.2,0-0.4-0.2-0.4-0.5s0.2-0.5,0.4-0.5h2.4c0.2,0,0.4,0.2,0.4,0.5
			S13.1,8.8,12.9,8.8z M12.9,6.6h-2.4c-0.2,0-0.4-0.2-0.4-0.5c0-0.3,0.2-0.5,0.4-0.5h2.4c0.2,0,0.4,0.2,0.4,0.5
			C13.3,6.4,13.1,6.6,12.9,6.6z M12.9,4.4h-2.4c-0.2,0-0.4-0.2-0.4-0.5s0.2-0.5,0.4-0.5h2.4c0.2,0,0.4,0.2,0.4,0.5
			S13.1,4.4,12.9,4.4z"/>
	</g>
</g>
</svg>
