<?xml version="1.0" encoding="utf-8"?>
<!--학교 그림-->

<!-- Generator: Adobe Illustrator 25.4.1, SVG Export Plug-In . SVG Version: 6.00 Build 0)  -->
<svg version="1.1" id="레이어_1" xmlns="http://www.w3.org/2000/svg" xmlns:xlink="http://www.w3.org/1999/xlink" x="0px"
	 y="0px" viewBox="0 0 27.9 25.3" style="enable-background:new 0 0 27.9 25.3;" xml:space="preserve">
<style type="text/css">
	.st0{fill:#FFFFFF;}
	.st1{fill:#FFE500;}
</style>
<g>
	<rect x="1.2" y="11.8" class="st0" width="25.4" height="12.6"/>
	<polygon class="st1" points="13.7,6.8 8.8,9.7 8.3,23.5 11.3,23.5 11.8,20.7 12.5,18.9 13.6,18.5 15.2,18.9 16,20 16.1,23.7 
		19.1,23.6 19.3,9.4 	"/>
	<rect x="16.8" y="23" width="5.8" height="1.4"/>
	<polygon points="26.6,23.7 25.2,23.7 25.2,12.6 19.3,12.6 19.3,11.2 26.6,11.2 	"/>
	<polygon points="2.7,23.7 1.3,23.7 1.3,11.2 8.6,11.2 8.6,12.6 2.7,12.6 	"/>
	<rect x="4.9" y="23" width="5.5" height="1.4"/>
	<polygon points="20,24.4 16.2,24.4 16.2,23 18.6,23 18.6,9.8 14,7.2 9.3,9.9 9.3,23 11.7,23 11.7,24.4 7.9,24.4 7.9,9 14,5.6 20,9 
			"/>
	<path d="M14.2,14.4c-1.5,0-2.8-1.3-2.8-2.8s1.3-2.8,2.8-2.8s2.8,1.3,2.8,2.8S15.8,14.4,14.2,14.4z M14.2,10c-0.9,0-1.7,0.8-1.7,1.7
		c0,0.9,0.8,1.7,1.7,1.7c0.9,0,1.7-0.8,1.7-1.7C15.9,10.7,15.1,10,14.2,10z"/>
	<polygon points="14.8,12.1 13.4,12.1 13.4,11.2 13.9,11.2 13.9,10.5 14.8,10.5 	"/>
	<path d="M16.8,24.4h-1.1v-3.7c0-0.9-0.8-1.7-1.7-1.7c-0.9,0-1.7,0.8-1.7,1.7v3.7h-1.1v-3.7c0-1.6,1.3-2.8,2.8-2.8
		c1.6,0,2.8,1.3,2.8,2.8V24.4z"/>
	<polygon points="14.6,6.4 13.4,6.4 13.4,0.9 18.6,3.3 15.4,4.7 14.9,3.6 15.8,3.2 14.6,2.6 	"/>
</g>
</svg>
