<?xml version="1.0" encoding="utf-8"?>
<!--마트 그림-->

<!-- Generator: Adobe Illustrator 25.4.1, SVG Export Plug-In . SVG Version: 6.00 Build 0)  -->
<svg version="1.1" id="레이어_1" xmlns="http://www.w3.org/2000/svg" xmlns:xlink="http://www.w3.org/1999/xlink" x="0px"
	 y="0px" viewBox="0 0 27.9 25.3" style="enable-background:new 0 0 27.9 25.3;" xml:space="preserve">
<style type="text/css">
	.st0{fill:#FFFFFF;}
	.st1{fill:#FFE500;}
</style>
<g>
	<rect x="3" y="10.2" class="st0" width="21.6" height="13.1"/>
	<rect x="6.3" y="10.6" class="st1" width="15.3" height="6.5"/>
	<polygon class="st0" points="4.2,2.3 24.3,2.5 24.3,5.7 23.3,7.7 21.6,8.3 19.2,8.4 17.8,7 17.3,7.1 16.2,7.9 14.7,8.2 12.4,8.2 
		11.3,7.6 10.8,6.7 9.6,7.5 8.9,8 6.5,8.4 4.9,7.7 4.1,6.4 3.4,4 	"/>
	<polygon points="24.8,23.5 3.1,23.5 3.1,10.2 4.5,10.2 4.5,22.1 23.4,22.1 23.4,10.3 24.8,10.3 	"/>
	<path d="M7.2,9.3c-2.3,0-4.1-1.9-4.1-4.1V1.8h8.2v3.4C11.3,7.5,9.4,9.3,7.2,9.3z M4.5,3.2v2c0,1.5,1.2,2.7,2.7,2.7
		c1.5,0,2.7-1.2,2.7-2.7v-2H4.5z"/>
	<path d="M13.9,9.3c-2.3,0-4.1-1.9-4.1-4.1V1.8H18v3.4C18,7.5,16.2,9.3,13.9,9.3z M11.3,3.2v2c0,1.5,1.2,2.7,2.7,2.7
		s2.7-1.2,2.7-2.7v-2H11.3z"/>
	<path d="M20.7,9.3c-2.3,0-4.1-1.9-4.1-4.1V1.8h8.2v3.4c0,1.5-0.8,2.8-2,3.6C22.1,9.1,21.4,9.3,20.7,9.3z M18,3.2v2
		c0,1.5,1.2,2.7,2.7,2.7c0.5,0,0.9-0.1,1.3-0.4c0.8-0.5,1.3-1.4,1.3-2.4v-2H18z"/>
	<polygon points="21.7,17.2 6.3,17.2 6.3,14.6 7.4,14.6 7.4,16 20.5,16 20.5,11.8 6.9,11.8 6.9,10.6 21.7,10.6 	"/>
</g>
</svg>
