<?xml version="1.0" encoding="utf-8"?>
<!--카페 그림-->

<!-- Generator: Adobe Illustrator 25.4.1, SVG Export Plug-In . SVG Version: 6.00 Build 0)  -->
<svg version="1.1" id="레이어_1" xmlns="http://www.w3.org/2000/svg" xmlns:xlink="http://www.w3.org/1999/xlink" x="0px"
	 y="0px" viewBox="0 0 27.9 25.3" style="enable-background:new 0 0 27.9 25.3;" xml:space="preserve">
<style type="text/css">
	.st0{fill:#FFFFFF;}
	.st1{fill:#FFE500;}
</style>
<g>
	<path class="st0" d="M8.7,4.2l6.3,0L21.3,5l1.5,1.5L22.9,8l2.6-0.6l1.8,1.1l0.6,1.7c0,0-1.1,1.6-1.2,1.6c-0.1,0-2.6,0.8-2.8,0.8
		c-0.2,0-1.8,0-1.8,0l-1.4,2.5l3.6,1.6l0.3,1.5L22,20.1l-7.8,1l-6.4-0.3l-4.3-1.1L1,17.9l0.3-1.4l3.2-0.8l1.1-0.8l-1-2.3L3.5,9.8
		L3.1,6.5l1.6-1.7L8.7,4.2z"/>
	<polygon class="st1" points="5.4,7.5 8.3,6.2 14.7,6.5 18.9,7.3 19.2,8.4 13.7,8.9 6.8,8.2 	"/>
	<path d="M22.6,13.1c1,0,2.9-0.2,4.4-1.6c0.6-0.6,0.9-1.3,0.7-2.2c-0.1-0.4-0.2-0.8-0.4-1.1c-0.4-0.6-0.9-1-1.7-1.3
		c-0.6-0.2-1.2-0.2-1.9-0.1c-0.3,0-0.6,0.1-0.8,0.2c0-0.3,0-0.5,0-0.5c-0.1-2.9-10-2.9-10.5-2.9C9,3.5,3.1,4,2.1,5.9
		C2,6,2,6.2,2,6.3c0,0.2-0.3,4.8,2.4,8.3C1.5,15.3,0,16.4,0,17.7c0,2.6,6.3,4,12.4,4s12.4-1.4,12.4-4c0-1.3-1.4-2.4-4.2-3.1
		c0.3-0.5,0.7-1.1,0.9-1.6C22,13.1,22.3,13.1,22.6,13.1z M22.1,11.8c0.3-1,0.6-2.1,0.7-3.2c0,0,0,0,0.1-0.1C23.1,8.2,23.5,8.1,24,8
		c0.5-0.1,1-0.1,1.4,0.1c0.4,0.1,0.8,0.4,0.9,0.7c0.1,0.2,0.2,0.4,0.2,0.7c0.1,0.5,0,0.8-0.3,1.1C25.2,11.4,23.7,11.9,22.1,11.8z
		 M18.2,7.7C16.9,8,15,8.2,12.4,8.2c-2.8,0-4.8-0.3-6.1-0.5c0.6-0.3,1.3-0.4,2.1-0.5C11.9,6.7,15.4,6.9,18.2,7.7z M20.4,7.2
		c-0.1,0-0.1-0.1-0.2-0.1C17,5.8,12.6,5.3,8.2,5.9C6.8,6.1,5.7,6.3,4.6,7.2C3.5,6.9,3.2,6.6,3.2,6.5c0-0.4,2.9-1.7,9.2-1.7
		s9.2,1.3,9.2,1.7C21.6,6.6,21.4,6.8,20.4,7.2z M12.9,17.2c-3,0-5.3-0.9-6.9-2.6c-1.9-2-2.5-4.8-2.7-6.5c2.1,1,6.2,1.4,9.1,1.4
		c3,0,7.1-0.4,9.1-1.4c-0.2,1.8-0.8,4.8-2.7,6.8C17.4,16.4,15.4,17.2,12.9,17.2z M12.4,20.5c-7.3,0-11.1-1.8-11.1-2.7
		c0-0.4,0.8-1.4,4-2.1c1.9,1.9,4.5,2.8,7.7,2.8c2.8,0,5.1-0.9,6.8-2.7c0,0,0,0,0.1-0.1c2.8,0.6,3.8,1.4,3.8,2
		C23.6,18.7,19.7,20.5,12.4,20.5z"/>
</g>
</svg>
