<?xml version="1.0" encoding="utf-8"?>
<!--지하철 그림-->

<!-- Generator: Adobe Illustrator 25.4.1, SVG Export Plug-In . SVG Version: 6.00 Build 0)  -->
<svg version="1.1" id="레이어_1" xmlns="http://www.w3.org/2000/svg" xmlns:xlink="http://www.w3.org/1999/xlink" x="0px"
	 y="0px" viewBox="0 0 27.9 25.3" style="enable-background:new 0 0 27.9 25.3;" xml:space="preserve">
<style type="text/css">
	.st0{fill:#FFFFFF;}
	.st1{fill:#FFE500;}
</style>
<g>
	<polygon class="st0" points="9.6,2.8 9.9,0.8 11.8,0.5 16.9,0.5 18,1.2 18.3,2.9 21.9,3.1 23.1,4.6 23.4,17.2 22.2,20 12,20.3 
		5.6,20 4.5,17.5 4.5,4.7 5.8,3 	"/>
	<rect x="6.2" y="5.3" class="st1" width="15.7" height="8"/>
	<g>
		<path d="M8,18.1c-1,0-1.7-0.8-1.7-1.7c0-1,0.8-1.7,1.7-1.7s1.7,0.8,1.7,1.7C9.7,17.3,8.9,18.1,8,18.1z M8,15.6
			c-0.4,0-0.8,0.3-0.8,0.8c0,0.4,0.3,0.8,0.8,0.8c0.4,0,0.8-0.3,0.8-0.8C8.7,15.9,8.4,15.6,8,15.6z"/>
		<path d="M19.9,18.1c-1,0-1.7-0.8-1.7-1.7c0-1,0.8-1.7,1.7-1.7c1,0,1.7,0.8,1.7,1.7C21.6,17.3,20.8,18.1,19.9,18.1z M19.9,15.6
			c-0.4,0-0.8,0.3-0.8,0.8c0,0.4,0.3,0.8,0.8,0.8c0.4,0,0.8-0.3,0.8-0.8C20.6,15.9,20.3,15.6,19.9,15.6z"/>
	</g>
	<g>
		<path d="M21,20.7H6.9c-1.6,0-2.8-1.3-2.8-2.8V5.3c0-1.6,1.3-2.8,2.8-2.8H21c1.6,0,2.8,1.3,2.8,2.8v12.5
			C23.8,19.4,22.5,20.7,21,20.7z M6.9,3.4C5.8,3.4,5,4.3,5,5.3v12.5c0,1,0.8,1.9,1.9,1.9H21c1,0,1.9-0.8,1.9-1.9V5.3
			c0-1-0.8-1.9-1.9-1.9H6.9z"/>
		<path d="M21.8,13.6H6.1c-0.3,0-0.5-0.2-0.5-0.5V6.1c0-0.7,0.6-1.3,1.3-1.3H21c0.7,0,1.3,0.6,1.3,1.3v7.1
			C22.3,13.4,22,13.6,21.8,13.6z M6.6,12.6h14.7V6.1c0-0.2-0.1-0.3-0.3-0.3H6.9c-0.2,0-0.3,0.1-0.3,0.3V12.6z"/>
		<path d="M13.9,13.6c-0.3,0-0.5-0.2-0.5-0.5V5.4c0-0.3,0.2-0.5,0.5-0.5s0.5,0.2,0.5,0.5v7.7C14.4,13.4,14.2,13.6,13.9,13.6z"/>
		<path d="M16.1,13.3c-0.1,0-0.2,0-0.3-0.1c-0.2-0.2-0.3-0.5-0.1-0.7L19,7.9c0.2-0.2,0.5-0.3,0.7-0.1c0.2,0.2,0.3,0.5,0.1,0.7
			l-3.3,4.7C16.4,13.3,16.3,13.3,16.1,13.3z"/>
		<path d="M8.3,13.3c-0.1,0-0.2,0-0.3-0.1c-0.2-0.2-0.3-0.5-0.1-0.7l3.3-4.7c0.2-0.2,0.5-0.3,0.7-0.1c0.2,0.2,0.3,0.5,0.1,0.7
			l-3.3,4.7C8.6,13.3,8.4,13.3,8.3,13.3z"/>
	</g>
	<g>
		<path d="M3.2,25.3c-0.1,0-0.2,0-0.3-0.1c-0.2-0.2-0.3-0.5-0.1-0.7l3.4-4.6c0.2-0.2,0.5-0.3,0.7-0.1c0.2,0.2,0.3,0.5,0.1,0.7
			l-3.4,4.6C3.5,25.2,3.4,25.3,3.2,25.3z"/>
		<path d="M24.6,25.3c-0.2,0-0.3-0.1-0.4-0.2l-3.4-4.6c-0.2-0.2-0.1-0.5,0.1-0.7c0.2-0.2,0.5-0.1,0.7,0.1l3.4,4.6
			c0.2,0.2,0.1,0.5-0.1,0.7C24.8,25.2,24.7,25.3,24.6,25.3z"/>
		<path d="M22.7,23.2H4.9c-0.3,0-0.5-0.2-0.5-0.5s0.2-0.5,0.5-0.5h17.8c0.3,0,0.5,0.2,0.5,0.5S22.9,23.2,22.7,23.2z"/>
	</g>
	<path d="M18.2,3.5c-0.3,0-0.5-0.2-0.5-0.5V2.1c0-0.6-0.5-1.1-1.1-1.1h-5.5c-0.6,0-1.1,0.5-1.1,1.1V3c0,0.3-0.2,0.5-0.5,0.5
		C9.3,3.5,9.1,3.2,9.1,3V2.1c0-1.1,0.9-2.1,2.1-2.1h5.5c1.1,0,2.1,0.9,2.1,2.1V3C18.7,3.2,18.5,3.5,18.2,3.5z"/>
</g>
</svg>
