<?xml version="1.0" encoding="utf-8"?>
<!--병원 그림-->

<!-- Generator: Adobe Illustrator 25.4.1, SVG Export Plug-In . SVG Version: 6.00 Build 0)  -->
<svg version="1.1" id="레이어_1" xmlns="http://www.w3.org/2000/svg" xmlns:xlink="http://www.w3.org/1999/xlink" x="0px"
	 y="0px" viewBox="0 0 27.9 25.3" style="enable-background:new 0 0 27.9 25.3;" xml:space="preserve">
<style type="text/css">
	.st0{fill:#FFFFFF;}
	.st1{fill:#FFE500;}
</style>
<g>
	<polygon class="st0" points="6.3,24.4 23.6,24.2 22.9,6.6 21.3,6.2 20,5.7 19.2,4 17.5,3.5 16.8,3.8 15.7,1.9 14.2,1.8 12.4,3.8 
		9.9,4.1 9.4,8.8 9.9,18.3 9,15 7.8,12.8 5.7,12.8 5,14.6 	"/>
	<polygon class="st1" points="20.1,18.5 18.7,20 20.5,21.5 18.1,23.6 16.3,21.8 14.7,23.3 12.6,21.3 14.1,19.6 12.6,17.6 14.7,15.9 
		16.5,17.6 18.2,15.9 20.1,17.3 	"/>
	<g>
		<path d="M10.3,15.7H8.7V5.4c0-1.4,1.1-2.5,2.5-2.5c1.4,0,2.5,1.1,2.5,2.5v7.8h-1.5V5.4c0-0.5-0.4-1-1-1c-0.5,0-1,0.4-1,1V15.7z"/>
		<path d="M17.2,13.2h-1.5V3.4c0-0.5-0.4-1-1-1c-0.5,0-1,0.4-1,1v9.8h-1.5V3.4c0-1.4,1.1-2.5,2.5-2.5c1.4,0,2.5,1.1,2.5,2.5V13.2z"
			/>
		<path d="M20.6,13.2h-1.5v-8c0-0.5-0.4-1-1-1c-0.5,0-1,0.4-1,1v8h-1.5v-8c0-1.4,1.1-2.5,2.5-2.5c1.4,0,2.5,1.1,2.5,2.5V13.2z"/>
		<path d="M23.6,24.2h-1.5V7.7c0-0.5-0.3-0.9-0.7-0.9c-0.4,0-0.7,0.4-0.7,0.9v5.4h-1.5V7.7c0-1.3,1-2.4,2.3-2.4
			c1.3,0,2.3,1.1,2.3,2.4V24.2z"/>
		<path d="M6.3,24.4l-2-8.2c-0.3-1.1-0.2-3.2,1.4-3.8c0.2-0.1,1-0.4,1.9-0.1c0.9,0.3,1.5,1.2,1.9,2.4l1,4l-1.5,0.4l-1-4
			c-0.3-0.8-0.6-1.3-1-1.4c-0.3-0.1-0.7,0-0.7,0l-0.1,0.1c-0.8,0.3-0.5,2-0.5,2.1l2,8.2L6.3,24.4z"/>
		<g>
			<path d="M18.3,24.1l-6.4-6.4l2.7-2.7l6.4,6.4L18.3,24.1z M13.2,17.7l5.1,5.1l1.4-1.4l-5.1-5.1L13.2,17.7z"/>
			<polygon points="19.8,18.9 19.1,18.2 19.7,17.7 18.3,16.3 17,17.6 16.4,16.9 18.3,15 21,17.7 			"/>
			<polygon points="14.5,24.2 11.8,21.5 13.7,19.6 14.4,20.3 13.1,21.5 14.5,22.9 15.7,21.6 16.4,22.3 			"/>
		</g>
	</g>
</g>
</svg>
