<?xml version="1.0" encoding="utf-8"?>
<!--버스 그림-->

<!-- Generator: Adobe Illustrator 25.4.1, SVG Export Plug-In . SVG Version: 6.00 Build 0)  -->
<svg version="1.1" id="레이어_1" xmlns="http://www.w3.org/2000/svg" xmlns:xlink="http://www.w3.org/1999/xlink" x="0px"
	 y="0px" viewBox="0 0 27.9 25.3" style="enable-background:new 0 0 27.9 25.3;" xml:space="preserve">
<style type="text/css">
	.st0{fill:#FFFFFF;}
	.st1{fill:#FFE500;}
</style>
<g>
	<polygon class="st0" points="14.3,1.6 7.6,1.5 5.1,3.7 4.5,7.2 3.2,7.3 2.5,9.3 2.9,10.8 4.4,11 4.6,21.4 5.8,21.5 6.1,23.8 
		9.4,23.6 9.9,21 18.4,21.4 18.5,23.6 21.4,23.9 22.2,21.3 23.4,21 23.3,10.5 24.6,10.7 25.2,9.8 25.1,7.3 23.2,7.1 23.2,4.6 
		20.9,1.8 	"/>
	<rect x="6.3" y="5.6" class="st1" width="15.6" height="8.1"/>
	<g>
		<path d="M23.3,21.7H4.5c-0.2,0-0.5-0.2-0.5-0.5V5.8C4.1,3.1,6.2,1,8.9,1H19c2.6,0,4.8,2.1,4.8,4.8v15.5
			C23.8,21.5,23.6,21.7,23.3,21.7z M5,20.8h17.9V5.8c0-2.1-1.7-3.9-3.9-3.9H8.9C6.7,1.9,5,3.6,5,5.8V20.8z"/>
		<path d="M21.9,14.2H6c-0.2,0-0.5-0.2-0.5-0.5V6.1C5.5,5.5,6.1,5,6.7,5h14.4c0.6,0,1.2,0.5,1.2,1.2v7.6
			C22.3,14,22.1,14.2,21.9,14.2z M6.4,13.3h15V6.1c0-0.1-0.1-0.3-0.3-0.3H6.7C6.6,5.9,6.4,6,6.4,6.1V13.3z"/>
		<g>
			<path d="M8.9,24.3H6.7c-0.6,0-1.2-0.5-1.2-1.2v-1.8c0-0.2,0.2-0.5,0.5-0.5s0.5,0.2,0.5,0.5v1.8c0,0.1,0.1,0.3,0.3,0.3h2.2
				c0.1,0,0.3-0.1,0.3-0.3v-1.8c0-0.2,0.2-0.5,0.5-0.5S10,21,10,21.3v1.8C10,23.7,9.5,24.3,8.9,24.3z"/>
			<path d="M21.1,24.3H19c-0.6,0-1.2-0.5-1.2-1.2v-1.8c0-0.2,0.2-0.5,0.5-0.5s0.5,0.2,0.5,0.5v1.8c0,0.1,0.1,0.3,0.3,0.3h2.2
				c0.1,0,0.3-0.1,0.3-0.3v-1.8c0-0.2,0.2-0.5,0.5-0.5s0.5,0.2,0.5,0.5v1.8C22.3,23.7,21.8,24.3,21.1,24.3z"/>
		</g>
		<g>
			<path d="M4.5,11.3H3.5c-0.6,0-1.2-0.5-1.2-1.2V7.9c0-0.6,0.5-1.2,1.2-1.2h1.1C4.8,6.8,5,7,5,7.2c0,0.2-0.2,0.5-0.5,0.5H3.5
				c-0.1,0-0.3,0.1-0.3,0.3v2.2c0,0.1,0.1,0.3,0.3,0.3h1.1c0.2,0,0.5,0.2,0.5,0.5C5,11.1,4.8,11.3,4.5,11.3z"/>
			<path d="M24.4,11.3h-1.1c-0.2,0-0.5-0.2-0.5-0.5c0-0.2,0.2-0.5,0.5-0.5h1.1c0.1,0,0.3-0.1,0.3-0.3V7.9c0-0.1-0.1-0.3-0.3-0.3
				h-1.1c-0.2,0-0.5-0.2-0.5-0.5c0-0.2,0.2-0.5,0.5-0.5h1.1c0.6,0,1.2,0.5,1.2,1.2v2.2C25.6,10.8,25,11.3,24.4,11.3z"/>
		</g>
		<path d="M22.9,19.6h-18c-0.2,0-0.5-0.2-0.5-0.5s0.2-0.5,0.5-0.5h18c0.2,0,0.5,0.2,0.5,0.5S23.2,19.6,22.9,19.6z"/>
		<g>
			<path d="M10.3,17.8H6c-0.2,0-0.5-0.2-0.5-0.5v-1.8c0-0.2,0.2-0.5,0.5-0.5h2.9c1,0,1.9,0.8,1.9,1.9v0.4
				C10.8,17.6,10.6,17.8,10.3,17.8z M6.4,16.9h3.4c0-0.5-0.5-0.9-1-0.9H6.4V16.9z"/>
			<path d="M21.9,17.8h-4.3c-0.2,0-0.5-0.2-0.5-0.5V17c0-1,0.8-1.9,1.9-1.9h2.9c0.2,0,0.5,0.2,0.5,0.5v1.8
				C22.3,17.6,22.1,17.8,21.9,17.8z M18,16.9h3.4V16H19C18.5,16,18,16.4,18,16.9z"/>
		</g>
		<path d="M15.7,3.8h-3.5c-0.2,0-0.5-0.2-0.5-0.5s0.2-0.5,0.5-0.5h3.5c0.2,0,0.5,0.2,0.5,0.5S15.9,3.8,15.7,3.8z"/>
		<path d="M13.9,14.2c-0.2,0-0.5-0.2-0.5-0.5V5.5c0-0.2,0.2-0.5,0.5-0.5c0.2,0,0.5,0.2,0.5,0.5v8.2C14.4,14,14.2,14.2,13.9,14.2z"/>
		<path d="M16.7,13.9c-0.1,0-0.2,0-0.3-0.1c-0.2-0.1-0.3-0.4-0.1-0.6l3-4.3c0.1-0.2,0.4-0.3,0.6-0.1c0.2,0.1,0.3,0.4,0.1,0.6l-3,4.3
			C17,13.9,16.8,13.9,16.7,13.9z"/>
		<path d="M8.7,13.9c-0.1,0-0.2,0-0.3-0.1c-0.2-0.1-0.3-0.4-0.1-0.6l3-4.3c0.1-0.2,0.4-0.3,0.6-0.1c0.2,0.1,0.3,0.4,0.1,0.6l-3,4.3
			C9,13.9,8.9,13.9,8.7,13.9z"/>
	</g>
</g>
</svg>
