<?xml version="1.0" encoding="utf-8"?>
<!-- Generator: Adobe Illustrator 25.4.1, SVG Export Plug-In . SVG Version: 6.00 Build 0)  -->
<svg version="1.1" id="레이어_1" xmlns="http://www.w3.org/2000/svg" xmlns:xlink="http://www.w3.org/1999/xlink" x="0px"
	 y="0px" viewBox="0 0 39.4 41.9" style="enable-background:new 0 0 39.4 41.9;" xml:space="preserve">
<style type="text/css">
	.st0{fill:#E1E1E1;}
	.st1{fill:#C7C7C7;}
	.st2{fill:#f35757;}
	.st3{fill:#FFFFFF;}
</style>
<g>
	<g>
		<path class="st0" d="M39.4,31.2V2.1c0-1.2-0.9-2.1-2.1-2.1H13.6c-1.2,0-2.1,0.9-2.1,2.1v23c0,1.2,0.9,2.1,2.1,2.1h17.4L39.4,31.2z
			"/>
		<rect x="16.6" y="5.2" class="st1" width="17.3" height="2.1"/>
	</g>
	<g>
		<path class="st2" d="M0,41.9V12.8c0-1.2,0.9-2.1,2.1-2.1h23.7c1.2,0,2.1,0.9,2.1,2.1v23c0,1.2-0.9,2.1-2.1,2.1H8.5L0,41.9z"/>
		<rect x="5.2" y="16.8" class="st3" width="17.3" height="2.1"/>
		<rect x="5.2" y="23.1" class="st3" width="17.3" height="2.1"/>
		<rect x="5.2" y="29.4" class="st3" width="11.6" height="2.1"/>
	</g>
</g>
</svg>
