<?xml version="1.0" encoding="utf-8"?>
<!--확성기 그림-->

<!-- Generator: Adobe Illustrator 25.4.1, SVG Export Plug-In . SVG Version: 6.00 Build 0)  -->
<svg version="1.1" id="레이어_1" xmlns="http://www.w3.org/2000/svg" xmlns:xlink="http://www.w3.org/1999/xlink" x="0px"
	 y="0px" viewBox="0 0 15.8 15.3" style="enable-background:new 0 0 15.8 15.3;" xml:space="preserve">
<style type="text/css">
	.st0{fill:#FF3316;}
</style>
<g>
	<path class="st0" d="M15.5,13.3L2.7,9.6V4l12.8-3.4V13.3z M3.7,8.9L14.6,12V1.8L3.7,4.7V8.9z"/>
	<polygon class="st0" points="1.9,8.9 0.3,8.9 0.3,4.7 1.9,4.7 1.9,5.7 1.3,5.7 1.3,7.9 1.9,7.9 	"/>
	<polygon class="st0" points="9.6,14.7 3.8,12.7 3.8,10.9 4.7,10.9 4.7,12 8.6,13.4 8.6,12.2 9.6,12.2 	"/>
	<rect x="6.7" y="4.6" transform="matrix(0.9834 -0.1812 0.1812 0.9834 -0.7735 1.5893)" class="st0" width="3.3" height="0.9"/>
</g>
</svg>
