<?xml version="1.0" encoding="utf-8"?>
<!--알림 그림-->

<!-- Generator: Adobe Illustrator 25.4.1, SVG Export Plug-In . SVG Version: 6.00 Build 0)  -->
<svg version="1.1" id="레이어_1" xmlns="http://www.w3.org/2000/svg" xmlns:xlink="http://www.w3.org/1999/xlink" x="0px"
	 y="0px" viewBox="0 0 15.8 15.3" style="enable-background:new 0 0 15.8 15.3;" xml:space="preserve">
<style type="text/css">
	.st0{fill:#FF3316;}
</style>
<g>
	<path class="st0" d="M13.3,8.7h-0.9V4.8c0-2.1-2-3.8-4.4-3.8c-2.4,0-4.4,1.7-4.4,3.8v2.7c0,0,0,1.1,0,1.1l-0.9,0c0,0,0-1.1,0-1.2
		V4.8C2.7,2.1,5,0,8,0c2.9,0,5.3,2.1,5.3,4.8V8.7z"/>
	<polygon class="st0" points="15,12.4 0.8,12.4 2.7,9.8 3.4,10.4 2.6,11.5 13.2,11.5 12.5,10.4 13.3,9.8 	"/>
	<path class="st0" d="M8,15.3c-1.3,0-2.3-1-2.3-2.3h0.9c0,0.7,0.6,1.3,1.3,1.3s1.3-0.6,1.3-1.3h0.9C10.2,14.3,9.2,15.3,8,15.3z"/>
	<path class="st0" d="M4.7,5.8C4.4,2.9,6.4,2.4,6.5,2.3l0.2,0.9c-0.1,0-1.3,0.4-1.1,2.4L4.7,5.8z"/>
</g>
</svg>
