<?xml version="1.0" encoding="utf-8"?>
<!--문서작성 그림-->

<!-- Generator: Adobe Illustrator 25.4.1, SVG Export Plug-In . SVG Version: 6.00 Build 0)  -->
<svg version="1.1" id="레이어_1" xmlns="http://www.w3.org/2000/svg" xmlns:xlink="http://www.w3.org/1999/xlink" x="0px"
	 y="0px" viewBox="0 0 15.8 15.3" style="enable-background:new 0 0 15.8 15.3;" xml:space="preserve">
<style type="text/css">
	.st0{fill:#2B394E;}
</style>
<g>
	<rect x="4.5" y="11" class="st0" width="6.6" height="0.8"/>
	<path class="st0" d="M6.7,10.8l-2.1-2l5.7-6.1l2.1,2L6.7,10.8z M5.8,8.8l0.9,0.9l4.6-4.9l-0.9-0.9L5.8,8.8z"/>
	<path class="st0" d="M4.5,11.5c-0.1,0-0.2,0-0.3-0.1c-0.1-0.1-0.2-0.3-0.1-0.4l0.5-1.9c0.1-0.2,0.3-0.4,0.5-0.3
		c0.2,0.1,0.4,0.3,0.3,0.5l-0.3,1.2l1.2-0.4c0.2-0.1,0.4,0,0.5,0.3c0.1,0.2,0,0.4-0.3,0.5l-1.9,0.7C4.6,11.5,4.5,11.5,4.5,11.5z"/>
	<polygon class="st0" points="11,14.6 1.8,14.6 1.8,0.7 14,0.7 14,14.5 13.2,14.5 13.2,1.5 2.7,1.5 2.7,13.8 11,13.8 	"/>
</g>
</svg>
