<svg width="26" height="26" viewBox="0 0 26 26" fill="none" xmlns="http://www.w3.org/2000/svg">
<path d="M1.0573 21.5834C1.17189 23.4321 2.47956 24.9272 4.10404 24.981C5.74425 25.0348 7.37659 24.9644 9.00107 24.7696V19.9076C9.00107 19.3388 8.98309 18.7776 8.94715 18.2242C8.89857 17.3277 8.56013 16.4836 7.99733 15.8553C7.43453 15.227 6.68736 14.859 5.9004 14.8227C5.30172 14.8045 4.70272 14.8045 4.10404 14.8227C3.31708 14.859 2.56991 15.227 2.00711 15.8553C1.44431 16.4836 1.10588 17.3277 1.0573 18.2242C1.02135 18.7776 1.00225 19.3388 1 19.9076C1 20.7609 1.02359 21.0299 1.0573 21.5834Z" stroke="#CA8A04" stroke-linecap="round" stroke-linejoin="round"/>
<path d="M8.9978 24.6351C11.6479 25.1195 14.3488 25.1195 16.9989 24.6351V16.8905C16.9989 15.3031 16.9315 13.7465 16.8506 12.236C16.7596 10.4296 15.58 8.89217 13.9959 8.80761C13.3313 8.77017 12.6654 8.77017 12.0007 8.80761C10.4167 8.89601 9.23709 10.4296 9.1461 12.236C9.06858 13.7465 8.9978 15.3031 8.9978 16.8866V24.6351ZM17.0022 24.4622C18.6944 24.9439 20.4446 25.1036 22.1824 24.9349C23.6855 24.7888 24.7337 23.2745 24.7944 21.5526C24.8955 18.8007 24.9999 15.9373 24.9999 13.0009C24.9999 10.0644 24.8921 7.20103 24.7944 4.44525C24.7337 2.72721 23.6855 1.20134 22.1824 1.05914C21.3964 0.980288 20.6058 0.980288 19.8198 1.05914C18.3167 1.20134 17.2685 2.72721 17.2078 4.44525C17.1067 7.20103 17.0022 10.0644 17.0022 13.0009V24.4622Z" stroke="#CA8A04" stroke-linecap="round" stroke-linejoin="round"/>
</svg>
