<svg width="20" height="20" viewBox="0 0 20 20" fill="none" xmlns="http://www.w3.org/2000/svg">
<path fill-rule="evenodd" clip-rule="evenodd" d="M0.999987 11C0.0799871 11 -0.352013 9.863 0.335987 9.253L9.33599 1.253C9.51899 1.09049 9.75524 1.00073 9.99999 1.00073C10.2447 1.00073 10.481 1.09049 10.664 1.253L19.664 9.253C20.352 9.863 19.92 11 19 11H18V18C18 18.2652 17.8946 18.5196 17.7071 18.7071C17.5196 18.8946 17.2652 19 17 19H2.99999C2.73477 19 2.48042 18.8946 2.29288 18.7071C2.10534 18.5196 1.99999 18.2652 1.99999 18V11H0.999987ZM6.99999 17V12C6.99999 11.7348 7.10534 11.4804 7.29288 11.2929C7.48042 11.1054 7.73477 11 7.99999 11H12C12.2652 11 12.5196 11.1054 12.7071 11.2929C12.8946 11.4804 13 11.7348 13 12V17H16V10C16 9.8221 16.0474 9.64741 16.1374 9.49395C16.2274 9.34049 16.3567 9.21382 16.512 9.127L9.99999 3.337L3.48799 9.127C3.64327 9.21382 3.77258 9.34049 3.86258 9.49395C3.95258 9.64741 4.00001 9.8221 3.99999 10V17H6.99999ZM8.99999 17V13H11V17H8.99999Z" fill="#16A34A"/>
</svg>
