<svg width="50" height="50" viewBox="0 0 60 60" fill="none" xmlns="http://www.w3.org/2000/svg">
<path d="M14.2857 44.2793V22.7073H18.0952C18.373 22.7073 18.6508 22.7376 18.9286 22.7981C19.2063 22.8587 19.4841 22.928 19.7619 23.0061L36.25 29.161C36.8056 29.3602 37.2524 29.7187 37.5905 30.2366C37.9286 30.7545 38.0968 31.2923 38.0952 31.85C38.0952 32.6866 37.8071 33.3638 37.2309 33.8817C36.6548 34.3996 35.9905 34.6585 35.2381 34.6585H28.9881C28.7897 34.6585 28.6413 34.649 28.5429 34.6299C28.4444 34.6107 28.3151 34.5605 28.1548 34.4793L24.3452 32.9854L23.5714 35.3159L28.1548 36.9293C28.2341 36.9691 28.3532 36.9994 28.5119 37.0201C28.6706 37.0408 28.8095 37.0504 28.9286 37.0488H45.2381C46.5079 37.0488 47.619 37.5069 48.5714 38.4232C49.5238 39.3394 50 40.4748 50 41.8293L31.0119 49L14.2857 44.2793ZM0 49V22.7073H9.52381V49H0ZM32.1429 15.5366H34.5238V13.1463H32.1429V15.5366ZM27.381 15.5366H29.7619V13.1463H27.381V15.5366ZM32.1429 20.3171H34.5238V17.9268H32.1429V20.3171ZM27.381 20.3171H29.7619V17.9268H27.381V20.3171ZM41.7262 29.8781C41.1706 28.5634 40.377 27.4081 39.3452 26.4122C38.3135 25.4163 37.0437 24.6394 35.5357 24.0817L19.0476 17.9268H14.2857V11.9512L30.9524 0L47.619 11.9512V29.8781H41.7262Z" fill="white"/>
</svg>
