<svg width="50" height="50" viewBox="0 0 60 60" fill="none" xmlns="http://www.w3.org/2000/svg">
<path d="M27.3435 2.34375V6.25H30.4216C31.3716 6.25 32.306 6.5 33.131 6.97187L37.1622 9.27188C37.283 9.34063 37.4122 9.375 37.5497 9.375H44.531C45.1526 9.375 45.7487 9.62193 46.1882 10.0615C46.6278 10.501 46.8747 11.0971 46.8747 11.7188C46.8747 12.3404 46.6278 12.9365 46.1882 13.376C45.7487 13.8156 45.1526 14.0625 44.531 14.0625H43.1966L49.7935 28.725C49.9884 29.1588 50.0468 29.6416 49.9608 30.1093C49.8749 30.5771 49.6486 31.0076 49.3122 31.3437L47.656 29.6875L49.3091 31.3469L49.306 31.3531L49.2997 31.3594L49.281 31.3781L49.2622 31.3937L49.231 31.425L49.0903 31.55C48.4299 32.1021 47.7153 32.5708 46.9466 32.9562C45.4872 33.6875 43.3747 34.375 40.6247 34.375C38.4357 34.4006 36.271 33.9148 34.3028 32.9562C33.5356 32.5732 32.8161 32.1012 32.1591 31.55L32.0185 31.425L31.9685 31.3781L31.9497 31.3594L31.9372 31.3469V31.3437C31.6008 31.0076 31.3746 30.5771 31.2886 30.1093C31.2026 29.6416 31.261 29.1588 31.456 28.725L38.056 14.0625H37.5497C36.5966 14.0625 35.6622 13.8156 34.8372 13.3406L30.806 11.0406C30.688 10.9731 30.5544 10.9376 30.4185 10.9375H27.3435V40.625H35.156C35.7776 40.625 36.3737 40.8719 36.8132 41.3115C37.2528 41.751 37.4997 42.3471 37.4997 42.9688C37.4997 43.5904 37.2528 44.1865 36.8132 44.626C36.3737 45.0656 35.7776 45.3125 35.156 45.3125H14.8435C14.2219 45.3125 13.6257 45.0656 13.1862 44.626C12.7466 44.1865 12.4997 43.5904 12.4997 42.9688C12.4997 42.3471 12.7466 41.751 13.1862 41.3115C13.6257 40.8719 14.2219 40.625 14.8435 40.625H22.656V10.9375H19.581C19.445 10.9376 19.3115 10.9731 19.1935 11.0406L15.1653 13.3437C14.3372 13.8125 13.4028 14.0625 12.4497 14.0625H11.9435L18.5435 28.725C18.7384 29.1588 18.7968 29.6416 18.7108 30.1093C18.6249 30.5771 18.3986 31.0076 18.0622 31.3437L16.406 29.6875L18.0591 31.3469L18.056 31.3531L18.0497 31.3594L18.031 31.3781L17.981 31.425L17.8403 31.55C17.1799 32.1021 16.4653 32.5708 15.6966 32.9562C14.2372 33.6875 12.1247 34.375 9.37471 34.375C7.18571 34.4006 5.02097 33.9148 3.05283 32.9562C2.28559 32.5732 1.56607 32.1012 0.909083 31.55L0.768458 31.425L0.718458 31.3781L0.699708 31.3594L0.687208 31.3469V31.3437C0.350776 31.0076 0.12456 30.5771 0.0386028 30.1093C-0.0473546 29.6416 0.0110145 29.1588 0.205958 28.725L6.80596 14.0625H5.46846C4.84686 14.0625 4.25072 13.8156 3.81118 13.376C3.37164 12.9365 3.12471 12.3404 3.12471 11.7188C3.12471 11.0971 3.37164 10.501 3.81118 10.0615C4.25072 9.62193 4.84686 9.375 5.46846 9.375H12.4497C12.5867 9.37547 12.7214 9.33991 12.8403 9.27188L16.8653 6.96875C17.6935 6.5 18.6278 6.25 19.581 6.25H22.656V2.34375C22.656 1.72215 22.9029 1.12601 23.3424 0.686468C23.782 0.24693 24.3781 0 24.9997 0C25.6213 0 26.2174 0.24693 26.657 0.686468C27.0965 1.12601 27.3435 1.72215 27.3435 2.34375ZM36.5466 28.8344C37.4372 29.2563 38.7903 29.6875 40.6247 29.6875C42.4591 29.6875 43.8122 29.2563 44.7028 28.8344L40.6247 19.7719L36.5466 28.8344ZM5.29658 28.8344C6.18721 29.2563 7.54033 29.6875 9.37471 29.6875C11.2091 29.6875 12.5622 29.2563 13.4528 28.8344L9.37471 19.7719L5.29658 28.8344Z" fill="white"/>
</svg>
