<svg width="50" height="50" viewBox="0 0 60 60" fill="none" xmlns="http://www.w3.org/2000/svg">
<path d="M21.2175 52.5H38.7825C40.3579 52.5 41.911 52.1277 43.3152 51.4136C44.7195 50.6994 45.9351 49.6636 46.8631 48.3905C47.7911 47.1175 48.4052 45.6432 48.6553 44.0877C48.9055 42.5323 48.7846 40.9398 48.3025 39.44L44.0375 26.175C43.2277 23.6555 41.6391 21.458 39.5006 19.8991C37.3621 18.3401 34.7839 17.5001 32.1375 17.5H27.8625C25.216 17.5001 22.6379 18.3401 20.4994 19.8991C18.3609 21.458 16.7723 23.6555 15.9625 26.175L11.6975 39.44C11.2154 40.9398 11.0945 42.5323 11.3447 44.0877C11.5948 45.6432 12.2089 47.1175 13.1369 48.3905C14.0649 49.6636 15.2805 50.6994 16.6848 51.4136C18.089 52.1277 19.6421 52.5 21.2175 52.5ZM37.5 7.5C35.8333 14.1667 33.3333 17.5 30 17.5C26.6667 17.5 24.1667 14.1667 22.5 7.5H37.5Z" stroke="white" stroke-width="4" stroke-linecap="round" stroke-linejoin="round"/>
<path d="M35 27.5H28.75C27.7554 27.5 26.8016 27.8951 26.0983 28.5983C25.3951 29.3016 25 30.2554 25 31.25C25 32.2446 25.3951 33.1984 26.0983 33.9017C26.8016 34.6049 27.7554 35 28.75 35H31.25C32.2446 35 33.1984 35.3951 33.9017 36.0983C34.6049 36.8016 35 37.7554 35 38.75C35 39.7446 34.6049 40.6984 33.9017 41.4016C33.1984 42.1049 32.2446 42.5 31.25 42.5H25M30 25V27.5M30 42.5V45" stroke="white" stroke-width="4" stroke-linecap="round" stroke-linejoin="round"/>
</svg>
