<svg width="43" height="56" viewBox="0 0 43 56" fill="none" xmlns="http://www.w3.org/2000/svg">
<path d="M7.6079 2.20021L11.4022 1.05736C13.1294 0.536268 14.9872 0.661544 16.6288 1.4098C18.2704 2.15805 19.5837 3.47814 20.3233 5.12364L22.6845 10.3762C23.3207 11.7912 23.4979 13.3699 23.1913 14.8908C22.8847 16.4116 22.1096 17.7983 20.9748 18.8562L16.849 22.7031C16.7997 22.7521 16.7581 22.8084 16.7256 22.8699C16.2936 23.7522 16.9496 26.1088 19.0045 29.6699C21.3222 33.6836 23.1119 35.2699 23.9416 35.0254L29.3565 33.3682C30.8394 32.9154 32.4269 32.9379 33.8963 33.4326C35.3658 33.9274 36.6437 34.8696 37.5508 36.1271L40.9062 40.7739C41.9596 42.233 42.4476 44.0248 42.2794 45.8166C42.1113 47.6083 41.2984 49.2781 39.9919 50.5156L37.105 53.2471C36.1012 54.198 34.8821 54.8919 33.552 55.2696C32.2218 55.6473 30.82 55.6976 29.4662 55.4162C21.4273 53.7431 14.225 47.2699 7.79761 36.1385C1.3679 25.0002 -0.636673 15.5145 1.94618 7.71336C2.37854 6.40731 3.11892 5.22452 4.10476 4.26494C5.09061 3.30535 6.29066 2.59716 7.6079 2.20021ZM8.60218 5.4825C7.81181 5.72056 7.09034 6.14538 6.49876 6.72105C5.90717 7.29672 5.46285 8.00633 5.20333 8.78993C2.97704 15.5122 4.78047 24.0516 10.769 34.4242C16.753 44.7899 23.2399 50.6185 30.1679 52.0585C30.9802 52.2271 31.8213 52.1966 32.6193 51.9698C33.4173 51.7429 34.1486 51.3264 34.7508 50.7556L37.6353 48.0265C38.3391 47.3603 38.7771 46.4612 38.8679 45.4964C38.9587 44.5316 38.6962 43.5666 38.129 42.7808L34.7736 38.1316C34.2853 37.4547 33.5974 36.9474 32.8063 36.681C32.0152 36.4146 31.1606 36.4023 30.3622 36.6459L24.9336 38.3076C21.9302 39.2014 19.105 36.6985 16.0376 31.3819C13.4388 26.8836 12.5382 23.6334 13.649 21.3636C13.8654 20.9217 14.1534 20.5324 14.513 20.1956L18.6388 16.3488C19.25 15.7791 19.6676 15.0324 19.8328 14.2133C19.998 13.3942 19.9026 12.544 19.5599 11.7819L17.1965 6.53164C16.7982 5.64538 16.091 4.93438 15.2068 4.53143C14.3227 4.12847 13.3221 4.06111 12.3919 4.34193L8.60218 5.4825Z" fill="white"/>
</svg>
