<svg width="49" height="57" viewBox="0 0 49 57" fill="none" xmlns="http://www.w3.org/2000/svg">
<path d="M11.3333 27H32.6667V32.3333H11.3333V27ZM16.6667 48.3333H6V5.66667H24.6667V19H38V27.2667L43.3333 21.9333L43.3333 16.3333L27.3333 0.333333H6C4.58551 0.333333 3.22896 0.895236 2.22876 1.89543C1.22857 2.89562 0.666667 4.25218 0.666667 5.66667V48.3333C0.666667 49.7478 1.22857 51.1044 2.22876 52.1046C3.22896 53.1048 4.58551 53.6667 6 53.6667H16.6667V48.3333ZM11.3333 43H22.2667L24.6667 40.6V37.6667H11.3333V43ZM43.8667 29.6667C44.1333 29.6667 44.6667 29.9333 44.9333 30.2L48.4 33.6667C48.9333 34.2 48.9333 35.2667 48.4 35.8L45.7333 38.4667L40.1333 32.8667L42.8 30.2C43.0667 29.9333 43.3333 29.6667 43.8667 29.6667ZM43.8667 40.0667L27.6 56.3333H22V50.7333L38.2667 34.4667L43.8667 40.0667Z" fill="white"/>
</svg>
