<svg width="56" height="52" viewBox="0 0 56 52" fill="none" xmlns="http://www.w3.org/2000/svg">
<path d="M28 0C43.4667 0 56.0027 9.77067 56.0027 21.8267C56.0027 33.88 43.4667 43.6507 28.0027 43.6507C26.463 43.6479 24.9249 43.55 23.3973 43.3573L11.6427 51.0453C10.3067 51.752 9.83466 51.6747 10.384 49.944L12.7627 40.136C5.08265 36.2427 0.00265503 29.496 0.00265503 21.8267C0.00265503 9.77333 12.536 0 28.0027 0M43.7573 21.4933L47.6773 17.696C47.9035 17.4611 48.0297 17.1476 48.0293 16.8215C48.0289 16.4953 47.902 16.1821 47.6752 15.9478C47.4485 15.7134 47.1396 15.5762 46.8137 15.565C46.4878 15.5539 46.1702 15.6697 45.928 15.888L40.7867 20.864V16.752C40.7867 16.4182 40.654 16.098 40.418 15.862C40.182 15.6259 39.8618 15.4933 39.528 15.4933C39.1942 15.4933 38.874 15.6259 38.638 15.862C38.4019 16.098 38.2693 16.4182 38.2693 16.752V23.5707C38.225 23.7655 38.225 23.9678 38.2693 24.1627V28C38.2693 28.3338 38.4019 28.654 38.638 28.89C38.874 29.1261 39.1942 29.2587 39.528 29.2587C39.8618 29.2587 40.182 29.1261 40.418 28.89C40.654 28.654 40.7867 28.3338 40.7867 28V24.3653L41.9253 23.264L45.7333 28.6853C45.8284 28.8207 45.9492 28.936 46.0888 29.0246C46.2285 29.1133 46.3842 29.1736 46.5471 29.2021C46.7101 29.2305 46.877 29.2267 47.0385 29.1906C47.1999 29.1546 47.3526 29.0871 47.488 28.992C47.6233 28.8969 47.7386 28.7761 47.8273 28.6365C47.916 28.4968 47.9762 28.3411 48.0047 28.1782C48.0332 28.0152 48.0293 27.8483 47.9933 27.6869C47.9572 27.5254 47.8897 27.3727 47.7947 27.2373L43.7573 21.4933ZM35.8693 26.624H31.976V16.792C31.9611 16.4686 31.8221 16.1633 31.5879 15.9397C31.3538 15.716 31.0424 15.5913 30.7187 15.5913C30.3949 15.5913 30.0835 15.716 29.8494 15.9397C29.6152 16.1633 29.4762 16.4686 29.4613 16.792V27.8827C29.4613 28.576 30.0213 29.1413 30.7173 29.1413H35.8693C36.2031 29.1413 36.5233 29.0087 36.7593 28.7727C36.9954 28.5366 37.128 28.2165 37.128 27.8827C37.128 27.5488 36.9954 27.2287 36.7593 26.9927C36.5233 26.7566 36.2031 26.624 35.8693 26.624ZM20.2507 23.7147L22.1067 19.16L23.808 23.712L20.2507 23.7147ZM26.9787 25.0133L26.984 24.9707C26.9831 24.6536 26.8621 24.3487 26.6453 24.1173L23.856 16.6507C23.7391 16.2948 23.5163 15.9832 23.2176 15.7573C22.9188 15.5315 22.5582 15.4021 22.184 15.3867C21.8074 15.3865 21.4395 15.5002 21.1287 15.713C20.8179 15.9257 20.5788 16.2275 20.4427 16.5787L16.0107 27.4453C15.8844 27.7544 15.8861 28.101 16.0154 28.4088C16.1447 28.7166 16.3909 28.9604 16.7 29.0867C17.0091 29.2129 17.3556 29.2112 17.6634 29.0819C17.9712 28.9527 18.2151 28.7064 18.3413 28.3973L19.2267 26.2293H24.7467L25.5413 28.3627C25.5955 28.5221 25.6812 28.6691 25.7932 28.7948C25.9053 28.9206 26.0414 29.0226 26.1936 29.0948C26.3458 29.167 26.5109 29.2079 26.6791 29.2151C26.8474 29.2223 27.0154 29.1956 27.1732 29.1367C27.331 29.0778 27.4754 28.9879 27.5977 28.8722C27.7201 28.7564 27.818 28.6173 27.8857 28.4631C27.9533 28.3089 27.9893 28.1426 27.9916 27.9742C27.9938 27.8058 27.9622 27.6386 27.8987 27.4827L26.9787 25.0133ZM18.1173 16.8053C18.118 16.6401 18.086 16.4763 18.0232 16.3234C17.9604 16.1706 17.8679 16.0317 17.7512 15.9147C17.6344 15.7977 17.4957 15.705 17.343 15.6418C17.1903 15.5786 17.0266 15.5463 16.8613 15.5467H8.20799C7.87417 15.5467 7.55402 15.6793 7.31798 15.9153C7.08193 16.1514 6.94932 16.4715 6.94932 16.8053C6.94932 17.1392 7.08193 17.4593 7.31798 17.6953C7.55402 17.9314 7.87417 18.064 8.20799 18.064H11.3013V28.0267C11.3013 28.3605 11.4339 28.6806 11.67 28.9167C11.906 29.1527 12.2262 29.2853 12.56 29.2853C12.8938 29.2853 13.214 29.1527 13.45 28.9167C13.686 28.6806 13.8187 28.3605 13.8187 28.0267V18.064H16.8587C17.0241 18.0647 17.1881 18.0326 17.3412 17.9696C17.4942 17.9066 17.6332 17.8139 17.7502 17.6969C17.8673 17.5799 17.9599 17.4409 18.0229 17.2878C18.086 17.1348 18.118 16.9708 18.1173 16.8053Z" fill="white"/>
</svg>
