<svg width="58" height="56" viewBox="0 0 58 56" fill="none" xmlns="http://www.w3.org/2000/svg">
<path d="M37 36H47.6667L55.6667 54.6667H2.33334L10.3333 36H21M31.6667 17.3333C31.6667 18.0406 31.3857 18.7188 30.8856 19.2189C30.3855 19.719 29.7073 20 29 20C28.2928 20 27.6145 19.719 27.1144 19.2189C26.6143 18.7188 26.3333 18.0406 26.3333 17.3333C26.3333 16.6261 26.6143 15.9478 27.1144 15.4477C27.6145 14.9476 28.2928 14.6667 29 14.6667C29.7073 14.6667 30.3855 14.9476 30.8856 15.4477C31.3857 15.9478 31.6667 16.6261 31.6667 17.3333ZM13 17.3333C13 30.6667 29 44 29 44C29 44 45 30.6667 45 17.3333C45 8.22133 37.8373 1.33333 29 1.33333C20.1627 1.33333 13 8.22133 13 17.3333Z" stroke="white" stroke-width="2"/>
</svg>
