<svg width="18" height="18" viewBox="0 0 18 18" fill="none" xmlns="http://www.w3.org/2000/svg">
	<path d="M15.3176 12.5818V4.96038C15.7209 4.85189 16.0895 4.63329 16.3863 4.32679C16.683 4.02029 16.8972 3.63679 17.0071 3.21525C17.117 2.7937 17.1188 2.34912 17.0122 1.92664C16.9055 1.50416 16.6943 1.11883 16.4 0.809782C16.1057 0.500732 15.7387 0.278965 15.3364 0.167C14.934 0.0550351 14.5106 0.0568595 14.1092 0.172288C13.7077 0.287716 13.3425 0.512638 13.0506 0.824215C12.7587 1.13579 12.5506 1.52293 12.4472 1.94631H5.18905C5.08572 1.52293 4.87754 1.13579 4.58565 0.824215C4.29375 0.512638 3.92854 0.287716 3.52708 0.172288C3.12563 0.0568595 2.70224 0.0550351 2.29989 0.167C1.89755 0.278965 1.53059 0.500732 1.23627 0.809782C0.941946 1.11883 0.730749 1.50416 0.62412 1.92664C0.517492 2.34912 0.519229 2.7937 0.629156 3.21525C0.739083 3.63679 0.953285 4.02029 1.25001 4.32679C1.54674 4.63329 1.91542 4.85189 2.31863 4.96038V12.5818C1.91542 12.6903 1.54674 12.9089 1.25001 13.2154C0.953285 13.5219 0.739083 13.9054 0.629156 14.3269C0.519229 14.7485 0.517492 15.1931 0.62412 15.6156C0.730749 16.038 0.941946 16.4234 1.23627 16.7324C1.53059 17.0415 1.89755 17.2632 2.29989 17.3752C2.70224 17.4872 3.12563 17.4853 3.52708 17.3699C3.92854 17.2545 4.29375 17.0296 4.58565 16.718C4.87754 16.4064 5.08572 16.0193 5.18905 15.5959H12.4472C12.5506 16.0193 12.7587 16.4064 13.0506 16.718C13.3425 17.0296 13.7077 17.2545 14.1092 17.3699C14.5106 17.4853 14.934 17.4872 15.3364 17.3752C15.7387 17.2632 16.1057 17.0415 16.4 16.7324C16.6943 16.4234 16.9055 16.038 17.0122 15.6156C17.1188 15.1931 17.117 14.7485 17.0071 14.3269C16.8972 13.9054 16.683 13.5219 16.3863 13.2154C16.0895 12.9089 15.7209 12.6903 15.3176 12.5818ZM14.7268 1.32587C14.9605 1.32587 15.189 1.39865 15.3833 1.535C15.5777 1.67135 15.7291 1.86514 15.8186 2.09188C15.908 2.31862 15.9314 2.56812 15.8858 2.80883C15.8402 3.04953 15.7277 3.27063 15.5624 3.44417C15.3971 3.61771 15.1866 3.73589 14.9573 3.78377C14.7281 3.83165 14.4905 3.80708 14.2746 3.71316C14.0586 3.61924 13.8741 3.46019 13.7442 3.25613C13.6144 3.05207 13.5451 2.81216 13.5451 2.56674C13.5451 2.23764 13.6696 1.92202 13.8912 1.68932C14.1128 1.45661 14.4134 1.32587 14.7268 1.32587ZM1.72776 2.56674C1.72776 2.32132 1.79707 2.08141 1.92692 1.87735C2.05677 1.67329 2.24133 1.51425 2.45726 1.42033C2.67319 1.32641 2.9108 1.30184 3.14003 1.34972C3.36927 1.3976 3.57983 1.51578 3.7451 1.68932C3.91037 1.86285 4.02292 2.08396 4.06851 2.32466C4.11411 2.56537 4.09071 2.81487 4.00127 3.0416C3.91182 3.26834 3.76036 3.46214 3.56602 3.59849C3.37169 3.73484 3.14321 3.80761 2.90949 3.80761C2.59608 3.80761 2.2955 3.67688 2.07388 3.44417C1.85226 3.21146 1.72776 2.89584 1.72776 2.56674ZM2.90949 16.2163C2.67577 16.2163 2.44729 16.1435 2.25296 16.0072C2.05862 15.8708 1.90716 15.6771 1.81771 15.4503C1.72827 15.2236 1.70487 14.9741 1.75047 14.7334C1.79606 14.4927 1.90861 14.2716 2.07388 14.098C2.23915 13.9245 2.44971 13.8063 2.67895 13.7584C2.90818 13.7105 3.14579 13.7351 3.36172 13.829C3.57765 13.923 3.76221 14.082 3.89206 14.2861C4.02191 14.4901 4.09122 14.73 4.09122 14.9754C4.09122 15.3045 3.96672 15.6202 3.7451 15.8529C3.52348 16.0856 3.2229 16.2163 2.90949 16.2163ZM12.4472 14.355H5.18905C5.08287 13.9286 4.87047 13.5396 4.57368 13.228C4.27689 12.9163 3.90642 12.6933 3.50035 12.5818V4.96038C3.90642 4.84889 4.27689 4.62586 4.57368 4.31422C4.87047 4.00258 5.08287 3.61357 5.18905 3.18718H12.4472C12.5534 3.61357 12.7658 4.00258 13.0626 4.31422C13.3594 4.62586 13.7299 4.84889 14.1359 4.96038V12.5818C13.7296 12.6927 13.3588 12.9155 13.0619 13.2273C12.7651 13.539 12.5528 13.9283 12.4472 14.355ZM14.7268 16.2163C14.4931 16.2163 14.2646 16.1435 14.0703 16.0072C13.8759 15.8708 13.7245 15.6771 13.635 15.4503C13.5456 15.2236 13.5222 14.9741 13.5678 14.7334C13.6134 14.4927 13.7259 14.2716 13.8912 14.098C14.0564 13.9245 14.267 13.8063 14.4962 13.7584C14.7255 13.7105 14.9631 13.7351 15.179 13.829C15.3949 13.923 15.5795 14.082 15.7094 14.2861C15.8392 14.4901 15.9085 14.73 15.9085 14.9754C15.908 15.3044 15.7834 15.6197 15.5619 15.8523C15.3404 16.0849 15.0401 16.2158 14.7268 16.2163Z" fill="black"/>
</svg>
