<?xml version="1.0" encoding="utf-8"?>
<!-- Generator: Adobe Illustrator 25.4.1, SVG Export Plug-In . SVG Version: 6.00 Build 0)  -->
<svg version="1.1" id="레이어_1" xmlns="http://www.w3.org/2000/svg" xmlns:xlink="http://www.w3.org/1999/xlink" x="0px"
	 y="0px" viewBox="0 0 20.7 17.5" style="enable-background:new 0 0 20.7 17.5;" xml:space="preserve">
<style type="text/css">
	.st0{fill:#090909;}
</style>
<g>
	<path class="st0" d="M10.3,7c-1,0-1.8,0.8-1.8,1.8c0,1,0.8,1.8,1.8,1.8c1,0,1.8-0.8,1.8-1.8C12.1,7.8,11.3,7,10.3,7z"/>
	<path class="st0" d="M17.9,8.1h-1.2c-0.3-3-2.7-5.5-5.8-5.8V1.1c0-0.3-0.3-0.6-0.6-0.6S9.7,0.8,9.7,1.1v1.2c-3,0.3-5.5,2.7-5.8,5.8
		H2.7c-0.3,0-0.6,0.3-0.6,0.6c0,0.3,0.3,0.6,0.6,0.6h1.2c0.3,3,2.7,5.5,5.8,5.8v1.2c0,0.3,0.3,0.6,0.6,0.6s0.6-0.3,0.6-0.6v-1.2
		c3-0.3,5.5-2.7,5.8-5.8h1.2c0.3,0,0.6-0.3,0.6-0.6C18.6,8.4,18.3,8.1,17.9,8.1z M11,13.9v-0.5c0-0.3-0.3-0.6-0.6-0.6
		S9.7,13,9.7,13.4v0.5c-2.4-0.3-4.2-2.2-4.5-4.5h0.5c0.3,0,0.6-0.3,0.6-0.6c0-0.3-0.3-0.6-0.6-0.6H5.2c0.3-2.4,2.2-4.2,4.5-4.5v0.5
		c0,0.3,0.3,0.6,0.6,0.6S11,4.5,11,4.1V3.6c2.4,0.3,4.2,2.2,4.5,4.5h-0.5c-0.3,0-0.6,0.3-0.6,0.6c0,0.3,0.3,0.6,0.6,0.6h0.5
		C15.2,11.7,13.3,13.6,11,13.9z"/>
</g>
</svg>
