<svg width="18" height="20" viewBox="0 0 18 20" fill="none" xmlns="http://www.w3.org/2000/svg">
	<path d="M8.52941 7H6.64706M8.52941 4H5.70588M8.52941 10H5.70588M8.52941 16H5.70588M8.52941 13H6.64706M17 1H13.2353M15.1176 1V19M17 19H13.2353M8.52941 17.875C8.52941 18.496 8.04753 19 7.45365 19H2.07576C1.9356 19.0012 1.7966 18.973 1.66668 18.9171C1.53676 18.8612 1.41848 18.7787 1.31858 18.6742C1.21869 18.5698 1.13914 18.4454 1.08448 18.3083C1.02981 18.1711 1.00111 18.0239 1 17.875V2C1 1.73478 1.09916 1.48043 1.27566 1.29289C1.45217 1.10536 1.69156 1 1.94118 1H7.45365C8.04753 1 8.52941 1.504 8.52941 2.125V17.875Z" stroke="#111111" stroke-linecap="round" stroke-linejoin="round"/>
</svg>
