<?xml version="1.0" encoding="utf-8"?>
<!-- Generator: Adobe Illustrator 25.4.1, SVG Export Plug-In . SVG Version: 6.00 Build 0)  -->
<svg version="1.1" id="레이어_1" xmlns="http://www.w3.org/2000/svg" xmlns:xlink="http://www.w3.org/1999/xlink" x="0px"
	 y="0px" viewBox="0 0 20.7 17.5" style="enable-background:new 0 0 20.7 17.5;" xml:space="preserve">
	 <style type="text/css">
	.st0{fill:#0072ff;}
</style>
<g>
	<path class="st0" d="M5.7,13.8H4.5V9.1c0-3.2,2.6-5.7,5.7-5.7c3.2,0,5.7,2.6,5.7,5.7v4.7h-1.2V9.1c0-2.5-2-4.5-4.5-4.5c-2.5,0-4.5,2-4.5,4.5
		V13.8z"/>
	<polygon class="st0" points="13.5,17.2 3.1,17.2 3.1,13.4 17.6,13.4 17.6,16.6 16.4,16.6 16.4,14.6 4.3,14.6 4.3,16 13.5,16 	"/>
	<rect class="st0" x="5" y="1.9" transform="matrix(0.6144 -0.789 0.789 0.6144 -0.1507 5.5644)" width="1.2" height="2.1"/>
	<rect class="st0" x="14" y="2.3" transform="matrix(0.7892 -0.6142 0.6142 0.7892 1.3676 9.857)" width="2.1" height="1.2"/>
	<rect class="st0" x="9.7" y="0.3" width="1.2" height="2"/>
</g>
</svg>
