<?xml version="1.0" encoding="utf-8"?>
<!-- Generator: Adobe Illustrator 25.4.1, SVG Export Plug-In . SVG Version: 6.00 Build 0)  -->
<svg version="1.1" id="레이어_1" xmlns="http://www.w3.org/2000/svg" xmlns:xlink="http://www.w3.org/1999/xlink" x="0px"
	 y="0px" viewBox="0 0 20.7 17.5" style="enable-background:new 0 0 20.7 17.5;" xml:space="preserve">
	 <style type="text/css">
	.st0{fill:#0072ff;}
</style>
<g>
	<path class="st0" d="M10.3,0C5.5,0,1.6,3.9,1.6,8.8c0,4.8,3.9,8.8,8.8,8.8c4.8,0,8.8-3.9,8.8-8.8C19.1,3.9,15.2,0,10.3,0z M10.3,16.5
		c-4.3,0-7.7-3.5-7.7-7.7C2.6,4.5,6.1,1,10.3,1c4.3,0,7.7,3.5,7.7,7.7h0C18.1,13,14.6,16.5,10.3,16.5z M12.3,3.3
		c-0.2-0.1-0.4,0-0.6,0.1L8,7.7c0,0,0,0,0,0c0,0,0,0,0,0.1c0,0,0,0,0,0c0,0,0,0,0,0.1c0,0,0,0,0,0.1c0,0,0,0,0,0.1c0,0,0,0,0,0.1
		c0,0,0,0,0,0L8,13.7c0,0.2,0.1,0.4,0.3,0.5c0.1,0,0.1,0,0.2,0c0.1,0,0.3-0.1,0.4-0.2l3.7-4.2c0,0,0,0,0,0c0,0,0,0,0,0
		c0,0,0,0,0-0.1c0,0,0,0,0,0c0,0,0,0,0-0.1c0,0,0,0,0-0.1c0,0,0,0,0-0.1c0,0,0,0,0,0l-0.2-5.6C12.6,3.6,12.5,3.4,12.3,3.3z M9,12.4
		L8.9,8.8l0.3,0.1l1,0.4l1,0.4l0.3,0.1L9,12.4z M11.8,8.7l-0.4-0.1l-0.9-0.3L9.7,8L9.2,7.8v0l2.4-2.7L11.8,8.7L11.8,8.7z"/>
</g>
</svg>
