<?xml version="1.0" encoding="utf-8"?>
<!-- Generator: Adobe Illustrator 25.4.1, SVG Export Plug-In . SVG Version: 6.00 Build 0)  -->
<svg version="1.1" id="레이어_1" xmlns="http://www.w3.org/2000/svg" xmlns:xlink="http://www.w3.org/1999/xlink" x="0px"
	 y="0px" viewBox="0 0 16 16" style="enable-background:new 0 0 16 16;" xml:space="preserve">
<style type="text/css">
	.st0{fill:#0073FF;}
</style>
<path class="st0" d="M10.7,10l-0.4,0.3c-0.7,0.7-1.7,1.1-2.7,1.1c-2.1,0-3.8-1.7-3.8-3.8s1.7-3.8,3.8-3.8c2.1,0,3.8,1.7,3.8,3.8
	c0,0.5-0.1,1-0.3,1.5l-0.1,0.1l0.9,0.4l0.1-0.1c0.2-0.6,0.4-1.2,0.4-1.9c0-2.7-2.2-4.8-4.8-4.8S2.8,4.9,2.8,7.6s2.2,4.8,4.8,4.8
	c1.1,0,2.2-0.4,3-1.1l1.8,1.9l0.7-0.7L10.7,10z"/>
</svg>
