<svg width="18" height="18" viewBox="0 0 18 18" fill="none" xmlns="http://www.w3.org/2000/svg">
    <path d="M0.571411 16.7494H8.55677M5.89498 5.50615H6.78225M5.89498 8.96561H6.78225M5.89498 12.4251H6.78225M10.3313 5.50615H11.2186M10.3313 8.96561H11.2186M2.34594 16.7494V2.91155C2.34594 2.4528 2.53289 2.01284 2.86568 1.68845C3.19847 1.36406 3.64983 1.18182 4.12046 1.18182H12.9931C13.4637 1.18182 13.9151 1.36406 14.2479 1.68845C14.5806 2.01284 14.7676 2.4528 14.7676 2.91155V8.96561M13.8812 15.8845C13.6481 15.8846 13.4173 15.8399 13.2019 15.753C12.9866 15.6661 12.7909 15.5387 12.626 15.3781C12.4611 15.2175 12.3304 15.0268 12.2411 14.8169C12.1518 14.607 12.1059 14.382 12.1058 14.1548C12.1057 13.6959 12.2926 13.2558 12.6254 12.9313C12.9582 12.6067 13.4096 12.4243 13.8803 12.4242C14.3511 12.4241 14.8026 12.6063 15.1356 12.9306C15.4685 13.255 15.6556 13.6951 15.6558 14.1539C15.6558 14.3811 15.61 14.6061 15.5208 14.8161C15.4317 15.026 15.301 15.2168 15.1362 15.3775C14.9714 15.5382 14.7758 15.6657 14.5604 15.7527C14.3451 15.8397 14.1143 15.8845 13.8812 15.8845ZM13.8812 15.8845L13.8803 17.1818M13.8803 11.1278V12.4251M16.5705 12.6413L15.418 13.2899M12.3454 15.0197L11.1919 15.6683M11.1919 12.6413L12.3454 13.2899M15.418 15.0197L16.5714 15.6683" stroke="#0072ff" stroke-linecap="round" stroke-linejoin="round"/>
</svg>