<svg width="16" height="16" viewBox="0 0 16 16" fill="none" xmlns="http://www.w3.org/2000/svg">
	<path fill-rule="evenodd" clip-rule="evenodd" d="M1.87914 1.73768C1.28645 2.29624 0.815286 2.96127 0.492788 3.69446C0.17029 4.42766 0.00282486 5.21455 3.54313e-05 6.00982C-0.002754 6.80509 0.159187 7.59303 0.476535 8.32827C0.793882 9.06352 1.26037 9.73154 1.84913 10.2939C2.43789 10.8562 3.13731 11.3018 3.90709 11.6049C4.67688 11.908 5.50184 12.0627 6.33448 12.06C7.16711 12.0573 7.99097 11.8974 8.75861 11.5894C9.52626 11.2813 10.2225 10.8313 10.8073 10.2652C11.9782 9.1318 12.6322 7.60207 12.6266 6.00982C12.621 4.41756 11.9563 2.89205 10.7775 1.76615C9.59873 0.640252 8.00154 0.00536814 6.33448 3.38854e-05C4.66742 -0.00530037 3.06581 0.619349 1.87914 1.73768ZM9.99578 9.49009C9.51824 9.95724 8.94837 10.3292 8.3192 10.5845C7.69003 10.8397 7.01408 10.9731 6.33053 10.977C5.64697 10.9809 4.96941 10.8551 4.33711 10.6071C3.70481 10.359 3.13035 9.99348 2.64703 9.53178C2.16372 9.07008 1.78115 8.52134 1.52151 7.91738C1.26187 7.31342 1.13032 6.66624 1.13449 6.01336C1.13866 5.36048 1.27846 4.71488 1.54579 4.11398C1.81312 3.51309 2.20266 2.96885 2.69184 2.51281C3.66055 1.58757 4.97441 1.06777 6.34439 1.06777C7.71436 1.06777 9.02822 1.58757 9.99693 2.51281C10.9656 3.43805 11.5099 4.69296 11.5099 6.00145C11.5099 7.30994 10.9645 8.56485 9.99578 9.49009Z" fill="#0072ff"/>
	<path d="M9.70535 11.5381C9.49626 11.3313 9.38056 11.0544 9.38318 10.7669C9.38579 10.4794 9.50651 10.2045 9.71934 10.0012C9.93216 9.79791 10.2201 9.68261 10.521 9.68011C10.822 9.67761 11.112 9.78812 11.3285 9.98783L15.6778 14.142C15.8869 14.3487 16.0026 14.6257 15.9999 14.9132C15.9973 15.2006 15.8766 15.4756 15.6638 15.6789C15.451 15.8822 15.1631 15.9975 14.8621 16C14.5611 16.0025 14.2712 15.8919 14.0547 15.6922L9.70535 11.5381ZM4.20358 6.65159C4.05136 6.65159 3.90538 6.59383 3.79774 6.49103C3.69011 6.38823 3.62964 6.24879 3.62964 6.10341C3.62964 5.95802 3.69011 5.81859 3.79774 5.71578C3.90538 5.61298 4.05136 5.55522 4.20358 5.55522H8.79509C8.94731 5.55522 9.09329 5.61298 9.20092 5.71578C9.30856 5.81859 9.36903 5.95802 9.36903 6.10341C9.36903 6.24879 9.30856 6.38823 9.20092 6.49103C9.09329 6.59383 8.94731 6.65159 8.79509 6.65159H4.20358Z" fill="#0072ff"/>
	<path d="M5.92554 3.91069C5.92554 3.7653 5.98601 3.62587 6.09364 3.52306C6.20127 3.42026 6.34726 3.3625 6.49948 3.3625C6.65169 3.3625 6.79768 3.42026 6.90531 3.52306C7.01295 3.62587 7.07341 3.7653 7.07341 3.91069V8.29615C7.07341 8.44154 7.01295 8.58097 6.90531 8.68378C6.79768 8.78658 6.65169 8.84434 6.49948 8.84434C6.34726 8.84434 6.20127 8.78658 6.09364 8.68378C5.98601 8.58097 5.92554 8.44154 5.92554 8.29615V3.91069Z" fill="#0072ff"/>
</svg>
