<?xml version="1.0" encoding="utf-8"?>
<!--건물 그림-->

<!-- Generator: Adobe Illustrator 25.4.1, SVG Export Plug-In . SVG Version: 6.00 Build 0)  -->
<svg version="1.1" id="레이어_1" xmlns="http://www.w3.org/2000/svg" xmlns:xlink="http://www.w3.org/1999/xlink" x="0px"
	 y="0px" viewBox="0 0 17.1 16.5" style="enable-background:new 0 0 17.1 16.5; fill: #fff;" xml:space="preserve">
<g>
	<path d="M9.4,1.7H0.8v12l8.6,0V1.7z M2,3.1h2.4v1.4H2V3.1z M4.4,13.2H2v-1.4h2.4V13.2z M4.4,10.2H2V8.8h2.4V10.2z M4.4,7.5H2V6.1
		h2.4V7.5z M8.3,13.2H5.8v-1.4h2.4V13.2z M8.3,8.8v1.4H5.9V8.8H8.3z M5.9,7.5V6.1h2.4v1.4H5.9z M5.8,4.4V3.1h2.4v1.4H5.8z"/>
	<polygon points="9.4,14.3 8.4,14.3 8.4,14.2 1.8,14.2 1.8,14.3 1,14.3 1,14.6 16.1,14.6 16.1,14.3 15.2,14.3 15.2,14.2 11,14.2 
		11,14.3 10,14.3 10,13.9 9.4,13.9 	"/>
	<polygon points="1.8,14.2 8.4,14.2 8.4,14.3 9.4,14.3 9.4,13.9 1,13.9 1,14.3 1.8,14.3 	"/>
	<polygon points="16.3,13.7 16.3,14.3 16.2,14.3 16.2,14.6 0.9,14.6 0.9,14.3 0.8,14.3 0.8,13.7 0.8,13.7 0.8,14.7 16.3,14.7 
		16.3,13.7 	"/>
	<rect x="9.4" y="13.7" width="0.6" height="0.1"/>
	<polygon points="0.9,14.3 0.9,13.8 9.4,13.8 9.4,13.7 0.8,13.7 0.8,14.3 	"/>
	<rect x="9.4" y="13.8" width="0.6" height="0.1"/>
	<polygon points="16.1,14.6 1,14.6 1,14.3 0.9,14.3 0.9,14.6 16.2,14.6 16.2,14.3 16.1,14.3 	"/>
	<polygon points="1,13.9 9.4,13.9 9.4,13.8 0.9,13.8 0.9,14.3 1,14.3 	"/>
	<path d="M16.3,7.6H10v6.1l6.3,0V7.6z M13.7,8.7h1.5v0.8h-1.5V8.7z M13.7,10.3h1.5v0.8h-1.5V10.3z M12.7,13h-1.5v-0.8h1.5V13z
		 M12.8,11.2h-1.5v-0.8h1.5V11.2z M12.8,9.5h-1.5V8.7h1.5V9.5z M13.6,13v-0.8h1.5V13H13.6z"/>
	<polygon points="11,14.3 11,14.2 15.2,14.2 15.2,14.3 16.1,14.3 16.1,13.9 10,13.9 10,14.3 	"/>
	<polygon points="16.2,13.8 16.2,14.3 16.3,14.3 16.3,13.7 10,13.7 10,13.8 	"/>
	<polygon points="10,13.8 10,13.9 16.1,13.9 16.1,14.3 16.2,14.3 16.2,13.8 	"/>
</g>
</svg>
