<?xml version="1.0" encoding="utf-8"?>
<!-- Generator: Adobe Illustrator 25.4.1, SVG Export Plug-In . SVG Version: 6.00 Build 0)  -->
<svg version="1.1" id="레이어_1" xmlns="http://www.w3.org/2000/svg" xmlns:xlink="http://www.w3.org/1999/xlink" x="0px"
	 y="0px" viewBox="0 0 17.1 16.5" style="enable-background:new 0 0 17.1 16.5; fill:#fff;" xml:space="preserve">
<style type="text/css">
	.st0{fill:none;}
</style>
<g>
	<g>
		<path d="M4.3,6.2C2.9,6.2,1.8,5,1.8,3.6V1.5h5.1v2.1C6.9,5,5.7,6.2,4.3,6.2z M2.7,2.4v1.2c0,0.9,0.7,1.7,1.7,1.7
			C5.2,5.3,6,4.5,6,3.6V2.4H2.7z"/>
		<path d="M4.3,6.3c-1.5,0-2.7-1.2-2.7-2.7V1.4H7v2.2C7,5.1,5.8,6.3,4.3,6.3z M1.9,1.6v2C1.9,5,3,6,4.3,6C5.7,6,6.7,5,6.7,3.6v-2
			H1.9z M4.3,5.4c-1,0-1.8-0.8-1.8-1.8V2.3h3.6v1.4C6.1,4.6,5.3,5.4,4.3,5.4z M2.8,2.5v1.1c0,0.9,0.7,1.6,1.5,1.6
			c0.8,0,1.5-0.7,1.5-1.6V2.5H2.8z"/>
	</g>
	<g>
		<path d="M8.5,6.2C7.1,6.2,6,5,6,3.6V1.5h5.1v2.1C11.1,5,9.9,6.2,8.5,6.2z M6.9,2.4v1.2c0,0.9,0.7,1.7,1.7,1.7
			c0.9,0,1.7-0.8,1.7-1.7V2.4H6.9z"/>
		<path d="M8.5,6.3c-1.5,0-2.7-1.2-2.7-2.7V1.4h5.3v2.2C11.2,5.1,10,6.3,8.5,6.3z M6.1,1.6v2C6.1,5,7.2,6,8.5,6s2.4-1.1,2.4-2.4v-2
			H6.1z M8.5,5.4c-1,0-1.8-0.8-1.8-1.8V2.3h3.6v1.4C10.3,4.6,9.5,5.4,8.5,5.4z M7,2.5v1.1c0,0.9,0.7,1.6,1.5,1.6
			c0.8,0,1.5-0.7,1.5-1.6V2.5H7z"/>
	</g>
	<g>
		<path d="M12.7,6.2c-1.4,0-2.5-1.2-2.5-2.6V1.5h5.1v2.1c0,0.9-0.5,1.8-1.3,2.2C13.6,6.1,13.2,6.2,12.7,6.2z M11.1,2.4v1.2
			c0,0.9,0.7,1.7,1.7,1.7c0.3,0,0.6-0.1,0.8-0.2c0.5-0.3,0.8-0.9,0.8-1.5V2.4H11.1z"/>
		<path d="M12.7,6.3c-1.5,0-2.7-1.2-2.7-2.7V1.4h5.3v2.2c0,1-0.5,1.9-1.3,2.3C13.7,6.2,13.2,6.3,12.7,6.3z M10.3,1.6v2
			C10.3,5,11.4,6,12.7,6c0.4,0,0.8-0.1,1.2-0.3c0.7-0.4,1.2-1.2,1.2-2.1v-2H10.3z M12.7,5.4c-1,0-1.8-0.8-1.8-1.8V2.3h3.6v1.4
			c0,0.6-0.3,1.3-0.9,1.6C13.4,5.3,13.1,5.4,12.7,5.4z M11.2,2.5v1.1c0,0.9,0.7,1.6,1.5,1.6c0.3,0,0.5-0.1,0.8-0.2
			c0.5-0.3,0.8-0.8,0.8-1.4V2.5H11.2z"/>
	</g>
	<g>
		<rect x="2.7" y="14.1" class="st0" width="11.7" height="0"/>
		<g>
			<path d="M14.4,4v1.3H2.7V4H1.8v11h13.5V4H14.4z M3.6,6.9l9.8,0v4.3H3.6V6.9z M14.4,14.2H2.7v0L14.4,14.2L14.4,14.2z"/>
			<path d="M15.4,15.1H1.7V3.8h1.1v1.3h11.4V3.9h1.1V15.1z M1.9,14.8h13.2V4.2h-0.6v1.3h-12V4.1H1.9V14.8z M14.4,14.3H2.5V14l0.1,0
				h11.8v0.3L14.4,14.3z M13.6,11.3H3.5V6.7l10.1,0V11.3z M3.8,11.1h9.6V7L3.8,7V11.1z"/>
		</g>
	</g>
</g>
</svg>
