<?xml version="1.0" encoding="utf-8"?>
<!-- Generator: Adobe Illustrator 25.4.1, SVG Export Plug-In . SVG Version: 6.00 Build 0)  -->
<svg version="1.1" id="레이어_1" xmlns="http://www.w3.org/2000/svg" xmlns:xlink="http://www.w3.org/1999/xlink" x="0px"
	 y="0px" viewBox="0 0 16.8 17.4" style="enable-background:new 0 0 16.8 17.4; fill: #fff;" xml:space="preserve">
<style type="text/css">
	.st0{fill:none;}
</style>
<g>
	<g>
		<path d="M10.5,0H6.3C5.4,0,4.6,0.7,4.6,1.6v0h7.5v0C12.1,0.7,11.4,0,10.5,0z"/>
	</g>
	<g>
		<polygon class="st0" points="3.9,14.9 3.1,16 13.7,16 12.9,14.9 		"/>
		<path d="M3.4,13.3h9.9c0.7,0,1.2-0.5,1.2-1.2V3.4c0-0.7-0.5-1.2-1.2-1.2H3.4c-0.7,0-1.2,0.5-1.2,1.2v8.7
			C2.3,12.8,2.8,13.3,3.4,13.3z M4.8,12.1c-0.4,0-0.8-0.4-0.8-0.8c0-0.4,0.4-0.8,0.8-0.8s0.8,0.4,0.8,0.8
			C5.6,11.8,5.2,12.1,4.8,12.1z M12,12.1c-0.4,0-0.8-0.4-0.8-0.8c0-0.4,0.4-0.8,0.8-0.8c0.4,0,0.8,0.4,0.8,0.8
			C12.8,11.8,12.4,12.1,12,12.1z M8.8,3.9c0-0.2,0.1-0.3,0.3-0.3h3c0.5,0,1,0.4,1,1v2.9c0,0.5-0.4,1-1,1h-3C9,8.5,8.8,8.3,8.8,8.1
			V3.9z M3.7,4.6c0-0.6,0.4-1,1-1h3C7.8,3.6,8,3.7,8,3.9v4.2c0,0.2-0.1,0.3-0.3,0.3h-3c-0.6,0-1-0.4-1-1V4.6z"/>
		<path d="M13.3,13.8h-1.2l0.3,0.4h-8l0.3-0.4H3.5l-2.9,3.6h1.5l0.4-0.6v0h11.8l0.4,0.6h1.5L13.3,13.8z M3.1,16l0.8-1.1h9l0.8,1.1
			H3.1z"/>
	</g>
</g>
</svg>
