<?xml version="1.0" encoding="utf-8"?>
<!-- Generator: Adobe Illustrator 25.4.1, SVG Export Plug-In . SVG Version: 6.00 Build 0)  -->
<svg version="1.1" id="레이어_1" xmlns="http://www.w3.org/2000/svg" xmlns:xlink="http://www.w3.org/1999/xlink" x="0px"
	 y="0px" viewBox="0 0 16.8 17.4" style="enable-background:new 0 0 16.8 17.4; fill: #fff;" xml:space="preserve">
<g>
	<path d="M12.5,0.6H4.2c-1.1,0-2,0.9-2,2v11.2c0,0.6,0.5,1.1,1.1,1.1h10.1c0.6,0,1.1-0.5,1.1-1.1V2.6C14.6,1.5,13.7,0.6,12.5,0.6z
		 M3.4,3.1c0-0.7,0.5-1.2,1.2-1.2h7.3c0.7,0,1.2,0.5,1.2,1.2v5.1c0,0.4-0.3,0.8-0.8,0.8H4.2C3.8,9,3.4,8.6,3.4,8.2V3.1z M5.4,13
		c0,0.2-0.1,0.3-0.3,0.3H3.6c-0.2,0-0.3-0.1-0.3-0.3v-0.9c0-0.2,0.1-0.3,0.3-0.3h1.6c0.2,0,0.3,0.1,0.3,0.3V13z M10.7,13.2H6.1v-0.5
		h4.6V13.2z M13.6,13c0,0.2-0.1,0.3-0.3,0.3h-1.6c-0.2,0-0.3-0.1-0.3-0.3v-0.9c0-0.2,0.1-0.3,0.3-0.3h1.6c0.2,0,0.3,0.1,0.3,0.3V13z
		"/>
	<path d="M0.3,4.4v2.1c0,0.3,0.3,0.6,0.6,0.6h0.8V3.8H0.9C0.5,3.8,0.3,4,0.3,4.4z"/>
	<path d="M15.9,3.7h-0.8v3.3h0.8c0.3,0,0.6-0.3,0.6-0.6V4.4C16.5,4,16.3,3.7,15.9,3.7z"/>
	<path d="M3.2,15.9c0,0.5,0.4,0.8,0.8,0.8h1c0.5,0,0.8-0.4,0.8-0.8v-0.5H3.2V15.9z"/>
	<path d="M11.1,15.9c0,0.5,0.4,0.8,0.8,0.8h1c0.5,0,0.8-0.4,0.8-0.8v-0.5h-2.7V15.9z"/>
</g>
</svg>
