<?xml version="1.0" encoding="utf-8"?>
<!-- Generator: Adobe Illustrator 25.4.1, SVG Export Plug-In . SVG Version: 6.00 Build 0)  -->
<svg version="1.1" id="레이어_1" xmlns="http://www.w3.org/2000/svg" xmlns:xlink="http://www.w3.org/1999/xlink" x="0px"
	 y="0px" viewBox="0 0 16.8 17.4" style="enable-background:new 0 0 16.8 17.4; fill: #fff;" xml:space="preserve">
<style type="text/css">
	.st0{fill:#fff;}
</style>
<g>
	<g>
		<path class="st0" d="M4.6,4C4.4,3.7,4,3.7,3.7,4c-1,1-1,2.8,0,3.8c0.3,0.3,0.7,0.3,0.9,0c0.3-0.3,0.3-0.7,0-0.9
			c-0.5-0.5-0.5-1.4,0-1.9C4.9,4.7,4.9,4.3,4.6,4z"/>
		<path class="st0" d="M14.7,8l-2.8-2.8L9.1,2.4C7.2,0.4,4,0.4,2.1,2.4c-1.9,1.9-1.9,5.1,0,7.1l2.8,2.8L7.7,15
			c1.9,1.9,5.1,1.9,7.1,0C16.7,13.1,16.7,9.9,14.7,8z M6,11.1L3.2,8.3C1.8,7,1.8,4.8,3.2,3.5c1.3-1.3,3.5-1.3,4.9,0l2.8,2.8L6,11.1z
			"/>
	</g>
</g>
</svg>
