<?xml version="1.0" encoding="utf-8"?>
<!-- Generator: Adobe Illustrator 25.4.1, SVG Export Plug-In . SVG Version: 6.00 Build 0)  -->
<svg version="1.1" id="레이어_1" xmlns="http://www.w3.org/2000/svg" xmlns:xlink="http://www.w3.org/1999/xlink" x="0px"
	 y="0px" viewBox="0 0 16.8 17.4" style="enable-background:new 0 0 16.8 17.4; fill: #fff;" xml:space="preserve">
<style type="text/css">
	.st0{fill:#fff;}
</style>
<g>
	<g>
		<path class="st0" d="M6.9,2.8C7.1,2.4,7,2,6.7,1.8C6.3,1.6,5.9,1.7,5.7,2L4.2,4.4h1.7L6.9,2.8z"/>
		<path class="st0" d="M10.9,4.4h1.7L11.1,2c-0.2-0.3-0.6-0.4-1-0.2C9.8,2,9.7,2.4,9.9,2.8L10.9,4.4z"/>
		<path class="st0" d="M15.6,5.1H1.1C0.5,5.1,0,5.6,0,6.3s0.5,1.1,1.1,1.1h0.2c0,0,0,0,0,0l1.9,7.9c0.1,0.2,0.2,0.4,0.5,0.4h9.4
			c0.2,0,0.4-0.2,0.5-0.4l1.9-7.9c0,0,0,0,0,0h0.2c0.6,0,1.1-0.5,1.1-1.1S16.3,5.1,15.6,5.1z M5.5,12.2c0,0.3-0.2,0.5-0.5,0.5
			c-0.3,0-0.5-0.2-0.5-0.5v-1.9C4.4,10,4.7,9.7,5,9.7c0.3,0,0.5,0.2,0.5,0.5V12.2z M8.9,12.2c0,0.3-0.2,0.5-0.5,0.5
			c-0.3,0-0.5-0.2-0.5-0.5v-1.9c0-0.3,0.2-0.5,0.5-0.5c0.3,0,0.5,0.2,0.5,0.5V12.2z M12.3,12.2c0,0.3-0.2,0.5-0.5,0.5
			c-0.3,0-0.5-0.2-0.5-0.5v-1.9c0-0.3,0.2-0.5,0.5-0.5c0.3,0,0.5,0.2,0.5,0.5V12.2z M15.6,6.6H1.1C1,6.6,0.8,6.5,0.8,6.3
			C0.8,6.1,1,6,1.1,6h14.5C15.8,6,16,6.1,16,6.3C16,6.5,15.8,6.6,15.6,6.6z"/>
	</g>
</g>
</svg>
