<?xml version="1.0" encoding="utf-8"?>
<!-- Generator: Adobe Illustrator 25.4.1, SVG Export Plug-In . SVG Version: 6.00 Build 0)  -->
<svg version="1.1" id="레이어_1" xmlns="http://www.w3.org/2000/svg" xmlns:xlink="http://www.w3.org/1999/xlink" x="0px"
	 y="0px" viewBox="0 0 16.8 17.4" style="enable-background:new 0 0 16.8 17.4;" xml:space="preserve">
<style type="text/css">
	.st0{fill:#fff;}
</style>
<path class="st0" d="M13.5,3.7c-0.4,0-0.7,0.1-1.1,0.2h-12v5.6c0,2.3,1.9,4.2,4.2,4.2h3.6c2.3,0,4.2-1.9,4.2-4.2V9.1
	c0.3,0.1,0.6,0.2,1,0.2c1.6,0,2.8-1.3,2.8-2.8C16.3,4.9,15.1,3.7,13.5,3.7z M13.5,8c-0.4,0-0.7-0.1-1-0.4V5.4c0.3-0.2,0.6-0.4,1-0.4
	C14.3,5,15,5.7,15,6.5S14.3,8,13.5,8z"/>
</svg>
