<?xml version="1.0" encoding="utf-8"?>
<!-- Generator: Adobe Illustrator 25.4.1, SVG Export Plug-In . SVG Version: 6.00 Build 0)  -->
<svg version="1.1" id="레이어_1" xmlns="http://www.w3.org/2000/svg" xmlns:xlink="http://www.w3.org/1999/xlink" x="0px"
	 y="0px" viewBox="0 0 18.4 16.2" style="enable-background:new 0 0 18.4 16.2;" xml:space="preserve">
<style type="text/css">
	.st0{fill:#fff;}
</style>
<g>
	<g>
		<path class="st0" d="M14.1,7.4L7.3,0.6L1.2,0.1l0.5,6.1L8.5,13l-0.4,0.4l0.7,0.7l0.4-0.4l5.6-5.6l0.4-0.4L14.5,7L14.1,7.4z
			 M13.4,8.2l-0.8,0.8L6.8,3.2L6.1,3.9l5.8,5.8l-1.1,1.1L5,5L4.3,5.7l5.8,5.8l-0.8,0.8L2.8,5.7L2.5,3c0.3-0.1,0.7-0.3,1-0.6
			c0.3-0.3,0.5-0.7,0.6-1l2.7,0.2L13.4,8.2z"/>
		<path class="st0" d="M11.1,15.4c0.8,0.8,2.1,0.8,2.8,0l2.7-2.7c0.8-0.8,0.8-2.1,0-2.8l-1.2-1.2l-5.5,5.5L11.1,15.4z"/>
	</g>
</g>
</svg>
