<?xml version="1.0" encoding="utf-8"?>
<!-- Generator: Adobe Illustrator 25.4.1, SVG Export Plug-In . SVG Version: 6.00 Build 0)  -->
<svg version="1.1" id="레이어_1" xmlns="http://www.w3.org/2000/svg" xmlns:xlink="http://www.w3.org/1999/xlink" x="0px"
	 y="0px" viewBox="0 0 18.4 16.2" style="enable-background:new 0 0 18.4 16.2;" xml:space="preserve">
<style type="text/css">
	.st0{fill:#fff;}
</style>
<g>
	<g>
		<path class="st0" d="M6.1,5.8L3.9,3.5c-1,1.1-1.5,2.4-1.7,3.8C3.6,7.2,5,6.7,6.1,5.8z"/>
		<path class="st0" d="M8.5,8.1L6.9,6.5c-1.3,1.2-3,1.8-4.7,1.8c0.1,1.5,0.6,3.1,1.7,4.3L8.5,8.1z"/>
		<path class="st0" d="M10.8,10.4L9.2,8.8l-4.6,4.6c1.2,1.1,2.8,1.6,4.3,1.7C9,13.4,9.6,11.7,10.8,10.4z"/>
		<path class="st0" d="M4.6,2.8L6.9,5c1-1.1,1.5-2.5,1.5-3.9C7,1.3,5.7,1.8,4.6,2.8z"/>
		<path class="st0" d="M7.6,5.8l1.6,1.6l4.6-4.6C12.5,1.7,11,1.1,9.4,1.1C9.4,2.8,8.8,4.4,7.6,5.8z"/>
		<path class="st0" d="M11.5,11.1c-1,1.1-1.5,2.5-1.5,3.9c1.4-0.2,2.7-0.7,3.8-1.7L11.5,11.1z"/>
		<path class="st0" d="M9.9,8.1l1.6,1.6c1.3-1.2,3-1.8,4.7-1.8c-0.1-1.5-0.6-3.1-1.7-4.3L9.9,8.1z"/>
		<path class="st0" d="M12.2,10.4l2.3,2.3c1-1.1,1.5-2.4,1.7-3.8C14.8,8.9,13.4,9.4,12.2,10.4z"/>
	</g>
</g>
</svg>
