<?xml version="1.0" encoding="utf-8"?>
<!-- Generator: Adobe Illustrator 25.4.1, SVG Export Plug-In . SVG Version: 6.00 Build 0)  -->
<svg version="1.1" id="레이어_1" xmlns="http://www.w3.org/2000/svg" xmlns:xlink="http://www.w3.org/1999/xlink" x="0px"
	 y="0px" viewBox="0 0 18.4 16.2" style="enable-background:new 0 0 18.4 16.2;" xml:space="preserve">
<style type="text/css">
	.st0{fill:#fff;}
</style>
<g>
	<path class="st0" d="M14.8,6.4c0.1-0.6,0.2-1.3,0.2-2h-1.8c0,0.4,0,0.7-0.1,1.1L8.3,3C8,2.8,7.7,2.7,7.4,2.7C7.3,2.2,7,1.8,6.7,1.4
		c-1-1-2.4-1.1-3.5-0.5L2.5,0.2c-0.3-0.3-0.8-0.3-1.1,0C1,0.5,1,1,1.3,1.3L2,2C1.4,3.1,1.5,4.6,2.5,5.6c0.4,0.4,0.8,0.6,1.3,0.8
		c0,0.3,0.1,0.6,0.3,0.9L6.7,12c-0.4,0.1-0.7,0.1-1.1,0.1v1.8c0.7,0,1.3-0.1,2-0.2l0.6,1.2c0.7,1.2,2.2,1.7,3.4,1l-1.6-3
		c0.8-0.4,1.6-1,2.3-1.7c0.7-0.7,1.2-1.4,1.7-2.3l3,1.6c0.7-1.2,0.2-2.7-1-3.4L14.8,6.4z M3.5,2.4c0.6-0.6,1.5-0.6,2.1,0
		C6.2,3,6.2,4,5.7,4.5c-0.6,0.6-1.5,0.6-2.1,0C2.9,4,2.9,3,3.5,2.4z M9.1,11.3L6.2,5.9c0.2-0.1,0.3-0.2,0.4-0.4
		C6.8,5.4,6.9,5.3,7,5.1L12.4,8C11.6,9.4,10.5,10.5,9.1,11.3z"/>
</g>
</svg>
