<?xml version="1.0" encoding="utf-8"?>
<!-- Generator: Adobe Illustrator 25.4.1, SVG Export Plug-In . SVG Version: 6.00 Build 0)  -->
<svg version="1.1" id="레이어_1" xmlns="http://www.w3.org/2000/svg" xmlns:xlink="http://www.w3.org/1999/xlink" x="0px"
	 y="0px" viewBox="0 0 18.4 16.2" style="enable-background:new 0 0 18.4 16.2;" xml:space="preserve">
<style type="text/css">
	.st0{fill:#fff;}
</style>
<g>
	<path class="st0" d="M17.5,4.3V2.6c0-0.2-0.1-0.4-0.3-0.5c-1.3-0.6-2.7-1-4.1-1c-1.3,0-2.7,0.3-3.9,0.9C8,1.4,6.7,1.1,5.3,1.1
		c-1.4,0-2.8,0.3-4.1,1C1,2.2,0.9,2.4,0.9,2.6v1.8H0V15h18.4V4.3H17.5z M8.6,11.9c-1-0.4-2.2-0.6-3.3-0.6c-1.1,0-2.3,0.2-3.3,0.6v-9
		c1-0.5,2.2-0.7,3.3-0.7c1.1,0,2.3,0.2,3.3,0.7V11.9z M16.4,12c-1.1-0.4-2.2-0.6-3.3-0.6c-1.1,0-2.3,0.2-3.3,0.6v-9
		c1-0.4,2-0.7,3.1-0.7v3.4l1.3-0.8l1.3,0.8V2.5c0.4,0.1,0.7,0.2,1.1,0.4V12z"/>
</g>
</svg>
