<?xml version="1.0" encoding="utf-8"?>
<!-- Generator: Adobe Illustrator 25.4.1, SVG Export Plug-In . SVG Version: 6.00 Build 0)  -->
<svg version="1.1" id="레이어_1" xmlns="http://www.w3.org/2000/svg" xmlns:xlink="http://www.w3.org/1999/xlink" x="0px"
	 y="0px" viewBox="0 0 19.6 19.6" style="enable-background:new 0 0 19.6 19.6;" xml:space="preserve">
<style type="text/css">
	.st0{fill:#fff;}
</style>
<g>
	<g>
		<path class="st0" d="M9.7,13.9c-0.2-0.1-0.4,0-0.4,0.2c-0.1,0.2,0,0.4,0.1,0.4c0.2,0.1,0.5,0.3,0.5,0.6c0,0.5-1.3,1.2-3.3,1.2
			s-3.3-0.7-3.3-1.2c0-0.2,0.3-0.5,0.5-0.6c0.1-0.1,0.2-0.3,0.1-0.4c-0.1-0.2-0.3-0.2-0.4-0.2C2,14.3,1.2,15,1.2,15.8
			c0,1.5,2.8,2.3,5.4,2.3s5.4-0.8,5.4-2.3C12,15,11.2,14.3,9.7,13.9z"/>
		<path class="st0" d="M16.6,6.6l1.8-3.7c0.1-0.1,0-0.2,0-0.3c-0.1-0.1-0.2-0.2-0.3-0.2H9.2C9,2.4,8.9,2.5,8.9,2.7v7.7
			c0,0.2,0.2,0.4,0.4,0.4h8.9c0.1,0,0.2-0.1,0.3-0.2c0.1-0.1,0.1-0.2,0-0.3L16.6,6.6z"/>
		<path class="st0" d="M5.7,15.4h1.8c0.2,0,0.4-0.2,0.4-0.4V2.7c0-0.7-0.6-1.3-1.3-1.3C5.9,1.4,5.3,2,5.3,2.7v12.4
			C5.3,15.3,5.5,15.4,5.7,15.4z"/>
	</g>
</g>
</svg>
