<?xml version="1.0" encoding="utf-8"?>
<!-- Generator: Adobe Illustrator 25.4.1, SVG Export Plug-In . SVG Version: 6.00 Build 0)  -->
<svg version="1.1" id="레이어_1" xmlns="http://www.w3.org/2000/svg" xmlns:xlink="http://www.w3.org/1999/xlink" x="0px"
	 y="0px" viewBox="0 0 19.6 19.6" style="enable-background:new 0 0 19.6 19.6;" xml:space="preserve">
<style type="text/css">
	.st0{fill:#fff;}
</style>
<g>
	<g>
		<g>
			<path class="st0" d="M14.7,11.3l2.6-3.9L18,8.1l1.6-1.6c-0.1-0.7-0.4-1.3-1-1.8L15,1c-0.5-0.5-1.2-0.8-1.8-1l-1.6,1.6l0.6,0.6
				L8.3,4.9C7.9,4.7,7.5,4.6,7,4.5L5.5,6l8.1,8.1l1.5-1.5C15,12.2,14.9,11.7,14.7,11.3z M9.4,5.7C9.3,5.7,9.3,5.7,9.4,5.7l3.7-2.5
				l1,1l-3.1,3.1L9.4,5.7z"/>
			<path class="st0" d="M2.9,16.7c0.2,0.2,0.6,0.3,0.8,0.1l6.5-4.5L7.4,9.4l-4.5,6.5C2.7,16.1,2.7,16.5,2.9,16.7z"/>
		</g>
		<path class="st0" d="M6.9,15.9l-2.5,1.7c-0.7,0.5-1.7,0.4-2.3-0.2l0,0c-0.6-0.6-0.7-1.6-0.2-2.3l1.7-2.5c-1-0.1-1.9,0.3-2.7,1
			c-1.3,1.3-1.3,3.5,0,4.9c1.3,1.3,3.5,1.3,4.9,0C6.6,17.9,7,16.9,6.9,15.9z"/>
	</g>
</g>
</svg>
