<?xml version="1.0" encoding="utf-8"?>
<!-- Generator: Adobe Illustrator 25.4.1, SVG Export Plug-In . SVG Version: 6.00 Build 0)  -->
<svg version="1.1" id="레이어_1" xmlns="http://www.w3.org/2000/svg" xmlns:xlink="http://www.w3.org/1999/xlink" x="0px"
	 y="0px" viewBox="0 0 19.6 19.6" style="enable-background:new 0 0 19.6 19.6;" xml:space="preserve">
<style type="text/css">
	.st0{fill:#fff;}
</style>
<g>
	<path class="st0" d="M9.8,2C5.5,2,2,5.5,2,9.8c0,4.3,3.5,7.8,7.8,7.8c4.3,0,7.8-3.5,7.8-7.8C17.7,5.5,14.1,2,9.8,2z M14.2,9.1
		L12,10.7l0.8,2.5c0.1,0.2,0,0.5-0.2,0.6C12.5,14,12.4,14,12.3,14c-0.1,0-0.2,0-0.3-0.1l-2.2-1.6l-2.2,1.6C7.5,14,7.2,14,7,13.9
		c-0.2-0.1-0.3-0.4-0.2-0.6l0.8-2.5L5.4,9.1C5.2,9,5.2,8.7,5.2,8.5s0.3-0.4,0.5-0.4h2.7l0.8-2.5c0.1-0.2,0.3-0.4,0.5-0.4
		c0.2,0,0.5,0.2,0.5,0.4l0.8,2.5h2.7c0.3,0,0.5,0.2,0.5,0.4C14.5,8.7,14.4,9,14.2,9.1z"/>
</g>
</svg>
