<?xml version="1.0" encoding="utf-8"?>
<!-- Generator: Adobe Illustrator 25.4.1, SVG Export Plug-In . SVG Version: 6.00 Build 0)  -->
<svg version="1.1" id="레이어_1" xmlns="http://www.w3.org/2000/svg" xmlns:xlink="http://www.w3.org/1999/xlink" x="0px"
	 y="0px" viewBox="0 0 18.9 22.6" style="enable-background:new 0 0 18.9 22.6;" xml:space="preserve">
<style type="text/css">
	.st0{fill:#fff;}
</style>
<g>
	<g>
		<rect x="0.1" y="10.1" class="st0" width="18.8" height="2"/>
		<rect x="7.6" class="st0" width="3.6" height="9"/>
		<path class="st0" d="M6.6,1.3C3.5,2.5,1.2,5.5,1.2,9h5.4V1.3z"/>
		<path class="st0" d="M12.3,1.3V9h5.4C17.7,5.5,15.4,2.5,12.3,1.3z"/>
		<circle class="st0" cx="7.2" cy="14.7" r="1"/>
		<circle class="st0" cx="11.7" cy="14.7" r="1"/>
		<path class="st0" d="M9.5,18.3c1.1,0,2.1-0.7,2.5-1.7H7C7.4,17.6,8.3,18.3,9.5,18.3z"/>
		<path class="st0" d="M18.8,14.1c-0.2-0.8-1.3-0.4-1.5-0.3c0-0.2,0-0.4,0-0.6h-1.5c0,0.9-0.1,1.9-0.3,2.8c0.3-0.1,0.9-0.4,1.1-0.9
			c0.2-0.7,1.6-0.7,1.2,0.3c-0.3,1-1.4,1.9-2.6,1.6c-0.8,2.4-2.6,4.1-5.8,4.1c-3,0-4.9-1.6-5.8-4.1c-1.2,0.3-2.3-0.6-2.6-1.6
			c-0.3-1,1-1,1.2-0.3c0.2,0.5,0.9,0.8,1.2,0.9c-0.3-0.9-0.4-1.9-0.4-2.8H1.5c0,0.2,0,0.4,0,0.6c-0.2-0.1-1.3-0.5-1.5,0.3
			c-0.2,0.8,0.2,4,2.4,3.8c1.2,2.7,3.5,4.7,6.9,4.7c3.6,0,5.9-2,7-4.7C18.7,18.1,19.1,14.9,18.8,14.1z"/>
	</g>
</g>
</svg>
