<?xml version="1.0" encoding="utf-8"?>
<!-- Generator: Adobe Illustrator 25.4.1, SVG Export Plug-In . SVG Version: 6.00 Build 0)  -->
<svg version="1.1" id="레이어_1" xmlns="http://www.w3.org/2000/svg" xmlns:xlink="http://www.w3.org/1999/xlink" x="0px"
	 y="0px" viewBox="0 0 38.8 39.1" style="enable-background:new 0 0 38.8 39.1;" xml:space="preserve">
<style type="text/css">
	.st0{fill:#FFFFFF;}
</style>
<path class="st0" d="M28.6,24.9l-2,1.9c-2.3,2.3-5.4,3.5-8.7,3.5c-6.8,0-12.4-5.6-12.4-12.4S11.1,5.5,17.9,5.5s12.4,5.6,12.4,12.4
	c0,1.6-0.3,3.3-0.9,4.8l-0.6,1.4l5.1,2.1l0.6-1.4c0.9-2.2,1.4-4.5,1.4-6.9C35.8,8,27.8,0,17.9,0S0,8,0,17.9s8,17.9,17.9,17.9
	c3.8,0,7.4-1.2,10.4-3.4l6.5,6.6l3.9-3.9L28.6,24.9z"/>
</svg>
