<svg xmlns="http://www.w3.org/2000/svg" width="1080" height="463" viewBox="0 0 1080 463" version="1.1"><path d="M 792.750 110.723 C 794.538 110.945, 797.462 110.945, 799.250 110.723 C 801.038 110.502, 799.575 110.320, 796 110.320 C 792.425 110.320, 790.962 110.502, 792.750 110.723 M 155.185 171.814 C 152.182 173.490, 151.049 174.686, 151.458 175.752 C 151.908 176.923, 151.738 177.027, 150.735 176.195 C 149.751 175.378, 148.240 175.877, 144.683 178.191 C 142.075 179.887, 140.177 181.510, 140.465 181.798 C 140.752 182.086, 141.864 181.528, 142.936 180.558 C 144.008 179.588, 145.473 179.030, 146.192 179.318 C 147.094 179.680, 146.995 179.867, 145.872 179.921 C 144.977 179.964, 143.668 180.695, 142.962 181.546 C 142.257 182.396, 141.023 182.839, 140.220 182.531 C 139.415 182.222, 137.916 182.943, 136.880 184.138 C 135.846 185.331, 135 185.922, 135 185.453 C 135 184.984, 134.471 185.129, 133.824 185.776 C 132.922 186.678, 133.097 187.483, 134.574 189.226 L 136.500 191.500 134.173 189.526 L 131.847 187.551 129.837 190.026 C 128.731 191.387, 128.117 191.938, 128.472 191.250 C 129.535 189.193, 128.489 189.823, 125.765 192.879 L 123.200 195.758 125.850 195.794 C 127.307 195.814, 129.625 196.027, 131 196.268 C 139.174 197.702, 144.408 198.053, 143 197.074 C 142.175 196.500, 141.973 196.024, 142.550 196.015 C 143.128 196.007, 144.123 196.523, 144.763 197.163 C 145.403 197.803, 149.019 198.398, 152.799 198.486 L 159.672 198.646 159.891 186.333 C 160.076 175.915, 159.886 174.107, 158.656 174.579 C 157.856 174.885, 156.908 174.661, 156.549 174.080 C 156.153 173.438, 156.502 173.255, 157.440 173.615 C 158.342 173.961, 159.234 173.555, 159.586 172.637 C 160.732 169.651, 159.483 169.417, 155.185 171.814 M 115.355 205.484 C 115.697 206.375, 115.600 206.871, 115.139 206.586 C 114.250 206.036, 109.923 210.494, 110.120 211.755 C 110.481 214.059, 109.860 216.032, 108.951 215.470 C 108.246 215.034, 108.328 214.297, 109.201 213.219 C 110.189 212, 110.199 211.797, 109.243 212.371 C 107.808 213.234, 104.484 219.119, 104.794 220.250 C 104.907 220.662, 104.520 221, 103.933 221 C 103.305 221, 103.126 221.927, 103.498 223.250 C 103.939 224.818, 103.846 225.088, 103.191 224.143 C 102.032 222.472, 100.508 224.395, 101.595 226.155 C 102.021 226.842, 101.872 227.039, 101.227 226.640 C 100.619 226.265, 99.829 226.965, 99.425 228.235 C 99.030 229.481, 98.885 230.565, 99.103 230.645 C 99.321 230.725, 98.787 231.625, 97.915 232.645 C 95.413 235.572, 93.758 240.639, 94.475 243.176 C 94.931 244.791, 94.842 245.083, 94.185 244.134 C 93.485 243.123, 92.825 244.035, 91.654 247.634 C 90.783 250.310, 89.855 253.625, 89.593 255 C 89.331 256.375, 88.687 258.908, 88.162 260.630 L 87.209 263.759 101.854 263.999 C 134.160 264.528, 144.550 265.788, 151.807 270.055 C 155.555 272.259, 156 272.368, 156 271.083 C 156 270.579, 154.762 269.715, 153.250 269.162 C 151.738 268.610, 151.092 268.122, 151.816 268.079 C 154.175 267.937, 157.171 270.111, 156.615 271.561 C 156.022 273.106, 159.657 275.592, 161.850 275.143 C 162.634 274.982, 162.908 275.340, 162.502 275.996 C 162.118 276.618, 162.593 277.998, 163.557 279.063 C 165.483 281.191, 167.927 281.822, 166.205 279.747 C 165.471 278.863, 165.582 277.924, 166.583 276.556 C 167.362 275.490, 168 275.127, 168 275.750 C 168 276.373, 167.521 277.178, 166.935 277.540 C 165.687 278.312, 168.365 281.658, 170.882 282.472 C 171.772 282.760, 173.283 284.375, 174.241 286.062 C 175.297 287.924, 176.439 288.847, 177.145 288.410 C 177.898 287.945, 178.039 288.129, 177.543 288.930 C 177.007 289.797, 175.428 288.780, 172.273 285.533 C 169.795 282.984, 167.514 281.153, 167.204 281.463 C 166.699 281.968, 168.843 284.123, 177 291.307 C 180.080 294.020, 183.325 296.171, 180.686 293.750 C 179.637 292.788, 179.190 292, 179.693 292 C 180.196 292, 182.144 293.585, 184.022 295.523 C 185.901 297.461, 188.037 298.816, 188.771 298.535 C 189.504 298.253, 189.875 298.393, 189.595 298.845 C 189.108 299.635, 194.959 302.365, 203.568 305.365 C 206.303 306.318, 208.194 306.471, 209.339 305.830 C 210.579 305.136, 210.967 305.233, 210.770 306.189 C 210.622 306.910, 211.175 307.500, 212 307.500 C 212.825 307.500, 213.725 307.793, 214 308.151 C 214.275 308.510, 215.850 309.035, 217.500 309.318 C 219.150 309.602, 222.750 310.952, 225.500 312.318 C 229.967 314.537, 230.679 314.643, 232.178 313.311 C 233.437 312.193, 234.311 312.085, 235.678 312.880 C 237.071 313.690, 237.147 313.950, 236 313.985 C 234.667 314.026, 234.667 314.138, 236 315 C 237.264 315.817, 237.208 315.972, 235.643 315.985 C 234.357 315.995, 233.973 315.513, 234.394 314.416 C 234.767 313.443, 234.544 312.985, 233.813 313.229 C 231.172 314.109, 232.226 315.717, 236.969 318.046 C 239.719 319.396, 241.976 320.823, 241.984 321.219 C 241.993 321.614, 242.749 321.650, 243.664 321.299 C 244.720 320.893, 245.084 321.055, 244.660 321.742 C 243.925 322.930, 253.447 331, 255.584 331 C 256.867 331, 258.983 325.273, 258.994 321.770 C 258.997 320.819, 258.276 318.231, 257.391 316.020 C 255.933 312.376, 254.983 311.529, 252.750 311.882 C 252.338 311.947, 252 311.523, 252 310.941 C 252 310.359, 251.601 310.129, 251.113 310.430 C 250.626 310.731, 249.613 310.195, 248.863 309.239 C 247.671 307.718, 247.693 307.650, 249.034 308.693 C 249.987 309.434, 251.109 309.551, 252 309 C 253.123 308.306, 252.845 307.892, 250.716 307.082 C 249.222 306.514, 248 305.665, 248 305.194 C 248 304.352, 234.877 296.264, 234.298 296.750 C 234.134 296.887, 233.065 296.065, 231.923 294.923 C 230.669 293.669, 229.194 293.095, 228.203 293.476 C 227.300 293.822, 226.882 293.784, 227.275 293.392 C 227.668 292.999, 226.363 291.572, 224.376 290.222 C 221.439 288.226, 220.590 288.022, 219.839 289.133 C 219.084 290.252, 218.960 290.228, 219.155 289 C 219.386 287.542, 209.436 276.898, 208.612 277.721 C 208.385 277.948, 208.226 277.541, 208.258 276.817 C 208.445 272.523, 207.861 269.938, 206.750 270.145 C 203.048 270.833, 190.787 266.678, 185.074 262.798 C 182.558 261.090, 179.938 259.687, 179.250 259.680 C 178.562 259.672, 178.210 259.456, 178.467 259.199 C 178.724 258.943, 177.095 256.655, 174.848 254.116 C 172.600 251.577, 170.293 248.488, 169.720 247.250 C 169.147 246.012, 167.964 244.993, 167.089 244.985 C 165.696 244.971, 165.685 244.846, 167 243.966 C 168.313 243.087, 168.283 242.796, 166.766 241.632 C 165.812 240.901, 165.313 240.020, 165.658 239.675 C 166.003 239.330, 165.658 238.293, 164.893 237.370 C 164.127 236.448, 163.500 235.424, 163.500 235.096 C 163.500 234.768, 163.275 234.575, 163 234.667 C 162.725 234.758, 162.475 233.183, 162.444 231.167 C 162.413 229.150, 162.099 226.232, 161.747 224.682 C 161.396 223.131, 160.806 218.803, 160.437 215.062 L 159.767 208.261 154.134 207.711 C 151.035 207.408, 146.588 207.260, 144.250 207.382 C 141.912 207.504, 140 207.211, 140 206.730 C 140 206.250, 138.988 205.968, 137.750 206.104 C 135.696 206.329, 128.676 205.694, 118.617 204.373 C 115.334 203.942, 114.830 204.114, 115.355 205.484 M 660.343 246.500 C 660.346 250.900, 660.522 252.576, 660.733 250.224 C 660.945 247.872, 660.942 244.272, 660.727 242.224 C 660.512 240.176, 660.339 242.100, 660.343 246.500 M 168.544 250.929 C 168.154 251.560, 168.404 251.929, 169.116 251.775 C 169.812 251.624, 170.564 252.341, 170.787 253.368 C 171.026 254.469, 170.770 254.976, 170.165 254.602 C 169.600 254.253, 168.914 254.331, 168.639 254.774 C 168.365 255.218, 169.698 255.623, 171.601 255.674 C 174.262 255.745, 174.766 255.504, 173.781 254.633 C 173.077 254.010, 171.766 252.669, 170.868 251.654 C 169.760 250.401, 169.014 250.168, 168.544 250.929 M 158.651 271.468 C 158.044 273.050, 159.583 274.431, 162 274.474 C 162.825 274.488, 163.387 275.063, 163.250 275.750 C 163.113 276.438, 163.498 277, 164.107 277 C 164.716 277, 164.955 276.325, 164.638 275.500 C 164.322 274.675, 164.611 273.993, 165.281 273.985 C 166.079 273.975, 166 273.653, 165.054 273.054 C 164.197 272.512, 162.926 272.504, 161.935 273.035 C 159.951 274.097, 158.926 273.357, 159.676 271.402 C 159.972 270.631, 159.989 270, 159.714 270 C 159.439 270, 158.960 270.661, 158.651 271.468 M 254.357 271.232 C 254.049 271.729, 253.220 271.915, 252.514 271.644 C 251.807 271.373, 249.941 272.496, 248.366 274.139 C 246.048 276.559, 245.884 277, 247.502 276.458 C 248.601 276.089, 248.131 276.672, 246.457 277.753 C 243.080 279.935, 238 285.591, 238 287.170 C 238 287.730, 238.900 288.423, 240 288.710 C 241.100 288.998, 242 289.600, 242 290.049 C 242 290.498, 242.866 291.140, 243.924 291.476 C 244.983 291.812, 247.454 293.176, 249.415 294.507 L 252.982 296.927 255.263 294.714 C 256.518 293.496, 260.317 290.110, 263.706 287.189 C 267.094 284.267, 269.830 281.117, 269.785 280.189 C 269.740 279.260, 269.989 276.835, 270.338 274.801 C 270.743 272.441, 270.554 270.843, 269.817 270.387 C 269.088 269.936, 268.857 270.195, 269.192 271.086 C 269.484 271.864, 269.326 273.400, 268.841 274.500 C 268.001 276.405, 267.978 276.398, 268.357 274.361 C 268.905 271.415, 267.342 268.970, 266.121 270.863 C 265.379 272.014, 265.157 272.014, 264.697 270.863 C 264.250 269.745, 263.961 269.770, 263.091 271 C 262.406 271.970, 262.025 272.069, 262.015 271.280 C 261.998 269.864, 255.228 269.821, 254.357 271.232 M 218 272.010 C 218 272.619, 218.445 272.843, 218.989 272.507 C 219.533 272.171, 219.735 272.527, 219.438 273.300 C 218.739 275.123, 225.737 281.315, 227.661 280.577 C 228.465 280.268, 228.833 280.461, 228.493 281.011 C 228.157 281.555, 228.159 282, 228.499 282 C 229.265 282, 237.933 272.734, 237.972 271.873 C 237.987 271.529, 233.500 271.169, 228 271.074 C 221.246 270.958, 218 271.262, 218 272.010 M 85.719 275.717 C 84.627 278.114, 85.577 280.302, 86.831 278.274 C 87.305 277.507, 88.059 277.426, 89.026 278.037 C 90.268 278.823, 90.229 278.972, 88.773 278.985 C 86.230 279.007, 84.162 282.882, 83.962 288 C 83.496 299.858, 83.693 323.033, 84.297 327.500 C 86.162 341.293, 86.541 342.719, 88.926 344.944 C 89.844 345.800, 90 346.099, 89.274 345.609 C 87.608 344.483, 88.544 347.355, 91.032 351 C 91.970 352.375, 93.052 354.512, 93.436 355.750 C 93.820 356.988, 94.581 358, 95.126 358 C 95.672 358, 95.897 358.357, 95.628 358.793 C 95.358 359.230, 97.244 361.966, 99.819 364.874 C 104.274 369.907, 104.640 370.109, 107.399 369.049 C 109.826 368.118, 110.112 368.160, 109.158 369.310 C 108.530 370.066, 108.351 371.078, 108.759 371.559 C 109.166 372.040, 108.713 371.831, 107.750 371.095 C 105.365 369.269, 105.523 371.259, 107.937 373.443 C 109.026 374.428, 110.407 374.866, 111.091 374.443 C 111.849 373.976, 112.051 374.109, 111.627 374.795 C 110.947 375.894, 114.751 378.641, 116.324 378.188 C 116.778 378.057, 116.904 378.346, 116.606 378.829 C 115.493 380.630, 147.519 398.938, 154 400.206 C 154.825 400.368, 155.725 400.787, 156 401.138 C 156.859 402.233, 164.106 404.981, 163.485 403.976 C 163.160 403.450, 163.588 403.289, 164.442 403.616 C 165.293 403.943, 165.703 404.671, 165.355 405.235 C 164.998 405.811, 165.329 406.039, 166.111 405.755 C 166.875 405.477, 167.403 404.790, 167.284 404.228 C 167.162 403.649, 168.006 403.450, 169.231 403.771 C 171.277 404.306, 171.290 404.372, 169.469 405.011 C 167.613 405.662, 167.619 405.726, 169.653 406.814 C 173.680 408.969, 180.647 410.953, 182.760 410.546 C 184.196 410.270, 184.724 410.557, 184.387 411.433 C 184.063 412.279, 185.296 413.086, 187.945 413.758 C 190.761 414.473, 192 414.467, 192 413.739 C 192 413.162, 192.787 413.388, 193.750 414.242 C 196.532 416.709, 214.188 421.878, 221.500 422.366 C 222.600 422.440, 223.743 422.824, 224.040 423.219 C 224.337 423.615, 226.587 424.142, 229.040 424.392 C 231.493 424.641, 235.605 425.325, 238.179 425.911 C 240.752 426.497, 245.027 427.225, 247.679 427.529 C 250.330 427.833, 253.344 428.336, 254.375 428.648 C 255.765 429.068, 256.039 428.863, 255.433 427.857 C 254.801 426.807, 255.016 426.825, 256.384 427.936 C 257.921 429.183, 258.276 429.183, 259.095 427.936 C 259.891 426.721, 260.195 426.770, 261.068 428.250 C 261.670 429.272, 263.223 429.967, 264.800 429.921 C 267.117 429.853, 266.885 429.277, 264.298 428.675 C 263.884 428.579, 261.753 426.845, 259.562 424.821 C 257.370 422.798, 255.110 421.408, 254.539 421.732 C 253.967 422.056, 253.813 421.973, 254.195 421.548 C 254.578 421.124, 253.542 418.386, 251.893 415.464 C 248.141 408.815, 247.692 406.661, 247.739 395.500 C 247.779 386.100, 249.603 378.542, 255.463 363.500 C 259.496 353.148, 263.004 341.815, 262.452 340.922 C 262.185 340.491, 262.425 339.856, 262.984 339.510 C 263.543 339.165, 264 338.403, 264 337.819 C 264 337.162, 263.409 337.246, 262.454 338.038 C 261.604 338.743, 261.165 339.987, 261.477 340.802 C 261.946 342.024, 261.780 342.062, 260.523 341.019 C 259.252 339.964, 258.997 340.064, 258.985 341.628 C 258.974 342.966, 258.739 343.137, 258.161 342.226 C 257.716 341.526, 255.716 340.891, 253.716 340.816 C 251.717 340.740, 250.314 340.301, 250.599 339.839 C 250.885 339.378, 250.648 339, 250.072 339 C 249.497 339, 246.150 336.559, 242.634 333.576 C 234.325 326.528, 225.762 321.638, 224.296 323.104 C 222.903 324.497, 219 322.553, 219 320.465 C 219 319.659, 218.339 319, 217.531 319 C 216.609 319, 216.249 319.651, 216.562 320.750 C 216.837 321.712, 216.541 321.514, 215.904 320.308 C 214.482 317.616, 212.032 316.565, 210.583 318.026 C 209.802 318.814, 210.058 318.936, 211.500 318.465 C 213.056 317.956, 213.178 318.040, 212.048 318.840 C 211.249 319.405, 210.214 319.632, 209.747 319.344 C 209.281 319.056, 206.785 318.428, 204.200 317.949 L 199.500 317.078 204.266 317.418 C 206.887 317.605, 209.276 317.362, 209.575 316.879 C 209.874 316.396, 209.079 315.931, 207.809 315.848 C 203.996 315.596, 203.046 315.313, 195.717 312.249 C 193.637 311.379, 191.274 310.667, 190.467 310.667 C 189.660 310.667, 189 310.276, 189 309.798 C 189 309.320, 187.987 309.451, 186.750 310.087 C 184.912 311.033, 184.725 311.007, 185.727 309.945 C 186.716 308.898, 185.937 308.059, 181.727 305.634 C 178.852 303.979, 175.375 302.579, 174 302.524 C 172.457 302.462, 171.613 301.907, 171.796 301.075 C 172.184 299.305, 168.001 294.881, 166.700 295.685 C 166.141 296.031, 165.997 295.814, 166.377 295.198 C 167.103 294.024, 162.347 290.320, 161.369 291.298 C 160.492 292.174, 162.016 294.108, 163.069 293.457 C 164.696 292.452, 164.071 293.701, 162.250 295.095 C 161.287 295.831, 160.834 296.040, 161.241 295.559 C 161.649 295.078, 161.521 294.127, 160.956 293.447 C 160.392 292.767, 159.999 291.826, 160.083 291.355 C 160.492 289.078, 159.893 286.948, 159 287.500 C 158.450 287.840, 158 287.593, 158 286.952 C 158 286.311, 157.367 286.029, 156.594 286.326 C 155.341 286.806, 151.124 283.384, 151.750 282.395 C 152.479 281.243, 151.735 280.200, 149.436 279.153 C 148.026 278.510, 147.097 278.348, 147.372 278.792 C 147.646 279.237, 146.804 279.600, 145.500 279.600 C 144.196 279.600, 143.356 279.233, 143.634 278.784 C 143.911 278.335, 144.557 278.226, 145.069 278.543 C 145.581 278.859, 146 278.717, 146 278.227 C 146 277.024, 139.176 274.995, 137.410 275.673 C 136.634 275.971, 136 275.766, 136 275.219 C 136 274.083, 122.625 274.316, 119.500 275.507 C 117.616 276.225, 117.604 276.187, 119.297 274.864 C 120.860 273.641, 118.861 273.456, 103.929 273.441 C 86.998 273.425, 86.749 273.456, 85.719 275.717 M 208.763 280.229 C 208.007 282.281, 209.027 284, 211 284 C 212.008 284, 213.060 284.563, 213.338 285.250 C 213.615 285.938, 213.877 286.050, 213.920 285.500 C 214.058 283.724, 209.275 278.836, 208.763 280.229 M 243.586 286.282 C 243.722 287.502, 243.924 288.725, 244.035 289 C 244.146 289.275, 244.184 289.837, 244.118 290.250 C 244.053 290.663, 244.450 291, 245 291 C 246.371 291, 246.255 289.662, 244.750 288.116 C 243.742 287.082, 243.888 286.897, 245.500 287.166 C 246.707 287.368, 247.500 286.945, 247.500 286.100 C 247.500 285.329, 246.564 284.556, 245.419 284.382 C 243.787 284.133, 243.392 284.542, 243.586 286.282 M 266.473 297.044 C 266.118 297.618, 266.322 298.683, 266.926 299.411 C 267.750 300.404, 267.584 301.080, 266.262 302.117 C 264.690 303.351, 264.637 303.324, 265.776 301.867 C 267.897 299.150, 264.582 298.752, 262.073 301.422 C 260.291 303.320, 260.163 303.890, 261.309 304.841 C 262.065 305.469, 263.052 305.649, 263.502 305.241 C 263.952 304.834, 264.043 304.988, 263.704 305.584 C 263.192 306.483, 266.610 315, 267.482 315 C 267.633 315, 267.698 312.750, 267.628 310 C 267.558 307.249, 267.765 304.999, 268.088 305 C 268.411 305, 268.735 303.425, 268.808 301.500 C 268.888 299.349, 268.469 297.994, 267.720 297.985 C 266.947 297.975, 267.050 297.614, 268 297 C 268.901 296.418, 269.025 296.025, 268.309 296.015 C 267.654 296.007, 266.828 296.470, 266.473 297.044 M 247.179 321.285 C 246.329 322.309, 246.760 323.221, 249.034 325.217 C 250.663 326.646, 252.197 327.490, 252.444 327.091 C 252.690 326.693, 251.516 325.554, 249.834 324.561 C 247.561 323.218, 247.119 322.545, 248.110 321.932 C 248.843 321.479, 249.182 320.848, 248.864 320.530 C 248.545 320.212, 247.787 320.552, 247.179 321.285" stroke="none" fill="#5e99d1" fill-rule="evenodd"/><path d="M 345 164.959 C 340.325 165.959, 334.025 167.759, 331 168.959 C 325.138 171.283, 312.631 177.973, 313.174 178.494 C 314.923 180.167, 341.677 197.322, 345.500 199.222 C 354.715 203.800, 362.833 205.352, 374.235 204.716 C 389.813 203.846, 420.736 197.645, 445.843 190.355 L 451.186 188.804 444.843 184.576 C 441.354 182.251, 436.925 179.555, 435 178.586 C 429.011 175.571, 411.788 169.016, 405.500 167.359 C 388.430 162.860, 360.068 161.736, 345 164.959 M 301.359 188.250 C 299.127 190.588, 296.103 194.124, 294.639 196.109 L 291.978 199.718 297.335 200.271 C 303.290 200.885, 316.808 204.645, 318.750 206.227 C 320.454 207.615, 320.331 211.659, 318.563 212.337 C 317.773 212.641, 313.613 211.774, 309.319 210.411 C 305.025 209.048, 298.296 207.661, 294.367 207.329 C 287.606 206.758, 287.184 206.845, 286.517 208.948 C 286.024 210.498, 286.413 211.825, 287.800 213.335 C 288.894 214.526, 292.262 219.325, 295.283 224 C 305.680 240.086, 313.754 245.133, 330.195 245.822 C 338.097 246.153, 341.210 245.827, 347.028 244.060 C 354.586 241.765, 357 242.234, 357 245.999 C 357 248.433, 348.281 252.021, 339.304 253.281 C 332.243 254.272, 332.118 254.340, 332.636 256.932 C 332.927 258.385, 332.228 262.356, 331.082 265.755 C 329.937 269.155, 329 272.119, 329 272.341 C 329 272.563, 330.712 273.018, 332.805 273.353 C 335.912 273.850, 337.015 274.683, 338.821 277.895 C 342.026 283.597, 341.970 290.695, 338.678 296.191 C 337.258 298.561, 329.351 307.463, 321.106 315.974 C 312.860 324.484, 306.306 331.640, 306.541 331.874 C 307.564 332.897, 324.120 325.926, 330.500 321.785 C 337.720 317.099, 360.802 298.274, 369.328 290.119 C 376.949 282.829, 377.366 281.534, 376.665 267.308 C 376.092 255.671, 376.166 254.981, 378.094 253.949 C 382.300 251.699, 383.802 255.514, 384.115 269.250 C 384.227 274.136, 384.700 276.997, 385.396 276.991 C 386.003 276.986, 392.125 276.332, 399 275.539 C 405.875 274.745, 414.200 273.864, 417.500 273.582 C 429.640 272.543, 449.831 270.952, 461.815 270.090 C 468.588 269.602, 474.424 268.909, 474.784 268.549 C 475.144 268.189, 475.413 259.481, 475.381 249.197 C 475.332 233.324, 475.001 229.320, 473.186 222.686 C 470.668 213.480, 466.083 204.478, 460.987 198.735 L 457.328 194.611 449.914 196.771 C 438.856 199.991, 415.900 205.560, 404 207.908 C 378.040 213.031, 364.686 213.448, 352.266 209.524 C 344.231 206.986, 330.391 199.435, 320 191.920 C 314.315 187.808, 307.702 184, 306.248 184 C 305.791 184, 303.590 185.912, 301.359 188.250 M 278.941 228.033 C 277.215 233.590, 276.028 238.362, 276.304 238.638 C 276.580 238.914, 278.537 238.269, 280.653 237.205 C 282.769 236.141, 286.218 234.715, 288.319 234.035 C 291.017 233.162, 291.971 232.366, 291.570 231.321 C 290.763 229.219, 283.973 219.101, 282.941 218.464 C 282.467 218.171, 280.667 222.477, 278.941 228.033 M 289.500 240.381 C 285.202 241.766, 278.545 245.126, 275.824 247.283 C 274.038 248.699, 272.607 257.158, 271.388 273.500 L 270.717 282.500 273.056 280.500 C 286.898 268.664, 297.511 257.643, 299.982 252.538 C 302.459 247.420, 302.526 244.843, 300.250 242.153 C 297.920 239.400, 294.364 238.813, 289.500 240.381 M 310.871 253.384 C 309.425 254.139, 302 261.022, 294.371 268.681 C 286.742 276.340, 278.113 284.761, 275.196 287.394 L 269.892 292.181 269.474 300.341 C 269.244 304.828, 268.772 310.666, 268.425 313.314 L 267.795 318.127 272.136 317.480 C 274.524 317.124, 277.006 316.532, 277.653 316.166 C 278.299 315.800, 287.217 307.264, 297.470 297.198 C 319.204 275.859, 325.966 266.517, 325.994 257.789 C 326.010 252.890, 316.902 250.237, 310.871 253.384 M 451 278.121 C 429.620 279.782, 399.277 282.611, 393.964 283.439 C 392.609 283.650, 389.385 284.112, 386.800 284.465 C 383.495 284.917, 381.929 285.648, 381.522 286.930 C 380.692 289.544, 371.596 298.134, 355.500 311.502 C 339.086 325.135, 330.135 331.250, 320.500 335.417 C 314.008 338.224, 312.624 338.446, 301.428 338.472 C 289.744 338.499, 289.237 338.410, 285.700 335.716 C 283.689 334.185, 280.854 330.901, 279.399 328.418 C 276.765 323.923, 276.732 323.905, 271.729 324.202 L 266.705 324.500 266.302 328.500 C 265.571 335.775, 261.100 351.565, 255.983 364.946 C 249.229 382.610, 247.668 389.593, 248.306 399.304 C 249.219 413.212, 255.726 422.510, 269.287 429.286 C 277.734 433.507, 285.609 434.990, 299.500 434.973 C 340.447 434.924, 386.087 418.292, 419 391.426 C 425.711 385.947, 440.560 371.117, 443.074 367.382 C 443.858 366.217, 446.800 361.942, 449.612 357.882 C 458.816 344.590, 465.533 328.896, 469.463 311.500 C 471.483 302.558, 474.878 277.014, 474.095 276.650 C 473.768 276.497, 463.375 277.160, 451 278.121 M 325.210 280.991 C 322.376 282.277, 314.613 289.189, 302.352 301.341 C 284.582 318.954, 283.814 319.877, 284.463 322.830 C 285.208 326.222, 291.077 332, 293.777 332 C 294.716 332, 303.880 323.563, 314.140 313.250 C 334.078 293.211, 335.875 290.539, 333.943 283.801 C 333.142 281.010, 331.494 279.017, 330 279.037 C 329.725 279.041, 327.569 279.920, 325.210 280.991" stroke="none" fill="#fdd02c" fill-rule="evenodd"/><path d="M 259.235 42.419 C 237.537 46.587, 217.350 56.753, 200.657 71.918 C 195.555 76.553, 185.365 89.701, 180.688 97.685 C 167.741 119.786, 160.016 154.405, 160.003 190.381 L 160 200.262 187.250 199.671 C 220.496 198.951, 226.045 198.029, 232.209 192.202 C 239.096 185.691, 247.989 179.159, 253.958 176.224 C 259.472 173.514, 259.609 173.500, 281 173.509 C 300.495 173.517, 302.976 173.713, 307.600 175.606 L 312.700 177.694 319.600 173.833 C 337.590 163.766, 362.066 160.082, 387.396 163.627 L 392.292 164.312 391.731 145.906 C 390.462 104.341, 378.354 64.617, 362.843 51.135 C 354.644 44.009, 343.127 42.377, 295 41.527 C 273.034 41.138, 264.834 41.343, 259.235 42.419 M 262.969 181.933 C 257.373 182.968, 247.372 189.511, 236.706 199.115 C 233.138 202.327, 230 207.444, 230 210.048 C 230 211.511, 231.104 213.899, 232.452 215.354 C 237.602 220.911, 251.729 217.577, 263.024 208.140 C 269.602 202.643, 275.764 200.173, 285.405 199.166 L 291.792 198.500 298.465 191.048 C 304.932 183.828, 305.067 183.568, 302.820 182.706 C 299.661 181.495, 268.596 180.893, 262.969 181.933 M 210 207.176 C 205.325 207.677, 191.395 207.954, 179.044 207.793 C 166.694 207.632, 157.342 207.643, 158.262 207.817 C 159.278 208.010, 160.116 209.382, 160.397 211.317 C 160.651 213.068, 161.400 217.863, 162.060 221.974 C 166.222 247.866, 179.895 264.024, 201.375 268.434 L 207.500 269.692 208.249 266.276 C 209.498 260.578, 213.788 254.396, 221.470 247.221 C 229.796 239.446, 238.353 234.493, 245.212 233.480 C 253.742 232.220, 262 238.330, 262 245.901 C 262 247.056, 262.238 248, 262.529 248 C 262.821 248, 265.283 246.242, 268.002 244.092 C 270.721 241.943, 273.430 240.023, 274.021 239.826 C 274.943 239.519, 279.095 227.373, 280.726 220.215 C 281.344 217.504, 279.097 214.697, 274.927 212.970 C 272.202 211.841, 271.634 212.039, 266.711 215.837 C 253.378 226.124, 236.776 229.249, 228.140 223.100 C 224.787 220.712, 222 214.530, 222 209.480 C 222 206.782, 221.607 206.030, 220.250 206.133 C 219.287 206.206, 214.675 206.675, 210 207.176 M 243.546 242.230 C 233.389 245.918, 218.355 259.755, 216.507 267.116 C 215.661 270.487, 217.357 270.968, 230.159 270.986 L 239.817 271 244.916 264.512 C 254.798 251.938, 256.050 247.959, 251.545 243.455 C 248.861 240.770, 247.952 240.631, 243.546 242.230 M 264.910 257.363 C 260.835 260.870, 256.150 265.207, 254.500 267.001 L 251.500 270.262 260.969 269.578 C 266.177 269.203, 270.568 268.765, 270.727 268.606 C 271.234 268.099, 273.109 251.775, 272.706 251.373 C 272.494 251.161, 268.986 253.856, 264.910 257.363 M 96.750 264.737 C 99.638 264.939, 104.362 264.939, 107.250 264.737 C 110.138 264.535, 107.775 264.370, 102 264.370 C 96.225 264.370, 93.862 264.535, 96.750 264.737" stroke="none" fill="#a0c949" fill-rule="evenodd"/><path d="M 458.593 40.106 L 455.871 42.247 458.964 44.873 L 462.056 47.500 462.378 62.266 C 462.555 70.388, 462.973 77.306, 463.307 77.640 C 465.328 79.661, 469.258 73.900, 470.906 66.500 C 471.565 63.541, 471.684 63.492, 479.537 62.902 C 489.903 62.123, 491 61.597, 491 57.412 C 491 52.010, 487.529 51.868, 472.735 56.668 C 471.163 57.178, 470.986 56.536, 471.111 50.789 C 471.268 43.553, 470.067 40.442, 466.751 39.488 C 465.513 39.132, 463.783 38.644, 462.907 38.403 C 462.031 38.162, 460.090 38.928, 458.593 40.106 M 737.691 38.642 C 737.358 38.975, 737.966 40.974, 739.043 43.084 C 741.555 48.008, 741.715 55, 739.316 55 C 738.389 55, 735.802 55.874, 733.566 56.941 C 731.330 58.009, 728.325 59.167, 726.890 59.515 C 724.298 60.142, 724.283 60.112, 724.758 55.172 C 725.156 51.029, 724.923 50.036, 723.368 49.237 C 721.325 48.187, 712 46.759, 712 47.495 C 712 47.746, 712.898 49.425, 713.996 51.226 C 716.600 55.497, 716.529 58.516, 713.777 60.443 C 710.443 62.779, 707.490 62.336, 704.154 59 C 702.373 57.219, 700.107 56, 698.577 56 C 695.437 56, 695.185 58.185, 698 61 C 699.623 62.623, 700 64.333, 700 70.066 C 700 80.300, 702.378 83.298, 707.451 79.461 C 708.932 78.341, 710.915 78.141, 715.684 78.629 C 723.715 79.452, 724.998 78.488, 725.005 71.628 L 725.010 66.500 731.255 64.917 C 734.690 64.046, 738.288 62.986, 739.250 62.560 C 740.817 61.867, 741 62.469, 741 68.311 C 741 76.111, 741.601 78, 744.081 78 C 747.014 78, 748.673 73.301, 749.377 63 C 749.735 57.775, 750.293 51.247, 750.617 48.493 C 751.206 43.503, 751.194 43.477, 747.354 41.371 C 742.999 38.983, 738.594 37.739, 737.691 38.642 M 664.582 39.942 C 660.620 40.700, 660.412 42.147, 663.701 46.057 L 666.485 49.365 666.856 77.831 C 667.117 97.844, 666.876 107.469, 666.045 110.246 C 665.394 112.418, 665.104 114.437, 665.399 114.733 C 666.594 115.927, 670.652 111.989, 672.968 107.388 C 675.236 102.883, 675.417 101.486, 675.274 89.559 C 675.188 82.441, 675.326 76.281, 675.581 75.869 C 675.835 75.457, 677.594 75.768, 679.490 76.560 C 687.383 79.858, 696.168 77.257, 694.534 72.106 C 693.715 69.528, 688.650 68.490, 682.243 69.588 C 679.634 70.035, 677.050 70.423, 676.500 70.451 C 675.063 70.522, 674.969 65.898, 676.177 54.645 C 677.160 45.491, 677.100 44.656, 675.331 42.887 C 672.920 40.476, 668.346 39.222, 664.582 39.942 M 539.250 41.491 C 535.238 43.235, 535.204 44.117, 539 48 C 540.650 49.688, 542 51.573, 542 52.188 C 542 54.720, 533.567 60.981, 527.389 63.037 C 523.887 64.202, 520.765 65.571, 520.452 66.078 C 520.138 66.585, 519.184 67, 518.332 67 C 517.091 67, 516.911 66.251, 517.433 63.250 C 518.925 54.675, 518.728 53.526, 515.706 53.179 C 513.963 52.979, 510.866 54.013, 507.471 55.929 C 504.258 57.743, 500.591 59, 498.515 59 C 495.020 59, 493.928 60.219, 496.177 61.609 C 496.824 62.009, 499.979 62.598, 503.188 62.918 L 509.022 63.500 502.511 73.228 C 498.930 78.578, 496 83.415, 496 83.978 C 496 85.609, 500.307 85.117, 502.564 83.228 C 503.700 82.277, 505.447 80.150, 506.447 78.500 C 512.273 68.886, 515 69.239, 515 79.607 C 515 85.544, 515.298 87, 516.515 87 C 519.032 87, 521.992 80.964, 521.996 75.821 L 522 71.142 527.737 69.474 C 530.892 68.557, 534.759 67.142, 536.330 66.329 C 537.901 65.517, 539.394 65.060, 539.648 65.315 C 539.902 65.569, 540.149 68.509, 540.196 71.849 C 540.298 79.047, 540.082 79.418, 528.660 91.699 C 520.207 100.788, 516.949 106.818, 518.419 110.650 C 519.381 113.156, 526.014 115.270, 530.839 114.609 C 537.654 113.674, 546.880 109.134, 548.559 105.887 C 551.410 100.372, 549.927 97.539, 542.582 94.470 C 537.581 92.380, 535.898 93.783, 538.871 97.564 C 541.532 100.946, 541.541 102.201, 538.920 104.572 C 534.946 108.169, 526 106.408, 526 102.029 C 526 101.080, 529.445 96.973, 533.656 92.902 C 546.261 80.714, 546.584 80.335, 547.756 76.344 C 548.376 74.230, 549.159 66.111, 549.495 58.302 C 550.071 44.882, 549.992 43.992, 548.052 42.052 C 545.663 39.663, 543.737 39.540, 539.250 41.491 M 602.189 41.726 C 598.896 42.337, 598.488 44.435, 600.903 48.343 C 603.507 52.556, 603.510 53, 600.935 53 C 597.810 53, 589 57.072, 589 58.516 C 589 61.317, 594.585 61.765, 599.635 59.369 C 603.804 57.391, 604.950 58.217, 602.958 61.765 C 601.912 63.629, 599.922 64.876, 596.266 65.959 C 586.256 68.923, 586.870 72.472, 597.250 71.647 C 602.267 71.248, 603 71.417, 603 72.969 C 603 77.571, 599.579 83.777, 593.641 89.945 C 586.659 97.199, 582.250 103.447, 581.960 106.500 C 581.532 111.001, 582.090 111.869, 586.485 113.547 C 591.818 115.584, 596.529 115.067, 604.414 111.580 C 609.966 109.125, 612.275 106.597, 613.402 101.741 C 613.975 99.274, 613.545 98.667, 609.325 95.991 C 602.335 91.558, 597.494 92.297, 602.531 97.029 C 603.889 98.305, 605 100.177, 605 101.189 C 605 103.273, 599.540 106.991, 596.473 106.996 C 593.671 107.001, 590 104.248, 590 102.142 C 590 101.183, 593.174 97.271, 597.054 93.449 C 605.789 84.844, 608.649 80.151, 610.511 71.364 C 612.633 61.347, 612.493 46.792, 610.250 44.198 C 608.277 41.916, 605.595 41.094, 602.189 41.726 M 802.250 45.662 C 800.397 46.410, 800.724 48.078, 803.250 50.765 C 805.265 52.908, 805.518 54.272, 805.676 63.829 C 805.889 76.809, 804.609 85.336, 801.870 89.183 C 797.652 95.106, 802.995 97.309, 808.094 91.750 C 812.236 87.234, 813.730 80.774, 814.420 64.394 C 814.979 51.134, 814.890 50.130, 812.935 47.644 C 811.329 45.602, 810.017 45.018, 807.177 45.079 C 805.155 45.122, 802.938 45.385, 802.250 45.662 M 437 52.132 C 433.975 53.834, 428.913 56.538, 425.750 58.141 C 422.587 59.744, 420 61.504, 420 62.053 C 420 63.300, 424.344 65, 427.530 65 C 428.850 65, 432.059 63.650, 434.661 62 C 443.098 56.649, 444.672 58.441, 441.405 69.680 C 439.837 75.073, 439.848 75.210, 442.079 77.584 C 447.483 83.337, 449.995 79.027, 450.667 62.845 C 451.091 52.645, 451.013 52.123, 448.833 50.595 C 445.580 48.317, 443.237 48.621, 437 52.132 M 575.285 52.949 C 572.417 53.981, 567.929 55.117, 565.310 55.472 C 562.692 55.827, 560.314 56.353, 560.026 56.640 C 559.207 57.459, 563.208 60.064, 566.236 60.684 L 568.972 61.244 566.486 64.199 C 563.795 67.397, 563.135 73.596, 564.972 78.427 C 565.897 80.858, 565.747 81.017, 561.972 81.620 C 555.393 82.672, 557.864 87, 565.044 87 C 568.796 87, 589.777 80.615, 592.452 78.659 C 595.247 76.615, 593.430 75, 588.334 75 C 584.459 75, 583.883 74.748, 584.440 73.295 C 584.800 72.358, 585.344 69.769, 585.649 67.543 C 586.094 64.297, 585.802 63.131, 584.176 61.660 C 581.617 59.343, 578.408 59.863, 578.753 62.538 C 579.436 67.831, 579.139 70.111, 577.301 73.651 C 574.464 79.119, 571.604 78.931, 571.192 73.250 C 570.961 70.054, 571.582 67.759, 573.692 64.001 C 575.237 61.251, 576.950 58.992, 577.500 58.979 C 578.050 58.966, 580.525 58.033, 583 56.904 L 587.500 54.853 585.139 52.926 C 582.271 50.586, 581.849 50.587, 575.285 52.949 M 766.990 61.250 C 766.393 63.587, 765.028 67.750, 763.958 70.500 C 760.799 78.619, 760.576 81.255, 762.818 84.023 C 765.521 87.361, 771.113 87.152, 777.898 83.459 C 786.712 78.662, 789.832 69.741, 784.545 64.455 C 782.165 62.074, 778.610 61.205, 777.644 62.766 C 777.384 63.188, 777.652 65.636, 778.240 68.206 C 779.142 72.149, 779.042 73.287, 777.596 75.493 C 775.775 78.273, 772.316 80.048, 770.250 79.262 C 768.299 78.519, 768.829 74.879, 771.526 70.500 C 775.449 64.130, 774.558 57, 769.839 57 C 768.603 57, 767.752 58.270, 766.990 61.250 M 636.740 63.534 C 634.029 65.430, 629.617 67.353, 626.490 68.002 C 623.471 68.629, 621 69.548, 621 70.045 C 621 71.360, 626.516 74.004, 629.200 73.976 C 630.465 73.963, 634.187 72.848, 637.472 71.498 C 644.612 68.563, 645.762 69.206, 644.085 75.195 C 641.803 83.346, 642.683 90, 646.042 90 C 648.939 90, 650.743 85.400, 652.308 74.015 C 653.650 64.259, 653.627 63.627, 651.862 61.862 C 648.842 58.842, 642.437 59.551, 636.740 63.534 M 709.250 66.031 C 706.906 66.973, 706.620 67.982, 707.630 71.750 C 708.371 74.512, 711.890 74.756, 714.833 72.250 C 716.789 70.583, 717.382 69.027, 717.118 66.250 C 716.983 64.818, 712.574 64.695, 709.250 66.031 M 461.500 81.972 C 459.850 82.395, 455.713 84.149, 452.306 85.870 C 447.581 88.258, 444.795 89, 440.556 89 C 435.585 89, 435 89.220, 435 91.092 C 435 92.243, 435.900 94.329, 437 95.727 C 438.584 97.741, 439 99.784, 439 105.553 C 439 116.325, 440.749 118.791, 444.667 113.545 C 446.351 111.290, 447.597 110.983, 459.991 109.772 C 471.904 108.609, 473.524 108.231, 473.849 106.543 C 474.052 105.492, 473.401 104.035, 472.403 103.305 C 470.666 102.035, 470.661 101.702, 472.294 95.575 C 474.301 88.041, 474.459 83.859, 472.800 82.200 C 471.481 80.881, 466.180 80.775, 461.500 81.972 M 738.606 82.829 C 738.324 83.285, 738.642 85.648, 739.312 88.079 C 739.995 90.556, 740.305 95.138, 740.016 98.500 L 739.500 104.500 730.163 106.830 C 725.028 108.111, 720.713 109.011, 720.574 108.830 C 720.435 108.648, 720.515 106.655, 720.751 104.401 L 721.181 100.302 727.968 100.286 C 735.847 100.267, 737 99.772, 737 96.409 C 737 92.663, 733.565 91.834, 727.500 94.117 C 721.507 96.373, 720 96.464, 720 94.573 C 720 92.534, 715.158 89, 712.365 89 C 709.590 89, 709.500 89.559, 711.500 94.346 C 712.373 96.436, 713 101.018, 713 105.313 C 713 111.449, 713.340 112.998, 715.024 114.521 C 716.575 115.925, 717.322 116.078, 718.224 115.176 C 718.871 114.529, 721.898 113.991, 724.950 113.980 C 733.086 113.951, 744.289 112.139, 745.825 110.604 C 747.391 109.037, 750.336 89.548, 749.510 86.215 C 748.703 82.957, 740.165 80.307, 738.606 82.829 M 454.522 92.151 C 447.529 94.937, 446.855 95.697, 447.200 100.414 C 447.488 104.335, 447.626 104.488, 450.628 104.202 C 452.349 104.039, 455.939 103.364, 458.607 102.702 C 464.190 101.319, 466.139 98.150, 464.423 93.250 C 463.223 89.824, 460.986 89.576, 454.522 92.151 M 774.004 97.750 C 774.011 101.118, 778.021 106.107, 782.271 108.036 C 785.651 109.570, 788.830 109.960, 798.101 109.978 C 810.580 110.002, 815.428 108.938, 817.102 105.809 C 817.685 104.720, 818.013 103.703, 817.831 103.550 C 814.577 100.808, 803.877 100.140, 795.221 102.138 C 788.831 103.613, 784.113 102.666, 779.468 98.974 C 775.165 95.555, 773.998 95.294, 774.004 97.750 M 893.500 153.480 C 886.901 154.933, 879.573 157.662, 872.081 161.459 C 869.398 162.819, 863.318 164.905, 858.570 166.096 C 842.625 170.095, 841.015 174.209, 853 180.332 C 863.466 185.679, 867.534 185.325, 883.408 177.692 C 889.944 174.549, 898.939 171.071, 903.396 169.963 C 912.032 167.815, 915.399 165.466, 916.536 160.793 C 917.056 158.658, 916.643 157.574, 914.583 155.665 C 910.385 151.774, 904.174 151.130, 893.500 153.480 M 652.139 157.917 C 649.190 158.935, 645.595 160.950, 644.151 162.395 C 640.853 165.693, 641.586 167.104, 649.257 172.223 C 654.020 175.402, 655.159 176.792, 657.041 181.723 C 659.121 187.175, 659.296 189.833, 660.154 229 C 660.654 251.825, 661.280 271.884, 661.544 273.576 C 662.747 281.266, 668.395 282.621, 673.695 276.490 C 680.651 268.443, 687.849 250.500, 690.495 234.612 L 691.142 230.725 703.321 231.612 C 729.176 233.497, 739.020 232.098, 746.803 225.437 C 756.199 217.394, 756.571 208.085, 747.689 203.254 C 743.265 200.848, 725.053 200.879, 716 203.309 C 708.894 205.216, 695.543 211.199, 692.748 213.728 C 691.780 214.604, 690.820 215.136, 690.614 214.911 C 690.409 214.685, 689.953 208.200, 689.602 200.500 C 688.671 180.108, 687.982 171.891, 686.912 168.428 C 685.713 164.550, 680.613 159.566, 675.782 157.551 C 670.645 155.408, 658.875 155.590, 652.139 157.917 M 821.223 172.557 C 818.108 174.738, 818.422 177.041, 822.960 185.309 C 829.068 196.439, 830.372 202.964, 829.675 218.906 C 829.327 226.854, 829.514 234.296, 830.133 237.185 C 832.169 246.680, 840.094 252.266, 851.396 252.172 C 858.421 252.114, 863.785 250.411, 872.778 245.382 C 876.283 243.422, 879.348 242.014, 879.588 242.255 C 880.344 243.011, 877.278 257.261, 875.164 262.819 C 871.086 273.537, 869.073 275.011, 854.222 278.160 C 848.908 279.287, 839.201 282.179, 832.650 284.588 C 814.025 291.438, 807.359 293.009, 794.319 293.620 C 775.168 294.518, 767 298.045, 767 305.414 C 767 310.614, 770.477 314.675, 778 318.263 C 781.679 320.018, 784.233 320.394, 792 320.326 C 806.590 320.199, 824.070 315.371, 855.443 302.803 C 899.490 285.158, 913.058 281.654, 943.793 279.986 C 965.128 278.827, 972.530 277.329, 986.471 271.349 C 996.739 266.943, 998.675 264.703, 996.645 259.573 C 994.567 254.319, 988.359 252.019, 974.382 251.324 C 956.056 250.412, 938.457 253.385, 912.250 261.820 C 905.513 263.989, 900 265.466, 900 265.104 C 900 262.385, 909.327 236.021, 910.727 234.783 C 911.702 233.921, 915.941 231.594, 920.146 229.612 C 924.351 227.630, 930.552 223.933, 933.925 221.397 C 942.747 214.766, 945.149 209.248, 940.887 205.405 C 939.080 203.775, 937.240 203.508, 928.137 203.555 C 915.235 203.621, 908.109 205.573, 890 214.002 C 875.546 220.730, 867.610 223.252, 862.280 222.812 L 858.500 222.500 857.920 210.912 C 857.411 200.729, 856.964 198.520, 854.235 192.689 C 852.527 189.039, 849.088 183.870, 846.593 181.202 C 838.651 172.712, 826.778 168.666, 821.223 172.557 M 597.500 188.617 C 592.057 189.986, 586.642 192.782, 575.588 199.931 C 561.096 209.304, 548.149 215.927, 537.554 219.388 C 527.212 222.766, 525 224.289, 525 228.038 C 525 231.757, 528.978 234.438, 536.954 236.094 C 551.415 239.096, 563.462 236.373, 578 226.817 C 586.320 221.348, 596.775 216.442, 597.841 217.507 C 598.040 217.707, 597.474 224.761, 596.582 233.185 C 595.691 241.608, 594.717 250.830, 594.418 253.677 C 594.119 256.525, 593.864 262.634, 593.851 267.253 C 593.815 280.275, 597.052 285.801, 605.261 286.726 C 609.251 287.176, 609.856 286.928, 612.711 283.677 C 615.673 280.302, 616.742 277.518, 621.224 261.500 C 623.020 255.078, 624.194 238.733, 625.329 204.323 C 625.542 197.879, 623.293 194.451, 616.675 191.133 C 612.037 188.807, 601.987 187.489, 597.500 188.617 M 665.500 289.986 C 656.508 292.324, 650.475 294.740, 638.039 300.980 C 616.343 311.868, 604.950 315, 587.042 315 C 577.151 315, 575.781 315.219, 573.896 317.104 C 571.170 319.830, 571.791 323.208, 576.725 332.500 C 578.769 336.350, 581.783 342.140, 583.423 345.367 L 586.405 351.234 586.485 370.867 C 586.559 388.755, 586.758 390.922, 588.727 395.250 C 590.731 399.655, 591.153 400, 594.539 400 C 596.548 400, 599.456 399.253, 601.001 398.340 C 604.175 396.465, 608 390.313, 608 387.082 C 608 385.903, 608.563 384.760, 609.250 384.544 C 609.938 384.328, 628.911 382.995, 651.414 381.583 C 694.906 378.853, 695.814 378.697, 698.171 373.524 C 700.543 368.318, 696.722 361.436, 688.720 356.500 C 687.263 355.601, 687.604 353.481, 692.101 335.500 C 694.851 324.500, 697.350 312.125, 697.653 308 C 698.151 301.232, 697.972 300.158, 695.814 297 C 690.463 289.169, 678.917 286.497, 665.500 289.986 M 895.824 306.493 C 888.606 309.146, 880.305 315.486, 867.140 328.397 C 846.029 349.103, 840.074 358.261, 840.024 370.101 C 839.960 385.214, 848.463 393.356, 865.640 394.628 C 876.392 395.424, 894.391 393.574, 901.396 390.953 C 909.839 387.794, 921.377 379.671, 931.115 370.029 C 938.681 362.538, 939.879 360.863, 940.961 356.266 C 943.528 345.351, 939.288 333.852, 927.294 319.202 C 918.060 307.924, 913.539 304.979, 905.600 305.070 C 902.245 305.109, 897.846 305.749, 895.824 306.493 M 650 318.857 C 647.525 319.826, 642.350 322.386, 638.500 324.544 C 634.650 326.703, 627.451 329.826, 622.502 331.485 C 610.501 335.506, 610.334 335.856, 612.385 352.670 C 613.230 359.591, 614.051 365.374, 614.210 365.521 C 614.684 365.956, 647.944 358.226, 655.105 356.016 C 664.644 353.073, 665.168 352.220, 666.249 337.871 C 667.264 324.386, 666.949 321.962, 663.799 319.028 C 661.103 316.516, 656.132 316.454, 650 318.857 M 888.504 337.696 C 871.518 350.888, 869.005 354.528, 872.138 361.403 C 873.501 364.395, 877.349 365.892, 885.732 366.692 C 894.342 367.513, 899.525 365.395, 905.856 358.467 C 914.887 348.586, 916.716 335.716, 910.040 329.040 C 906.100 325.100, 903.246 326.247, 888.504 337.696" stroke="none" fill="#373536" fill-rule="evenodd"/><path d="M 805.310 66.500 C 805.315 69.800, 805.502 71.029, 805.725 69.232 C 805.947 67.435, 805.943 64.735, 805.715 63.232 C 805.486 61.729, 805.304 63.200, 805.310 66.500 M 814.310 68.500 C 814.315 71.800, 814.502 73.029, 814.725 71.232 C 814.947 69.435, 814.943 66.735, 814.715 65.232 C 814.486 63.729, 814.304 65.200, 814.310 68.500 M 160 170.559 C 160 172.239, 159.603 172.873, 158.845 172.405 C 158.077 171.930, 157.965 172.134, 158.510 173.015 C 159.109 173.985, 158.868 174.164, 157.612 173.681 C 156.533 173.267, 156.138 173.415, 156.549 174.080 C 156.908 174.661, 157.803 174.906, 158.537 174.624 C 159.270 174.343, 160.089 174.650, 160.356 175.306 C 160.624 175.963, 160.878 174.588, 160.921 172.250 C 160.964 169.912, 160.775 168, 160.500 168 C 160.225 168, 160 169.152, 160 170.559 M 151.708 172.950 C 141.237 179.070, 138.688 181.088, 139.899 182.299 C 140.637 183.037, 141.484 182.890, 142.726 181.807 C 143.702 180.957, 145.175 180.013, 146 179.709 C 147.077 179.314, 146.935 179.134, 145.500 179.072 C 143.794 178.999, 143.933 178.701, 146.454 177.040 C 148.653 175.590, 149.744 175.373, 150.726 176.188 C 151.744 177.032, 151.907 176.921, 151.440 175.704 C 151.006 174.574, 151.994 173.534, 154.917 172.042 C 157.163 170.897, 159 169.743, 159 169.480 C 159 168.711, 158.800 168.806, 151.708 172.950 M 131.323 187.250 C 130.209 188.488, 128.967 190.175, 128.562 191 C 128.157 191.825, 128.731 191.387, 129.837 190.026 L 131.847 187.551 134.173 189.526 L 136.500 191.500 134.652 189.313 C 133.636 188.110, 133.100 186.648, 133.461 186.063 C 134.574 184.262, 133.453 184.884, 131.323 187.250 M 123.400 194.178 C 122.355 195.369, 122.113 195.984, 122.862 195.544 C 123.660 195.075, 124.534 195.247, 124.975 195.959 C 125.388 196.628, 126.575 197.023, 127.613 196.837 C 129.418 196.515, 129.408 196.402, 127.400 194.256 L 125.300 192.011 123.400 194.178 M 659.310 202.500 C 659.315 205.800, 659.502 207.029, 659.725 205.232 C 659.947 203.435, 659.943 200.735, 659.715 199.232 C 659.486 197.729, 659.304 199.200, 659.310 202.500 M 98.502 230.003 C 98.841 230.551, 98.690 231, 98.166 231 C 97.642 231, 96.931 231.739, 96.584 232.641 C 96.074 233.970, 96.226 234.057, 97.380 233.100 C 98.164 232.449, 99.001 232.273, 99.239 232.708 C 99.477 233.144, 99.514 232.883, 99.321 232.129 C 99.081 231.192, 99.606 230.925, 100.984 231.286 C 102.092 231.575, 103.296 231.292, 103.659 230.656 C 104.023 230.020, 103.977 229.809, 103.558 230.186 C 103.138 230.564, 101.690 230.452, 100.340 229.939 C 98.730 229.327, 98.098 229.349, 98.502 230.003 M 166.971 244.039 C 165.737 244.819, 165.782 244.972, 167.250 244.985 C 168.213 244.993, 169 245.450, 169 246 C 169 246.550, 168.213 247.007, 167.250 247.015 C 165.757 247.028, 165.721 247.171, 167 247.983 C 167.957 248.591, 168.621 248.584, 168.835 247.962 C 169.020 247.427, 170.042 248.004, 171.108 249.244 C 172.758 251.165, 172.719 250.906, 170.842 247.500 C 169.630 245.300, 168.594 243.412, 168.540 243.304 C 168.486 243.197, 167.780 243.527, 166.971 244.039 M 168.587 250.859 C 168.150 251.567, 168.364 251.938, 169.116 251.775 C 169.812 251.624, 170.564 252.341, 170.787 253.368 C 171.026 254.469, 170.770 254.976, 170.165 254.602 C 169.600 254.253, 168.900 254.352, 168.610 254.823 C 168.319 255.293, 169.975 255.652, 172.290 255.620 C 175.925 255.570, 176.460 255.831, 176.208 257.531 C 175.967 259.159, 176.095 259.240, 176.943 258 C 177.833 256.699, 178.379 257.179, 178.174 259.083 C 178.139 259.404, 178.779 259.667, 179.596 259.667 C 180.516 259.667, 179.657 258.209, 177.337 255.833 C 173.622 252.028, 171.613 250.624, 174 253.500 C 174.685 254.325, 174.869 255, 174.410 255 C 173.951 255, 172.618 253.800, 171.449 252.334 C 169.983 250.494, 169.095 250.037, 168.587 250.859 M 89.315 254.378 C 89.657 255.270, 89.501 256, 88.969 256 C 88.436 256, 88 256.761, 88 257.691 C 88 259.173, 88.194 259.142, 89.568 257.441 C 91.065 255.588, 91.109 255.628, 90.528 258.334 C 89.861 261.440, 91.438 261.256, 92.255 258.132 C 92.555 256.987, 91.946 255.542, 90.722 254.494 C 88.949 252.976, 88.771 252.961, 89.315 254.378 M 660.328 260.500 C 660.333 264.350, 660.513 265.802, 660.730 263.728 C 660.946 261.653, 660.943 258.503, 660.722 256.728 C 660.501 254.952, 660.324 256.650, 660.328 260.500 M 140.940 265.690 C 137.808 266.899, 137.768 266.961, 140.500 266.376 C 142.150 266.022, 144.731 265.712, 146.235 265.685 C 147.739 265.658, 148.742 265.409, 148.464 265.131 C 147.479 264.146, 144.334 264.380, 140.940 265.690 M 147.184 268.474 C 147.358 268.623, 149.075 269.500, 151 270.421 C 153.851 271.786, 154.140 271.810, 152.559 270.548 C 151.166 269.437, 151.025 269.004, 152.059 269.015 C 154.279 269.039, 156.330 270.657, 155.612 271.819 C 155.257 272.393, 155.331 273.087, 155.776 273.362 C 156.221 273.637, 156.650 273.001, 156.729 271.950 C 156.808 270.899, 156.346 269.714, 155.702 269.316 C 154.633 268.655, 146.456 267.846, 147.184 268.474 M 262.667 269.667 C 262.300 270.033, 262.007 270.821, 262.015 271.417 C 262.024 272.012, 262.474 271.825, 263.015 271 C 263.835 269.752, 264.148 269.729, 264.879 270.863 C 265.621 272.014, 265.843 272.014, 266.303 270.863 C 266.762 269.714, 266.997 269.713, 267.801 270.861 C 268.326 271.609, 268.650 272.959, 268.521 273.861 C 268.392 274.762, 268.482 274.932, 268.719 274.238 C 268.957 273.544, 269.680 273.272, 270.326 273.634 C 271.103 274.070, 271.077 273.838, 270.250 272.947 C 268.758 271.339, 268.583 269.624, 270 270.500 C 270.550 270.840, 271 270.641, 271 270.059 C 271 268.913, 263.761 268.572, 262.667 269.667 M 158.923 270.750 C 158.881 271.163, 158.704 272.234, 158.529 273.132 C 158.343 274.088, 161.067 277.597, 165.106 281.605 C 168.898 285.368, 172 288.061, 172 287.590 C 172 287.118, 170.782 285.686, 169.293 284.407 C 167.804 283.127, 166.811 281.856, 167.086 281.581 C 167.863 280.803, 173.130 285.680, 173.384 287.413 C 173.742 289.847, 178.063 293.913, 179.647 293.305 C 180.521 292.970, 180.968 293.292, 180.791 294.127 C 180.631 294.882, 181.063 295.388, 181.750 295.250 C 182.438 295.113, 183 295.434, 183 295.965 C 183 296.495, 184.012 297.452, 185.250 298.090 C 186.921 298.952, 186.607 298.312, 184.031 295.602 C 182.124 293.596, 179.986 292.175, 179.281 292.445 C 178.577 292.716, 178 292.532, 178 292.036 C 178 291.540, 178.907 290.847, 180.015 290.495 C 181.123 290.144, 181.769 289.435, 181.451 288.920 C 181.129 288.399, 180.205 288.653, 179.365 289.492 C 177.282 291.575, 175.414 291.421, 177.128 289.308 C 178.079 288.135, 178.114 287.848, 177.241 288.373 C 176.422 288.865, 175.372 288.056, 174.241 286.062 C 173.283 284.375, 171.772 282.760, 170.882 282.472 C 168.365 281.658, 165.687 278.312, 166.935 277.540 C 167.521 277.178, 168 276.373, 168 275.750 C 168 275.127, 167.362 275.490, 166.583 276.556 C 165.582 277.924, 165.471 278.863, 166.205 279.747 C 167.874 281.758, 165.513 281.225, 163.655 279.171 C 161.539 276.833, 161.546 275.889, 163.674 276.705 C 164.942 277.192, 165.192 276.942, 164.705 275.674 C 164.322 274.675, 164.555 273.994, 165.281 273.985 C 166.079 273.975, 166 273.653, 165.054 273.054 C 164.197 272.512, 162.926 272.504, 161.935 273.035 C 159.951 274.097, 158.926 273.357, 159.676 271.402 C 159.972 270.631, 159.941 270, 159.607 270 C 159.273 270, 158.966 270.337, 158.923 270.750 M 216.333 271.465 C 216.333 272.271, 217.942 274.409, 219.907 276.215 C 222.319 278.432, 222.719 278.630, 221.136 276.824 C 219.756 275.250, 219.103 273.642, 219.550 272.920 C 220.071 272.076, 219.894 271.947, 218.985 272.510 C 218.023 273.104, 217.835 272.872, 218.299 271.664 C 218.693 270.637, 218.439 270, 217.635 270 C 216.919 270, 216.333 270.659, 216.333 271.465 M 248.500 273 C 246.919 274.650, 245.918 276, 246.274 276 C 246.631 276, 245.027 277.842, 242.711 280.092 C 240.395 282.343, 239.121 283.855, 239.880 283.453 C 240.802 282.964, 241.106 283.183, 240.796 284.111 C 240.542 284.875, 239.733 285.500, 239 285.500 C 237.312 285.500, 236.554 287.607, 237.936 288.460 C 238.583 288.860, 238.728 288.455, 238.319 287.388 C 237.904 286.308, 238.052 285.914, 238.717 286.325 C 240.021 287.131, 242.399 284.454, 241.570 283.113 C 241.238 282.577, 241.537 281.776, 242.234 281.334 C 243.635 280.445, 243.998 280.350, 247.250 280.025 C 249.429 279.808, 249.421 279.778, 247 279.077 L 244.500 278.353 246.882 277.567 C 248.399 277.067, 248.845 276.522, 248.108 276.067 C 247.315 275.576, 247.639 274.750, 249.146 273.426 C 251.100 271.710, 251.269 271.691, 250.701 273.250 C 250.350 274.212, 250.499 275, 251.031 275 C 251.564 275, 252 274.487, 252 273.860 C 252 273.233, 252.787 272.123, 253.750 271.392 C 255.385 270.151, 255.365 270.062, 253.437 270.032 C 252.302 270.014, 250.081 271.350, 248.500 273 M 235.009 272.489 C 234.329 273.308, 233.485 273.800, 233.133 273.582 C 232.781 273.365, 232.476 274.492, 232.455 276.088 L 232.416 278.989 235.708 275.798 C 237.519 274.043, 239 272.196, 239 271.693 C 239 271.190, 238.115 271.841, 237.033 273.139 C 235.952 274.438, 235.052 275.027, 235.033 274.450 C 235.015 273.873, 235.540 272.860, 236.200 272.200 C 236.860 271.540, 237.140 271, 236.822 271 C 236.505 271, 235.689 271.670, 235.009 272.489 M 93.166 272.876 C 90.732 274.419, 94.074 274.778, 101.659 273.788 C 107.535 273.022, 109.363 273.136, 111.859 274.427 C 116.200 276.672, 117.197 276.298, 113 274 C 109.275 271.961, 95.813 271.198, 93.166 272.876 M 118.395 273.786 C 119.935 274.124, 120.029 274.383, 118.895 275.167 C 117.946 275.823, 118.300 275.876, 120 275.333 C 121.375 274.894, 124.389 274.558, 126.697 274.586 C 129.005 274.614, 130.663 274.264, 130.381 273.808 C 130.099 273.352, 126.861 273.067, 123.184 273.174 C 119.508 273.281, 117.353 273.556, 118.395 273.786 M 87 278.138 C 87 278.730, 86.325 278.955, 85.500 278.638 C 84.390 278.212, 84.008 278.769, 84.030 280.781 C 84.057 283.172, 84.188 283.281, 85.116 281.686 C 85.696 280.689, 87.105 279.527, 88.246 279.105 C 90.043 278.440, 90.099 278.252, 88.660 277.700 C 87.747 277.350, 87 277.547, 87 278.138 M 209.230 279.639 C 207.960 282.102, 208.731 284, 211 284 C 212.008 284, 213.060 284.563, 213.338 285.250 C 213.701 286.151, 213.864 286.168, 213.921 285.309 C 213.964 284.654, 213.550 283.840, 213 283.500 C 212.450 283.160, 212 282.389, 212 281.786 C 212 281.183, 212.889 281.495, 213.976 282.479 C 215.063 283.462, 215.731 284.626, 215.460 285.065 C 215.189 285.503, 215.405 286.132, 215.940 286.463 C 216.475 286.794, 216.636 287.837, 216.297 288.782 C 215.958 289.727, 215.992 290.223, 216.372 289.885 C 218.451 288.035, 217.600 285.015, 214.013 281.513 C 210.501 278.083, 210.111 277.930, 209.230 279.639 M 152.382 282.399 C 152.724 284.726, 155.056 286.916, 156.573 286.334 C 157.358 286.032, 158 286.359, 158 287.060 C 158 287.760, 158.305 288.029, 158.677 287.656 C 159.373 286.960, 154.201 281, 152.901 281 C 152.503 281, 152.269 281.630, 152.382 282.399 M 243.482 286.012 C 243.561 287.083, 243.931 288.265, 244.304 288.638 C 244.677 289.011, 244.473 289.930, 243.850 290.681 C 242.955 291.760, 243.061 291.914, 244.359 291.416 C 246.325 290.661, 246.423 289.834, 244.750 288.116 C 243.742 287.082, 243.888 286.897, 245.500 287.166 C 246.707 287.368, 247.500 286.945, 247.500 286.100 C 247.500 285.329, 246.564 284.556, 245.419 284.382 C 243.880 284.147, 243.376 284.571, 243.482 286.012 M 160.250 290.518 C 160.250 291.903, 160.651 293.284, 161.141 293.587 C 161.632 293.890, 161.714 294.670, 161.324 295.319 C 160.921 295.992, 161.344 295.909, 162.308 295.128 C 164.272 293.534, 164.465 292.897, 162.875 293.250 C 162.256 293.387, 161.520 292.866, 161.239 292.091 C 160.868 291.069, 161.230 290.874, 162.557 291.384 C 164.319 292.059, 164.318 292.009, 162.539 290.043 C 160.227 287.488, 160.250 287.483, 160.250 290.518 M 261.150 289.250 C 260.462 289.938, 259.360 290.520, 258.700 290.545 C 258.040 290.570, 257.598 291.090, 257.718 291.701 C 257.838 292.311, 257.276 293.064, 256.468 293.374 C 255.661 293.684, 255 293.515, 255 293 C 255 292.485, 254.403 292.292, 253.672 292.572 C 252.942 292.852, 251.117 292.615, 249.615 292.044 C 247.572 291.267, 247.067 291.299, 247.607 292.173 C 248.091 292.956, 247.781 293.130, 246.664 292.701 C 243.799 291.602, 244.842 292.713, 248.750 294.924 C 252.307 296.937, 252.378 296.942, 250.139 295.023 C 248.411 293.542, 248.194 293, 249.330 293 C 250.184 293, 251.148 293.430, 251.473 293.956 C 251.798 294.482, 252.798 294.631, 253.696 294.286 C 254.787 293.868, 255.088 294.048, 254.605 294.830 C 253.023 297.390, 255.811 295.778, 259.500 292 C 261.648 289.800, 263.180 288, 262.903 288 C 262.626 288, 261.837 288.563, 261.150 289.250 M 264.192 298.643 C 261.611 301.196, 260.372 302.659, 261.437 301.893 C 263.197 300.628, 263.313 300.683, 262.708 302.500 C 262.129 304.239, 262.251 304.206, 263.643 302.250 C 264.523 301.012, 265.694 300, 266.244 300 C 266.795 300, 266.627 300.788, 265.872 301.750 C 264.621 303.345, 264.659 303.375, 266.292 302.092 C 267.536 301.116, 267.766 300.366, 267.042 299.642 C 265.619 298.219, 265.730 296.997, 267.250 297.367 C 267.938 297.535, 268.139 297.476, 267.697 297.235 C 267.255 296.995, 267.705 296.183, 268.697 295.431 C 269.689 294.679, 270.136 294.049, 269.692 294.032 C 269.247 294.014, 266.772 296.089, 264.192 298.643 M 170.292 297.625 C 171.277 298.794, 171.952 300.369, 171.792 301.125 C 171.600 302.029, 172.290 302.415, 173.808 302.251 C 175.078 302.115, 175.858 302.421, 175.542 302.932 C 175.226 303.444, 175.385 304.120, 175.896 304.436 C 177.209 305.247, 176.624 302.224, 175.190 300.790 C 174.270 299.870, 174 299.872, 174 300.800 C 174 301.460, 173.564 302, 173.031 302 C 172.499 302, 172.290 301.409, 172.567 300.687 C 172.844 299.965, 172.042 298.502, 170.785 297.437 L 168.500 295.500 170.292 297.625 M 191.538 297.939 C 191.219 298.455, 191.755 299.341, 192.729 299.908 C 194.119 300.718, 194.178 300.953, 193 301.005 C 192.081 301.045, 192.468 301.624, 194 302.500 C 196.788 304.094, 199.354 304.521, 197 303 C 195.667 302.138, 195.667 302.025, 197 301.980 C 197.922 301.949, 197.575 301.416, 196.099 300.598 C 194.303 299.603, 194.051 299.110, 195.099 298.643 C 195.869 298.300, 195.431 298.288, 194.125 298.616 C 192.527 299.019, 191.973 298.852, 192.434 298.107 C 192.810 297.498, 192.893 297, 192.618 297 C 192.343 297, 191.857 297.422, 191.538 297.939 M 82.641 302.210 C 82.303 303.470, 82.089 307.200, 82.165 310.500 C 82.299 316.356, 82.319 316.307, 83 308.500 C 83.738 300.052, 83.647 298.455, 82.641 302.210 M 248.863 309.297 C 249.613 310.222, 250.626 310.731, 251.113 310.430 C 251.601 310.129, 252 310.385, 252 311 C 252 311.615, 252.414 311.862, 252.919 311.550 C 254.640 310.486, 257.026 314.021, 256.478 316.822 L 255.954 319.500 257.020 317.046 C 257.880 315.067, 257.718 314.100, 256.179 312.046 C 255.130 310.646, 253.423 309.483, 252.385 309.463 C 251.347 309.442, 249.823 309.018, 248.999 308.521 C 247.709 307.742, 247.690 307.850, 248.863 309.297 M 232.200 313.200 C 231.540 313.860, 231.014 314.873, 231.030 315.450 C 231.047 316.027, 231.519 315.712, 232.080 314.750 C 233.503 312.308, 235.364 312.451, 234.053 314.902 C 233.179 316.534, 233.328 316.727, 235.102 316.263 C 236.676 315.852, 236.851 315.521, 235.835 314.877 C 234.763 314.197, 234.796 314.025, 236 314 C 237.333 313.973, 237.333 313.862, 236 313 C 234.050 311.740, 233.638 311.762, 232.200 313.200 M 209.575 316.879 C 209.276 317.362, 206.887 317.605, 204.266 317.418 L 199.500 317.078 204.500 318.100 C 210.708 319.369, 211.132 319.392, 213.079 318.578 C 214.131 318.138, 215.058 318.681, 215.860 320.209 C 216.521 321.469, 216.837 321.712, 216.562 320.750 C 216.286 319.782, 216.607 318.972, 217.281 318.937 C 217.952 318.902, 217.487 318.466, 216.249 317.968 C 215.011 317.471, 213.249 317.351, 212.335 317.702 C 211.217 318.131, 210.909 317.956, 211.395 317.170 C 211.793 316.526, 211.668 316, 211.118 316 C 210.568 316, 209.874 316.396, 209.575 316.879 M 219.079 320.215 C 218.991 322.119, 222.488 324.434, 224.021 323.487 C 225.494 322.577, 225.201 321.291, 223.359 320.584 C 221.986 320.057, 221.924 320.204, 222.981 321.477 C 223.676 322.315, 223.852 322.993, 223.372 322.985 C 221.979 322.960, 220.347 321.623, 219.729 320 C 219.267 318.788, 219.143 318.829, 219.079 320.215 M 247.076 321.409 C 246.091 322.595, 246.343 323.179, 248.433 324.548 C 249.845 325.473, 251 326.683, 251 327.237 C 251 327.792, 250.213 327.635, 249.250 326.890 C 247.825 325.786, 247.854 325.950, 249.405 327.767 C 250.453 328.995, 251.540 330, 251.822 330 C 252.103 330, 252.037 329.704, 251.675 329.342 C 251.313 328.980, 251.446 328.167, 251.971 327.535 C 252.628 326.744, 251.969 325.822, 249.851 324.571 C 247.566 323.221, 247.119 322.544, 248.110 321.932 C 248.843 321.479, 249.182 320.848, 248.864 320.530 C 248.545 320.212, 247.741 320.607, 247.076 321.409 M 234.543 327.931 C 233.828 329.087, 235.664 330.326, 236.931 329.543 C 237.443 329.226, 238.144 329.425, 238.490 329.984 C 238.835 330.543, 238.529 331.014, 237.809 331.030 C 237.089 331.047, 237.400 331.598, 238.500 332.254 C 240.535 333.469, 241.038 333.642, 243.250 333.890 C 244.172 333.994, 244.196 334.224, 243.341 334.768 C 242.513 335.295, 242.727 336.179, 244.091 337.864 C 245.141 339.161, 246 339.748, 246 339.170 C 246 338.591, 245.550 337.840, 245 337.500 C 244.450 337.160, 244 336.389, 244 335.786 C 244 335.146, 244.729 335.316, 245.750 336.193 C 247.815 337.966, 251.027 339.799, 249.500 338.333 C 245.078 334.087, 237.357 328.559, 236.209 328.817 C 235.418 328.995, 235.089 328.665, 235.459 328.067 C 235.821 327.480, 235.893 327, 235.618 327 C 235.343 327, 234.859 327.419, 234.543 327.931 M 262.184 337.120 C 260.910 338.691, 260.137 340.412, 260.466 340.945 C 261.193 342.121, 264 341.189, 264 339.771 C 264 339.185, 263.365 339.282, 262.500 340 C 260.221 341.892, 260.709 339.939, 263.171 337.318 C 264.364 336.048, 265.152 334.840, 264.921 334.636 C 264.689 334.431, 263.458 335.549, 262.184 337.120 M 91 348.892 C 91 349.566, 90.519 349.821, 89.932 349.458 C 89.344 349.095, 90.027 351.093, 91.449 353.899 C 92.870 356.705, 94.508 359, 95.088 359 C 95.668 359, 95.436 358.293, 94.571 357.429 C 93.707 356.564, 92.963 355.327, 92.917 354.679 C 92.651 350.922, 92.258 348.924, 91.667 348.334 C 91.300 347.967, 91 348.218, 91 348.892 M 102.063 365.372 C 102.009 366.991, 101.763 367.066, 100.250 365.923 C 99.287 365.196, 100.506 366.715, 102.958 369.300 C 105.410 371.885, 107.638 374, 107.908 374 C 108.179 374, 107.860 373.460, 107.200 372.800 C 105.345 370.945, 105.783 369.589, 107.750 371.095 C 108.713 371.831, 109.166 372.040, 108.759 371.559 C 108.351 371.078, 108.530 370.066, 109.158 369.310 C 110.107 368.166, 109.844 368.109, 107.584 368.968 C 104.346 370.199, 103.952 370.232, 104.156 369.250 C 104.242 368.837, 103.821 367.375, 103.220 366 C 102.352 364.015, 102.114 363.886, 102.063 365.372 M 192 414.187 C 192 415.604, 199.636 418.698, 200.644 417.689 C 200.891 417.442, 199.835 416.926, 198.297 416.542 C 196.758 416.158, 194.713 415.134, 193.750 414.267 C 192.232 412.899, 192 412.888, 192 414.187 M 254.333 420.500 C 254.333 421.325, 254.559 421.774, 254.836 421.498 C 255.112 421.222, 256.160 421.740, 257.165 422.650 C 258.554 423.907, 258.724 424.627, 257.874 425.652 C 257.039 426.658, 257.067 427, 257.985 427 C 258.667 427, 258.958 427.668, 258.638 428.500 C 258.249 429.515, 258.689 430, 260 430 C 261.311 430, 261.751 429.515, 261.362 428.500 C 261.045 427.675, 260.384 427, 259.893 427 C 259.402 427, 259 426.523, 259 425.941 C 259 425.359, 259.563 425.201, 260.250 425.591 C 260.938 425.981, 259.949 424.658, 258.054 422.650 C 256.158 420.643, 254.546 419, 254.470 419 C 254.395 419, 254.333 419.675, 254.333 420.500" stroke="none" fill="#5f9cd1" fill-rule="evenodd"/><path d="M 275.750 40.737 C 278.637 40.939, 283.363 40.939, 286.250 40.737 C 289.137 40.535, 286.775 40.370, 281 40.370 C 275.225 40.370, 272.863 40.535, 275.750 40.737 M 307.728 41.722 C 309.503 41.943, 312.653 41.946, 314.728 41.730 C 316.802 41.513, 315.350 41.333, 311.500 41.328 C 307.650 41.324, 305.952 41.501, 307.728 41.722 M 226.750 52.566 C 224.137 53.926, 222 55.262, 222 55.536 C 222 55.982, 231.900 51.306, 232.917 50.380 C 234.155 49.251, 230.901 50.405, 226.750 52.566 M 211 62.360 C 208.525 64.181, 205.825 66.499, 205 67.513 C 204.175 68.526, 206.313 67.178, 209.750 64.517 C 215.223 60.281, 216.697 58.931, 215.750 59.025 C 215.613 59.038, 213.475 60.539, 211 62.360 M 666.355 95.500 C 666.352 100.450, 666.521 102.601, 666.731 100.280 C 666.940 97.959, 666.943 93.909, 666.736 91.280 C 666.530 88.651, 666.358 90.550, 666.355 95.500 M 392.349 152 C 392.349 156.675, 392.522 158.588, 392.732 156.250 C 392.943 153.912, 392.943 150.088, 392.732 147.750 C 392.522 145.412, 392.349 147.325, 392.349 152 M 363.250 162.735 C 365.863 162.941, 370.137 162.941, 372.750 162.735 C 375.363 162.529, 373.225 162.360, 368 162.360 C 362.775 162.360, 360.637 162.529, 363.250 162.735 M 268.250 173.735 C 270.863 173.941, 275.137 173.941, 277.750 173.735 C 280.363 173.529, 278.225 173.360, 273 173.360 C 267.775 173.360, 265.637 173.529, 268.250 173.735 M 288.750 173.723 C 290.538 173.945, 293.462 173.945, 295.250 173.723 C 297.038 173.502, 295.575 173.320, 292 173.320 C 288.425 173.320, 286.962 173.502, 288.750 173.723 M 292.450 197.940 C 291.928 198.457, 289.250 199.051, 286.500 199.260 L 281.500 199.640 286.628 199.820 C 290.142 199.943, 292.147 199.528, 293 198.500 C 294.367 196.853, 293.964 196.442, 292.450 197.940 M 176.750 200.743 C 180.738 200.932, 187.262 200.932, 191.250 200.743 C 195.238 200.553, 191.975 200.397, 184 200.397 C 176.025 200.397, 172.762 200.553, 176.750 200.743" stroke="none" fill="#d2ce3c" fill-rule="evenodd"/></svg>